<svg width="96" height="96" viewBox="0 0 96 96" fill="none" xmlns="http://www.w3.org/2000/svg">
<mask id="mask0_241_449" style="mask-type:alpha" maskUnits="userSpaceOnUse" x="0" y="0" width="96" height="96">
<rect width="96" height="96" fill="#C4C4C4"/>
</mask>
<g mask="url(#mask0_241_449)">
<path d="M30.9811 86.2888C30.6878 86.2901 30.3999 86.21 30.1493 86.0575C29.8988 85.9049 29.6955 85.6859 29.5621 85.4247L26.8905 80.3352C13.4929 54.9431 4.6457 38.1605 9.86997 23.8036C11.3454 19.5887 14.0953 15.937 17.7387 13.3547C21.3821 10.7724 25.7385 9.38726 30.2042 9.39131C32.8117 9.39619 35.3981 9.85767 37.8464 10.7548C41.0429 11.9448 43.9468 13.8068 46.362 16.2152C48.7772 18.6236 50.6475 21.5222 51.8465 24.7153C51.9278 24.9453 52.0779 25.1448 52.2765 25.2866C52.475 25.4284 52.7124 25.5057 52.9563 25.5081C53.1592 25.5098 53.3588 25.4578 53.5351 25.3574C57.1275 23.3321 61.1835 22.2723 65.3075 22.2815C68.0106 22.2717 70.6942 22.7387 73.2351 23.6609C75.9429 24.6176 78.433 26.1042 80.56 28.0339C82.6869 29.9637 84.408 32.2978 85.6228 34.9001C86.8376 37.5024 87.5217 40.3207 87.6352 43.1903C87.7487 46.06 87.2893 48.9235 86.2839 51.6136C81.0675 65.9466 63.5396 73.1211 37.0219 83.9739L31.5836 86.1857C31.3913 86.2588 31.1867 86.2938 30.9811 86.2888Z" fill="white"/>
<path fill-rule="evenodd" clip-rule="evenodd" d="M53.5351 25.3574C53.3588 25.4578 53.1592 25.5098 52.9564 25.5081C52.7124 25.5057 52.475 25.4284 52.2765 25.2866C52.0779 25.1448 51.9278 24.9453 51.8465 24.7153C50.6475 21.5222 48.7772 18.6236 46.362 16.2152C43.9468 13.8068 41.0429 11.9448 37.8464 10.7548C35.3982 9.85766 32.8117 9.39618 30.2042 9.3913C25.7385 9.38725 21.3821 10.7724 17.7387 13.3547C14.0954 15.937 11.3454 19.5887 9.87 23.8036C4.64573 38.1605 13.4929 54.9431 26.8905 80.3352L29.5621 85.4247C29.6956 85.6859 29.8988 85.9049 30.1494 86.0575C30.3999 86.21 30.6878 86.2901 30.9811 86.2888C31.1867 86.2938 31.3914 86.2588 31.5836 86.1857L37.0219 83.9739C63.5397 73.1211 81.0676 65.9466 86.2839 51.6136C87.2894 48.9234 87.7488 46.06 87.6353 43.1903C87.5218 40.3207 86.8376 37.5024 85.6228 34.9001C84.408 32.2978 82.6869 29.9637 80.56 28.0339C78.4331 26.1042 75.943 24.6176 73.2351 23.6609C70.6942 22.7387 68.0106 22.2717 65.3075 22.2815C61.1835 22.2723 57.1275 23.3321 53.5351 25.3574ZM65.3046 18.1076C68.4883 18.0975 71.6491 18.6471 74.6425 19.7314C77.8666 20.873 80.8315 22.6444 83.3646 24.9427C85.9022 27.245 87.9556 30.0298 89.405 33.1346C90.8543 36.2393 91.6705 39.6017 91.8059 43.0254C91.9411 46.4429 91.3952 49.8531 90.2001 53.0575C87.1142 61.521 80.4835 67.5311 71.7671 72.6906C63.1538 77.7891 51.9077 82.3917 38.8615 87.731L38.5944 87.8403L33.1119 90.0701L33.0672 90.0871C32.3875 90.3455 31.6653 90.4729 30.9386 90.4626C29.8944 90.4562 28.8711 90.166 27.9785 89.6224C27.0771 89.0735 26.3441 88.2877 25.8591 87.3508L23.1948 82.2751L23.0888 82.0742C16.4885 69.5649 10.8004 58.7845 7.46096 49.32C4.08595 39.7545 2.86209 30.8784 5.93922 22.3997C7.70286 17.3779 10.9824 13.0274 15.3251 9.94938C19.6751 6.86628 24.8763 5.21256 30.208 5.21739L30.212 5.21739C33.3069 5.22319 36.3767 5.77092 39.2826 6.83579L39.2926 6.83946L39.3026 6.84318C43.0588 8.24149 46.4711 10.4296 49.3092 13.2596C51.3782 15.3227 53.1068 17.6919 54.4376 20.2781C57.8694 18.843 61.5631 18.1009 65.3046 18.1076ZM51.4852 21.7216L51.481 21.724Z" fill="white"/>
<path d="M30.9811 86.2888C30.6878 86.2901 30.3999 86.21 30.1493 86.0575C29.8988 85.9049 29.6955 85.6859 29.5621 85.4247L26.8905 80.3352C13.4929 54.9431 4.6457 38.1605 9.86997 23.8036C11.3454 19.5887 14.0953 15.937 17.7387 13.3547C21.3821 10.7724 25.7385 9.38726 30.2042 9.39131C32.8117 9.39619 35.3981 9.85767 37.8464 10.7548C41.0429 11.9448 43.9468 13.8068 46.362 16.2152C48.7772 18.6236 50.6475 21.5222 51.8465 24.7153C51.9278 24.9453 52.0779 25.1448 52.2765 25.2866C52.475 25.4284 52.7124 25.5057 52.9563 25.5081C53.1592 25.5098 53.3588 25.4578 53.5351 25.3574C57.1275 23.3321 61.1835 22.2723 65.3075 22.2815C68.0106 22.2717 70.6942 22.7387 73.2351 23.6609C75.9429 24.6176 78.433 26.1042 80.56 28.0339C82.6869 29.9637 84.408 32.2978 85.6228 34.9001C86.8376 37.5024 87.5217 40.3207 87.6352 43.1903C87.7487 46.06 87.2893 48.9235 86.2839 51.6136C81.0675 65.9466 63.5396 73.1211 37.0219 83.9739L31.5836 86.1857C31.3913 86.2588 31.1867 86.2938 30.9811 86.2888Z" fill="url(#paint0_linear_241_449)"/>
<path opacity="0.3" d="M16.9095 29.0834C16.6388 29.0851 16.37 29.0367 16.1168 28.9407C15.596 28.7291 15.1794 28.3211 14.9569 27.805C14.7344 27.2888 14.7239 26.7058 14.9276 26.1819C16.318 22.6168 18.751 19.5538 21.909 17.3928C25.0671 15.2318 28.8033 14.0733 32.6299 14.0686C33.172 14.1017 33.681 14.3403 34.0532 14.7359C34.4253 15.1314 34.6325 15.654 34.6325 16.1971C34.6325 16.7402 34.4253 17.2628 34.0532 17.6584C33.681 18.0539 33.172 18.2926 32.6299 18.3257C29.6627 18.3369 26.7673 19.2392 24.3191 20.9157C21.8708 22.5921 19.9827 24.9654 18.8994 27.7278C18.7428 28.1279 18.4691 28.4714 18.1141 28.7133C17.759 28.9552 17.3392 29.0842 16.9095 29.0834V29.0834Z" fill="white"/>
</g>
<defs>
<linearGradient id="paint0_linear_241_449" x1="9.24369" y1="70.1403" x2="74.2181" y2="16.4944" gradientUnits="userSpaceOnUse">
<stop stop-color="#DF1D1D"/>
<stop offset="0.689008" stop-color="#EF5350"/>
</linearGradient>
</defs>
</svg>
