<svg width="92" height="92" viewBox="0 0 92 92" fill="none" xmlns="http://www.w3.org/2000/svg">
<mask id="mask0" mask-type="alpha" maskUnits="userSpaceOnUse" x="0" y="0" width="92" height="92">
<rect width="92" height="92" fill="#C4C4C4"/>
</mask>
<g mask="url(#mask0)">
<path fill-rule="evenodd" clip-rule="evenodd" d="M11.539 17.8999V21.7477L9.75943 21.877C8.7145 21.953 7.92921 22.8649 8.0052 23.9099L11.6783 74.4532C11.7219 75.0523 12.0402 75.566 12.5008 75.881C12.8648 76.282 13.3898 76.5304 13.9645 76.5304H13.9646C14.0152 76.5304 14.0595 76.5304 14.1102 76.5241L53.0009 73.6996L78.0034 75.6185C78.054 75.6248 78.1047 75.6248 78.1554 75.6248C79.175 75.6248 80.0426 74.8395 80.1249 73.8009L83.9943 23.4349C84.0423 22.8009 83.7877 22.2142 83.3518 21.8182C83.0376 21.3606 82.526 21.0437 81.9299 20.9967L78.871 20.7618V18.3052C78.871 17.7256 78.62 17.2034 78.2209 16.8416C77.8804 16.3336 77.3009 16 76.6418 16H13.4388C12.3876 16 11.539 16.8486 11.539 17.8999Z" fill="white"/>
<path fill-rule="evenodd" clip-rule="evenodd" d="M80.1249 73.8009C80.0426 74.8395 79.175 75.6248 78.1554 75.6248C78.1047 75.6248 78.054 75.6248 78.0034 75.6185L53.0009 73.6996L14.1102 76.5241C14.0595 76.5304 14.0152 76.5304 13.9646 76.5304C13.3899 76.5304 12.8648 76.282 12.5008 75.881C12.0402 75.566 11.7219 75.0523 11.6783 74.4532L8.00522 23.9099C7.92922 22.8649 8.71451 21.953 9.75944 21.877L11.539 21.7477V17.8999C11.539 16.8486 12.3876 16 13.4389 16H76.6418C77.3009 16 77.8804 16.3336 78.221 16.8416C78.62 17.2034 78.871 17.7256 78.871 18.3052V20.7618L81.9299 20.9967C82.526 21.0437 83.0376 21.3606 83.3518 21.8182C83.7877 22.2142 84.0423 22.8009 83.9944 23.4349L80.1249 73.8009ZM86.3701 19.1801C87.4825 20.3599 88.1147 21.9929 87.983 23.7363L87.9826 23.7413L84.1124 74.117C83.8639 77.2522 81.2449 79.6248 78.1554 79.6248L78.1521 79.6248C78.1227 79.6251 77.9133 79.6271 77.6545 79.6035L52.9926 77.7107L14.4509 80.5099C14.2074 80.5319 14.0149 80.5307 13.9717 80.5305C13.9685 80.5304 13.9661 80.5304 13.9646 80.5304C12.3863 80.5304 10.9364 79.9115 9.86445 78.901C8.64794 77.9173 7.81241 76.4421 7.68887 74.7433L4.01575 24.2C4.01575 24.1999 4.01576 24.2001 4.01575 24.2C3.82986 21.6427 5.30645 19.3365 7.53896 18.3623V17.8999C7.53896 14.6395 10.1784 12 13.4389 12H76.6418C78.5082 12 80.1743 12.8684 81.2526 14.2174C81.983 14.9963 82.5118 15.9776 82.7424 17.0695C84.213 17.3112 85.4874 18.0908 86.3701 19.1801Z" fill="white"/>
<path d="M77.7565 75.3018L13.6036 70.3748C12.5587 70.2924 11.7734 69.3805 11.8557 68.3356L15.7378 17.8176C15.8201 16.7726 16.7321 15.9873 17.777 16.0697L81.9299 20.9967C82.9748 21.079 83.7601 21.991 83.6778 23.0359L79.7957 73.5539C79.7134 74.5989 78.8014 75.3778 77.7565 75.3018Z" fill="url(#paint0_linear)"/>
<path d="M77.8831 71.5464L13.7112 76.2074C12.6663 76.2834 11.7543 75.4981 11.6783 74.4532L8.0052 23.9099C7.92921 22.8649 8.7145 21.953 9.75943 21.877L73.9313 17.2159C74.9762 17.1399 75.8882 17.9252 75.9642 18.9702L79.631 69.5072C79.7133 70.5584 78.928 71.4704 77.8831 71.5464Z" fill="url(#paint1_linear)"/>
<path d="M76.6418 73.155H13.4388C12.3876 73.155 11.539 72.3063 11.539 71.2551V17.8999C11.539 16.8486 12.3876 16 13.4388 16H76.6418C77.693 16 78.5417 16.8486 78.5417 17.8999V71.2551C78.5417 72.3063 77.693 73.155 76.6418 73.155Z" fill="url(#paint2_linear)"/>
<g opacity="0.2">
<path opacity="0.2" d="M76.8951 18.2292C76.9394 18.2292 76.9711 18.2609 76.9711 18.3052V21.06C76.9711 22.0543 77.7374 22.8776 78.7253 22.9536L82.0311 23.2069C82.0438 23.2069 82.0628 23.2069 82.0818 23.2322C82.1008 23.2576 82.1008 23.2766 82.1008 23.2892L78.2314 73.6553C78.225 73.7059 78.187 73.7249 78.149 73.7249L53.1465 71.806C53.0959 71.7997 53.0515 71.7997 53.0009 71.7997C52.9565 71.7997 52.9122 71.7997 52.8615 71.806L13.9645 74.6305C13.9392 74.6305 13.8948 74.6052 13.8885 74.5609L10.2407 24.1759C10.2407 24.1315 10.2724 24.0999 10.3104 24.0935L12.0076 23.9732C13.0019 23.9035 13.7682 23.0739 13.7682 22.0796V18.3115C13.7682 18.2672 13.7998 18.2355 13.8442 18.2355H76.8951V18.2292ZM76.8951 16.3293H13.8442C12.7549 16.3293 11.8683 17.2159 11.8683 18.3052V22.0733L10.1711 22.2C9.08179 22.276 8.26484 23.2259 8.34084 24.3152L11.995 74.7002C12.0709 75.7388 12.9386 76.5304 13.9645 76.5304C14.0152 76.5304 14.0595 76.5304 14.1102 76.5241L53.0009 73.6996L78.0034 75.6185C78.054 75.6248 78.1047 75.6248 78.1554 75.6248C79.175 75.6248 80.0426 74.8395 80.1249 73.8009L83.9944 23.4349C84.0767 22.3456 83.2661 21.3957 82.1768 21.3134L78.871 21.06V18.3052C78.871 17.2159 77.9844 16.3293 76.8951 16.3293Z" fill="#424242"/>
</g>
<path d="M27.6755 33.5993H17.3781C17.0297 33.5993 16.7448 33.3143 16.7448 32.966V24.7838C16.7448 24.4355 17.0297 24.1505 17.3781 24.1505H27.6755C28.0238 24.1505 28.3088 24.4355 28.3088 24.7838V32.966C28.3088 33.3143 28.0301 33.5993 27.6755 33.5993Z" fill="#757575"/>
<path d="M41.2153 33.5993H30.9115C30.5632 33.5993 30.2782 33.3143 30.2782 32.966V24.7838C30.2782 24.4355 30.5632 24.1505 30.9115 24.1505H41.2089C41.5572 24.1505 41.8422 24.4355 41.8422 24.7838V32.966C41.8486 33.3143 41.5636 33.5993 41.2153 33.5993Z" fill="#757575"/>
<path d="M54.7488 33.5993H44.4451C44.0968 33.5993 43.8118 33.3143 43.8118 32.966V24.7838C43.8118 24.4355 44.0968 24.1505 44.4451 24.1505H54.7425C55.0908 24.1505 55.3758 24.4355 55.3758 24.7838V32.966C55.3821 33.3143 55.0972 33.5993 54.7488 33.5993Z" fill="#757575"/>
<path d="M72.3671 38.6593H17.9987C17.3084 38.6593 16.7448 38.0957 16.7448 37.4054V37.3041C16.7448 36.6138 17.3084 36.0502 17.9987 36.0502H72.3671C73.0574 36.0502 73.6211 36.6138 73.6211 37.3041V37.4054C73.6211 38.102 73.0574 38.6593 72.3671 38.6593Z" fill="#B4B4B5"/>
<path d="M32.7672 64.8144H18.0114C17.3147 64.8144 16.7448 64.2445 16.7448 63.5479V42.8644C16.7448 42.1678 17.3147 41.5978 18.0114 41.5978H32.7672C33.4638 41.5978 34.0337 42.1678 34.0337 42.8644V63.5479C34.0337 64.2508 33.4701 64.8144 32.7672 64.8144Z" fill="#757575"/>
<path d="M36.6429 43.0671H72.3671" stroke="#757575" stroke-width="1.9813" stroke-miterlimit="10" stroke-linecap="round" stroke-linejoin="round"/>
<path d="M36.6429 48.2854H72.3671" stroke="#757575" stroke-width="1.9813" stroke-miterlimit="10" stroke-linecap="round" stroke-linejoin="round"/>
<path d="M58.3396 25.9364H73.3487" stroke="#B4B4B5" stroke-width="1.9813" stroke-miterlimit="10" stroke-linecap="round" stroke-linejoin="round"/>
<path d="M58.3396 31.1611H73.3487" stroke="#B4B4B5" stroke-width="1.9813" stroke-miterlimit="10" stroke-linecap="round" stroke-linejoin="round"/>
<path d="M36.6429 53.5038H72.3671" stroke="#757575" stroke-width="1.9813" stroke-miterlimit="10" stroke-linecap="round" stroke-linejoin="round"/>
<path d="M36.6429 58.7285H72.3671" stroke="#757575" stroke-width="1.9813" stroke-miterlimit="10" stroke-linecap="round" stroke-linejoin="round"/>
<path d="M36.6429 63.9468H72.3671" stroke="#757575" stroke-width="1.9813" stroke-miterlimit="10" stroke-linecap="round" stroke-linejoin="round"/>
</g>
<defs>
<linearGradient id="paint0_linear" x1="49.8328" y1="18.7755" x2="45.684" y2="72.779" gradientUnits="userSpaceOnUse">
<stop offset="0.00697" stop-color="#B4B4B5"/>
<stop offset="0.3655" stop-color="#B2B2B3"/>
<stop offset="0.569" stop-color="#AAA9AA"/>
<stop offset="0.7338" stop-color="#9C9C9D"/>
<stop offset="0.8768" stop-color="#898889"/>
<stop offset="1" stop-color="#717071"/>
</linearGradient>
<linearGradient id="paint1_linear" x1="41.8702" y1="19.7959" x2="45.7899" y2="73.8148" gradientUnits="userSpaceOnUse">
<stop offset="0.0117" stop-color="#EEEEEF"/>
<stop offset="0.3072" stop-color="#ECECED"/>
<stop offset="0.475" stop-color="#E4E3E4"/>
<stop offset="0.6108" stop-color="#D6D6D7"/>
<stop offset="0.7295" stop-color="#C2C2C3"/>
<stop offset="0.8369" stop-color="#A9A8A9"/>
<stop offset="0.9349" stop-color="#8A898A"/>
<stop offset="1" stop-color="#717071"/>
</linearGradient>
<linearGradient id="paint2_linear" x1="45.039" y1="16.2616" x2="45.039" y2="73.0916" gradientUnits="userSpaceOnUse">
<stop offset="0.005936" stop-color="#EEEEEF"/>
<stop offset="0.3475" stop-color="#ECECED"/>
<stop offset="0.5414" stop-color="#E3E3E4"/>
<stop offset="0.6982" stop-color="#D6D6D7"/>
<stop offset="0.8353" stop-color="#C2C2C3"/>
<stop offset="0.9583" stop-color="#A8A8A9"/>
<stop offset="1" stop-color="#9E9E9F"/>
</linearGradient>
</defs>
</svg>
