<svg width="96" height="96" viewBox="0 0 96 96" fill="none" xmlns="http://www.w3.org/2000/svg">
<path d="M54.6791 61.4105C54.5999 62.923 55.802 64.2043 57.3211 64.2043V64.2109H64.19C65.544 64.2109 66.6866 63.1805 66.8121 61.8332C67.1555 58.1439 68.1891 55.2039 69.913 53.0132C70.0131 52.886 70.1155 52.7614 70.2202 52.6393C70.2796 52.5667 70.3456 52.5007 70.4117 52.4346L70.9565 51.8981L76.8646 46.0808C82.2541 40.4667 84.9555 34.7668 84.9555 28.9744C84.9555 22.4687 82.9608 17.4094 78.9649 13.7834C74.9756 10.1574 69.4078 8.34766 62.2746 8.34766C56.141 8.34766 51.0758 9.78425 47.0697 12.662C46.6933 12.4511 46.3078 12.2536 45.913 12.0695C45.6529 11.9483 45.3888 11.8329 45.1206 11.7234C44.3613 11.4124 43.5819 11.1535 42.7826 10.9466C38.3308 9.79425 33.2605 10.2555 27.5778 12.3238C22.1533 14.2982 18.0532 17.1447 15.2717 20.8694C14.1287 22.4001 13.1939 24.0992 12.5567 25.8371C11.3269 29.1917 11.1487 32.7774 12.0231 36.5972C12.3762 38.1274 14.0169 38.9852 15.494 38.4476L22.7369 35.8114C23.91 35.3844 24.6629 34.1896 24.4476 32.9607C24.1033 30.9914 24.3731 29.1642 25.2422 27.4773C26.4113 25.2243 28.4264 23.5771 31.2938 22.5335C34.2915 21.4424 36.8675 21.4326 39.02 22.5188C39.3196 22.67 39.6095 22.841 39.8895 23.0318C39.6549 23.9307 39.4771 24.8658 39.3561 25.8371C39.1645 27.3958 40.4128 28.763 41.9848 28.763H43.9283C43.9377 28.7887 43.9471 28.8144 43.9565 28.8401C44.8194 31.211 44.955 33.6498 44.3593 36.165C43.9761 37.8156 42.7333 40.8124 40.6286 45.1489C38.524 49.4855 37.4005 53.1768 37.262 56.2144C37.1504 58.6307 37.592 61.4853 38.5889 64.7844C39.0317 66.2328 40.5995 67.0257 42.027 66.5061L42.0293 66.5123L48.484 64.163C49.7563 63.6999 50.4776 62.3409 50.1347 61.0319C49.141 57.2396 49.1604 53.9713 50.1928 51.2268C50.2238 51.1382 50.2633 51.0536 50.3028 50.9689L54.1933 42.7913C57.3377 35.6725 57.9266 29.3924 55.9455 23.9493C55.6581 23.1597 55.3477 22.4041 55.0142 21.6826C56.8685 20.0359 59.2866 19.2125 62.2746 19.2125C65.4647 19.2125 67.8887 20.0843 69.5399 21.8412C71.1911 23.5981 72.0167 26.1409 72.0167 29.4697C72.0167 31.9928 71.31 34.3309 69.89 36.4906C68.9653 37.9107 66.7725 40.3016 63.3116 43.6568C59.8507 47.012 57.5324 50.0965 56.3634 52.9035C55.4321 55.1359 54.8707 57.9694 54.6791 61.4105Z" fill="white"/>
<path d="M53.6675 87.1719C54.584 86.8383 55.4015 86.3533 56.1022 85.7554C57.479 86.9099 59.2541 87.605 61.1915 87.605C65.5687 87.605 69.1172 84.0565 69.1172 79.6793C69.1172 75.302 65.5687 71.7535 61.1915 71.7535C59.2288 71.7535 57.4328 72.4669 56.0485 73.6485C53.9508 71.8938 51.0009 71.2737 48.246 72.2764C44.1327 73.7735 42.0119 78.3216 43.509 82.4349C45.0061 86.5482 49.5543 88.669 53.6675 87.1719Z" fill="white"/>
<path fill-rule="evenodd" clip-rule="evenodd" d="M54.6791 61.4105C54.8707 57.9694 55.4321 55.136 56.3634 52.9036C57.5324 50.0965 59.8507 47.0121 63.3116 43.6569C66.7725 40.3017 68.9653 37.9107 69.89 36.4907C71.31 34.3309 72.0167 31.9929 72.0167 29.4698C72.0167 26.141 71.1911 23.5982 69.5399 21.8413C67.8887 20.0844 65.4648 19.2126 62.2746 19.2126C59.2866 19.2126 56.8685 20.036 55.0142 21.6827C55.3477 22.4042 55.6581 23.1598 55.9455 23.9494C57.9267 29.3925 57.3377 35.6726 54.1933 42.7914L50.3027 50.9691C50.2633 51.0537 50.2238 51.1383 50.1928 51.2269C49.1604 53.9713 49.1411 57.2397 50.1347 61.0319C50.4777 62.341 49.7563 63.7 48.484 64.1631L42.0293 66.5124L42.027 66.5062C40.5995 67.0258 39.0317 66.2328 38.5889 64.7845C37.592 61.4854 37.1504 58.6308 37.262 56.2145C37.4005 53.1769 38.524 49.4856 40.6286 45.149C42.7333 40.8124 43.9761 37.8157 44.3593 36.1651C44.955 33.6499 44.8194 31.2111 43.9565 28.8402L43.9283 28.7631H41.9848C40.4128 28.7631 39.1645 27.3959 39.3561 25.8372C39.4771 24.8659 39.6549 23.9308 39.8895 23.0319C39.6095 22.8411 39.3196 22.6701 39.02 22.5189C36.8675 21.4327 34.2915 21.4425 31.2938 22.5336C28.4264 23.5772 26.4113 25.2244 25.2422 27.4773C24.3731 29.1642 24.1033 30.9915 24.4476 32.9607C24.6629 34.1897 23.91 35.3845 22.7369 35.8114L15.494 38.4477C14.0169 38.9853 12.3762 38.1275 12.0231 36.5973C11.1487 32.7775 11.3269 29.1918 12.5567 25.8372C13.1939 24.0993 14.1287 22.4002 15.2717 20.8695C18.0532 17.1447 22.1533 14.2983 27.5778 12.3239C33.2605 10.2556 38.3308 9.79433 42.7826 10.9467C43.5819 11.1536 44.3613 11.4125 45.1206 11.7234C45.3888 11.833 45.6529 11.9484 45.913 12.0696C46.3078 12.2536 46.6933 12.4511 47.0697 12.6621C51.0758 9.78433 56.141 8.34774 62.2746 8.34774C69.4078 8.34774 74.9756 10.1575 78.9649 13.7835C82.9608 17.4095 84.9555 22.4688 84.9555 28.9745C84.9555 34.7669 82.2541 40.4668 76.8646 46.0808L70.4117 52.4347C70.3456 52.5007 70.2796 52.5668 70.2202 52.6394C70.1155 52.7615 70.0131 52.8861 69.913 53.0132C68.1891 55.2039 67.1555 58.1439 66.8121 61.8332C66.6866 63.1806 65.544 64.211 64.19 64.211H57.3211V64.2044C55.802 64.2044 54.5999 62.923 54.6791 61.4105ZM58.9944 42.0759C59.4486 41.604 59.9195 41.132 60.4063 40.6601C63.9097 37.2637 65.762 35.1809 66.3922 34.2131L66.4024 34.1976C67.3848 32.7034 67.8428 31.1596 67.8428 29.4698C67.8428 26.7946 67.1837 25.4289 66.4984 24.6998C65.8732 24.0346 64.7121 23.3865 62.2746 23.3865C61.4935 23.3865 60.8176 23.4608 60.2284 23.5944C62.0103 29.3616 61.4337 35.5925 58.9944 42.0759ZM65.2983 68.2945C69.9593 69.9761 73.2911 74.4386 73.2911 79.6794C73.2911 86.3618 67.8739 91.779 61.1915 91.779C59.3832 91.779 57.664 91.3803 56.1206 90.6672C55.7881 90.8238 55.4461 90.9664 55.0951 91.0941C48.8157 93.3797 41.8724 90.142 39.5868 83.8625C37.819 79.0053 39.3557 73.751 43.0486 70.5622C39.4675 71.6216 35.6907 69.581 34.5974 66.0048L34.5934 65.9918C33.5126 62.4152 32.952 59.0654 33.0925 56.022C33.268 52.1835 34.6507 47.9069 36.8736 43.3266C39.0041 38.9368 40.0323 36.3461 40.2935 35.2211L40.2977 35.2031C40.495 34.3701 40.5755 33.5676 40.5424 32.783C37.4109 32.105 35.0295 29.2699 35.167 25.8933C34.5064 25.9329 33.7038 26.0982 32.7213 26.4558C30.6316 27.2163 29.5446 28.2516 28.9499 29.3942C28.5182 30.2347 28.3654 31.1317 28.5588 32.2403M56.1022 85.7555C57.479 86.9099 59.2541 87.6051 61.1915 87.6051C65.5687 87.6051 69.1172 84.0566 69.1172 79.6794C69.1172 75.3021 65.5687 71.7536 61.1915 71.7536C59.2288 71.7536 57.4328 72.467 56.0485 73.6486C53.9508 71.8939 51.0009 71.2737 48.246 72.2764C44.1327 73.7735 42.0119 78.3217 43.509 82.435C45.0061 86.5482 49.5543 88.6691 53.6675 87.1719C54.584 86.8384 55.4015 86.3534 56.1022 85.7555ZM65.2983 68.2945C68.2846 67.803 70.6758 65.358 70.968 62.2203C71.2609 59.0738 72.1054 56.9767 73.1931 55.5945C73.2491 55.5234 73.306 55.4537 73.3639 55.3855L79.7931 49.055C79.821 49.0275 79.8485 48.9997 79.8756 48.9714C85.746 42.8564 89.1294 36.1746 89.1294 28.9745C89.1294 21.5548 86.8151 15.2708 81.7698 10.6925C76.7902 6.16774 70.099 4.17383 62.2746 4.17383C56.4493 4.17383 51.2242 5.34941 46.7803 7.89288C46.7544 7.88215 46.7284 7.87147 46.7024 7.86083C45.7675 7.47799 44.809 7.15973 43.8285 6.90593C38.3357 5.48413 32.3776 6.13516 26.1502 8.40173C20.1473 10.5866 15.3015 13.8538 11.9274 18.3721C10.5578 20.2062 9.42267 22.2598 8.63786 24.4005C7.10356 28.5858 6.91782 33.0003 7.95443 37.5287L7.95608 37.5358C8.89222 41.5924 13.1698 43.7354 16.9216 42.3698L24.1645 39.7336C27.0808 38.6722 29.1511 35.6251 28.5591 32.242" fill="white"/>
<path d="M53.6675 87.1719C57.7808 85.6748 59.9016 81.1266 58.4045 77.0134C56.9074 72.9001 52.3593 70.7793 48.246 72.2764C44.1327 73.7735 42.0119 78.3216 43.509 82.4349C45.0061 86.5482 49.5543 88.669 53.6675 87.1719Z" fill="url(#paint0_linear_2965_17037)"/>
<path d="M42.027 66.5061C40.5995 67.0257 39.0317 66.2328 38.5889 64.7844C37.592 61.4853 37.1504 58.6307 37.262 56.2144C37.4005 53.1768 38.524 49.4855 40.6286 45.1489C42.7333 40.8124 43.9761 37.8156 44.3593 36.165C44.955 33.6498 44.8194 31.211 43.9565 28.8401C42.818 25.7121 41.1725 23.605 39.02 22.5188C36.8675 21.4326 34.2915 21.4424 31.2938 22.5335C28.4264 23.5771 26.4113 25.2243 25.2422 27.4773C24.3731 29.1642 24.1033 30.9914 24.4476 32.9607C24.6629 34.1896 23.91 35.3844 22.7369 35.8114L15.494 38.4476C14.0169 38.9852 12.3762 38.1274 12.0231 36.5972C10.9151 31.7571 11.4973 27.2929 13.7673 23.1983C16.4733 18.3125 21.0734 14.6913 27.5778 12.3239C34.2808 9.88417 40.1318 9.68043 45.1206 11.7234C50.1157 13.764 53.7204 17.836 55.9455 23.9493C57.9266 29.3924 57.3377 35.6725 54.1933 42.7913L50.3028 50.9689C50.2633 51.0536 50.2238 51.1382 50.1928 51.2269C49.1604 53.9713 49.141 57.2396 50.1347 61.0319C50.4776 62.3409 49.7563 63.6999 48.484 64.163L42.0293 66.5123L42.027 66.5061Z" fill="url(#paint1_linear_2965_17037)"/>
<path d="M61.1915 87.6049C65.5687 87.6049 69.1172 84.0564 69.1172 79.6792C69.1172 75.3019 65.5687 71.7534 61.1915 71.7534C56.8142 71.7534 53.2657 75.3019 53.2657 79.6792C53.2657 84.0564 56.8142 87.6049 61.1915 87.6049Z" fill="url(#paint2_linear_2965_17037)"/>
<path d="M57.3211 64.2043C55.802 64.2043 54.5999 62.923 54.6791 61.4105C54.8707 57.9694 55.4321 55.1359 56.3634 52.9035C57.5324 50.0965 59.8507 47.012 63.3116 43.6568C66.7725 40.3016 68.9653 37.9107 69.89 36.4906C71.31 34.3309 72.0167 31.9928 72.0167 29.4697C72.0167 26.1409 71.1911 23.5981 69.5399 21.8412C67.8887 20.0844 65.4648 19.2125 62.2746 19.2125C59.2232 19.2125 56.7663 20.0711 54.8971 21.7884C53.5035 23.0763 52.6251 24.7011 52.275 26.6693C52.057 27.8978 50.9408 28.763 49.6925 28.763H41.9848C40.4128 28.763 39.1645 27.3958 39.3561 25.8371C39.9703 20.9099 42.0442 16.9141 45.5778 13.8428C49.7916 10.1772 55.3528 8.34766 62.2746 8.34766C69.4078 8.34766 74.9756 10.1574 78.9649 13.7834C82.9608 17.4094 84.9555 22.4687 84.9555 28.9744C84.9555 34.7668 82.2541 40.4667 76.8646 46.0808L70.4117 52.4346C70.3457 52.5006 70.2796 52.5667 70.2202 52.6393C68.3114 54.8651 67.1754 57.9297 66.8121 61.8332C66.6866 63.1805 65.544 64.2109 64.19 64.2109H57.3211V64.2043Z" fill="url(#paint3_linear_2965_17037)"/>
<defs>
<linearGradient id="paint0_linear_2965_17037" x1="27.3939" y1="12.1856" x2="54.2603" y2="86.0003" gradientUnits="userSpaceOnUse">
<stop stop-color="#FA7203"/>
<stop offset="0.503125" stop-color="#FF9661"/>
<stop offset="1" stop-color="#AF5333"/>
</linearGradient>
<linearGradient id="paint1_linear_2965_17037" x1="27.3939" y1="12.1856" x2="54.2603" y2="86.0003" gradientUnits="userSpaceOnUse">
<stop stop-color="#FA7203"/>
<stop offset="0.503125" stop-color="#FF9661"/>
<stop offset="1" stop-color="#AF5333"/>
</linearGradient>
<linearGradient id="paint2_linear_2965_17037" x1="61.1888" y1="8.15468" x2="61.1888" y2="86.7066" gradientUnits="userSpaceOnUse">
<stop offset="0.6787" stop-color="#025B37"/>
<stop offset="1" stop-color="#00DA93"/>
</linearGradient>
<linearGradient id="paint3_linear_2965_17037" x1="62.1491" y1="8.1548" x2="62.1491" y2="86.7068" gradientUnits="userSpaceOnUse">
<stop stop-color="#00DA93"/>
<stop offset="0.497917" stop-color="#00DA93"/>
<stop offset="1" stop-color="#185669"/>
</linearGradient>
</defs>
</svg>
