<svg width="96" height="96" viewBox="0 0 96 96" fill="none" xmlns="http://www.w3.org/2000/svg">
<path d="M76.2701 29.8418C75.5376 28.0139 76.5142 25.8957 78.1837 25.1566L76.1513 20.0623C74.429 20.676 72.2052 19.838 71.4727 18.0035C71.4331 17.9111 71.3078 17.7462 71.3144 17.7396L10.8364 41.878C10.843 41.878 10.9222 42.0561 10.9618 42.1551C11.7074 44.0292 10.7374 46.1738 8.86334 46.926C8.71157 46.9854 8.35523 47.1174 8.34863 47.0976L10.4009 52.2447C10.3943 52.2249 10.744 52.0731 10.8892 52.0137C12.7632 51.2681 14.9144 52.1655 15.6601 54.0396C16.4058 55.9136 15.4489 58.0516 13.5749 58.8039C13.4231 58.8633 13.08 58.9886 13.0734 58.9689L15.1256 64.1159C15.119 64.0961 15.4687 63.9443 15.6139 63.885C17.488 63.1393 19.6392 64.0367 20.3848 65.9108C21.1305 67.7848 20.1737 69.9229 18.2996 70.6751C18.1478 70.7345 17.8047 70.8599 17.7981 70.8401L19.8503 75.9871C19.8437 75.9674 20.1935 75.8156 20.3386 75.7562C22.2127 75.0105 24.3639 75.908 25.1162 77.782C25.1558 77.8744 25.2548 78.0526 25.2482 78.0592L85.7261 53.9208C85.7195 53.9208 85.6997 53.7162 85.6601 53.6238C84.9277 51.796 85.9703 49.6513 87.6398 48.9123L85.6074 43.818C83.8851 44.4317 81.7207 43.5673 80.9882 41.7394C80.2557 39.9115 81.2324 37.7933 82.9018 37.0542L80.8694 31.96C79.1669 32.5341 77.0025 31.6762 76.2701 29.8418Z" fill="white"/>
<path fill-rule="evenodd" clip-rule="evenodd" d="M89.8225 53.1191C89.8234 53.1237 89.8243 53.1284 89.8252 53.133C90.2029 55.0985 89.1323 57.0554 87.2735 57.7974L26.7955 81.9358C24.9555 82.6701 22.8528 82.0099 21.7629 80.3556C21.6517 80.1869 21.5542 80.0126 21.4702 79.8341C21.409 79.8598 21.3469 79.8842 21.2839 79.9072C19.163 80.6828 16.8098 79.6308 15.9734 77.5331L13.9462 72.4488C13.9077 72.3559 13.8717 72.2597 13.8385 72.16C13.377 70.7755 13.6812 69.316 14.5267 68.2473C13.098 68.039 11.8197 67.0942 11.2486 65.6618L9.22143 60.5775C9.183 60.4847 9.14701 60.3885 9.11377 60.2888C8.65226 58.9043 8.95649 57.4448 9.80193 56.3761C8.37327 56.1678 7.095 55.2229 6.52389 53.7906L4.49811 48.7098C4.45916 48.6159 4.42269 48.5185 4.38904 48.4176C3.67945 46.2888 4.78007 43.9829 6.87476 43.1927C6.81828 43.0221 6.77229 42.8462 6.73761 42.6658C6.35986 40.7003 7.43043 38.7434 9.28927 38.0014L69.7673 13.863C71.6072 13.1287 73.7099 13.7889 74.7999 15.4432C74.8308 15.4901 74.8606 15.5374 74.8894 15.5851C74.9194 15.6312 74.9609 15.696 75.005 15.7692C75.0309 15.812 75.0817 15.897 75.1427 16.0119C77.146 15.5107 79.2476 16.5591 80.0282 18.5157L82.0606 23.61C82.6448 25.0742 82.3422 26.6787 81.3993 27.8191C82.8577 28.0067 84.1668 28.9608 84.7463 30.4133L86.7787 35.5076C87.3564 36.9556 87.0669 38.5408 86.1486 39.6786C87.601 39.8696 88.9056 40.8209 89.4843 42.2714L91.5167 47.3656C92.2974 49.3224 91.4943 51.5298 89.6958 52.5451C89.7225 52.6401 89.7402 52.714 89.7505 52.7583C89.7855 52.908 89.8082 53.0353 89.8198 53.1032C89.8204 53.1066 89.8213 53.1122 89.8225 53.1191Z" fill="white"/>
<path d="M76.2701 29.8418C75.5376 28.0139 76.5142 25.8957 78.1837 25.1566L76.1513 20.0623C74.429 20.676 72.2052 19.838 71.4727 18.0035C71.4331 17.9111 71.3078 17.7462 71.3144 17.7396L10.8364 41.878C10.843 41.878 10.9222 42.0561 10.9618 42.1551C11.7074 44.0292 10.7374 46.1738 8.86334 46.926C8.71157 46.9854 8.35523 47.1174 8.34863 47.0976L10.4009 52.2447C10.3943 52.2249 10.744 52.0731 10.8892 52.0137C12.7632 51.2681 14.9144 52.1655 15.6601 54.0395C16.4058 55.9136 15.4489 58.0516 13.5749 58.8039C13.4231 58.8633 13.08 58.9886 13.0734 58.9689L15.1256 64.1159C15.119 64.0961 15.4687 63.9443 15.6139 63.885C17.488 63.1393 19.6392 64.0367 20.3848 65.9108C21.1305 67.7848 20.1737 69.9229 18.2996 70.6751C18.1478 70.7345 17.8047 70.8599 17.7981 70.8401L19.8503 75.9871C19.8437 75.9674 20.1935 75.8156 20.3386 75.7562C22.2127 75.0105 24.3639 75.908 25.1162 77.782C25.1558 77.8744 25.2548 78.0526 25.2482 78.0592L85.7261 53.9208C85.7195 53.9208 85.6997 53.7162 85.6601 53.6238C84.9277 51.796 85.9703 49.6513 87.6398 48.9123L85.6074 43.818C83.8851 44.4317 81.7207 43.5673 80.9882 41.7394C80.2557 39.9115 81.2324 37.7933 82.9018 37.0542L80.8694 31.96C79.1669 32.5341 77.0025 31.6762 76.2701 29.8418Z" fill="#00CDB4"/>
<path d="M69.2822 24.86L16.6523 45.8678L26.7404 71.1409L79.3702 50.1331L69.2822 24.86Z" fill="#09B9A3"/>
<path d="M25.7203 39.1174L23.6489 39.9442L36.0315 70.9657L38.1028 70.1388L25.7203 39.1174Z" fill="#00CDB4"/>
<path d="M60.0919 25.0238L58.0205 25.8506L70.403 56.8721L72.4744 56.0453L60.0919 25.0238Z" fill="#00CDB4"/>
<path d="M52.1841 56.6963C52.2544 56.6919 52.3221 56.6675 52.3796 56.6257C52.4371 56.584 52.4822 56.5265 52.5099 56.4598L53.0657 55.1588C55.855 48.6667 57.6967 44.3759 56.2061 40.9113C55.7825 39.8932 55.0627 39.0349 54.1466 38.4553C53.2305 37.8757 52.1633 37.6035 51.0931 37.6764C50.4682 37.7196 49.8559 37.8754 49.284 38.1365C48.5377 38.4822 47.8726 38.9892 47.3337 39.6234C46.7949 40.2576 46.3948 41.0042 46.1604 41.8127C46.1447 41.8709 46.1121 41.9226 46.0669 41.9609C46.0216 41.9991 45.966 42.0221 45.9076 42.0266C45.859 42.0303 45.8103 42.0206 45.7664 41.9987C44.8717 41.5559 43.882 41.3593 42.8937 41.428C42.2457 41.4691 41.6102 41.6277 41.0165 41.8966C40.3834 42.1767 39.8113 42.5843 39.3336 43.0955C38.8558 43.6067 38.4821 44.2114 38.2342 44.8742C37.9862 45.537 37.8691 46.2446 37.8895 46.9558C37.91 47.6669 38.0677 48.3673 38.3533 49.016C39.8416 52.4748 44.1619 53.9659 50.6978 56.2214L52.038 56.6805C52.0853 56.6955 52.1349 56.7008 52.1841 56.6963Z" fill="#185669"/>
<path d="M70.5093 20.1943C71.5585 21.4349 73.162 22.2135 74.8843 22.2399L75.762 24.4439C74.1716 25.9947 73.5646 28.4296 74.4224 30.5808C75.2472 32.6528 77.3259 34.0584 79.6157 34.098L80.4999 36.3086C78.9096 37.8593 78.3025 40.2943 79.1603 42.4455C79.9852 44.5175 82.0638 45.923 84.3536 45.9626L85.2378 48.1732C84.0434 49.3412 83.3836 51.0173 83.4759 52.6736L26.1192 75.5714C25.07 74.2781 23.4731 73.4994 21.731 73.4994C21.5 73.4994 21.2691 73.5126 21.0381 73.539L20.3386 71.7837C21.1239 71.203 21.7508 70.4178 22.1599 69.5005C22.7736 68.1082 22.8066 66.5641 22.2457 65.1651C21.3879 63.0205 19.329 61.6348 16.9997 61.6348C16.7687 61.6348 16.5377 61.648 16.3068 61.6744L15.6073 59.9191C16.3926 59.3384 17.0195 58.5531 17.4286 57.6359C18.0423 56.2435 18.0753 54.6994 17.5144 53.3005C16.6565 51.1559 14.5977 49.7701 12.2683 49.7701C12.0374 49.7701 11.8064 49.7833 11.5754 49.8097L10.8628 48.061C11.6546 47.4803 12.2881 46.6951 12.7038 45.7647C13.0866 44.9002 13.2449 43.983 13.179 43.0723L70.5093 20.1943ZM71.3144 17.7396L10.8364 41.878C10.843 41.878 10.9222 42.0627 10.9618 42.1551C11.7074 44.0292 10.7374 46.1738 8.86334 46.926C8.72476 46.9788 8.40142 47.0976 8.35523 47.0976H8.34863L10.4009 52.2447C10.3943 52.2249 10.744 52.0731 10.8892 52.0137C11.3379 51.8355 11.7998 51.7498 12.2551 51.7498C13.7069 51.7498 15.0926 52.6142 15.6667 54.0395C16.4124 55.9136 15.4555 58.0516 13.5815 58.8039C13.4429 58.8567 13.1394 58.9689 13.0866 58.9689H13.08L15.1322 64.1159C15.1256 64.0961 15.4753 63.9443 15.6205 63.885C16.0692 63.7068 16.5311 63.621 16.9865 63.621C18.4382 63.621 19.8239 64.4854 20.398 65.9108C21.1437 67.7848 20.1869 69.9229 18.3128 70.6751C18.1742 70.7279 17.8707 70.8401 17.8179 70.8401H17.8113L19.8635 75.9871C19.8569 75.9674 20.2067 75.8156 20.3518 75.7562C20.8006 75.578 21.2625 75.4922 21.7178 75.4922C23.1761 75.4922 24.5619 76.3567 25.1294 77.782C25.169 77.8744 25.268 78.0526 25.2614 78.0592L85.7393 53.9208C85.7327 53.9208 85.7129 53.7162 85.6733 53.6238C84.9409 51.796 85.9835 49.6513 87.653 48.9123L85.6206 43.818C85.251 43.95 84.8551 44.016 84.4658 44.016C83.0338 44.016 81.5755 43.1779 81.008 41.7394C80.2755 39.9115 81.2522 37.7933 82.9217 37.0542L80.8892 31.96C80.5197 32.0919 80.1238 32.1579 79.7344 32.1579C78.3025 32.1579 76.8442 31.3199 76.2767 29.8813C75.5442 28.0535 76.5208 25.9353 78.1903 25.1962L76.1579 20.1019C75.7818 20.2339 75.3792 20.2999 74.9767 20.2999C73.5316 20.2999 72.0468 19.475 71.4793 18.0431C71.4331 17.9111 71.3012 17.7462 71.3144 17.7396Z" fill="#06C2AC"/>
</svg>
