<svg width="96" height="96" viewBox="0 0 96 96" fill="none" xmlns="http://www.w3.org/2000/svg">
<path d="M76.2703 29.8419C75.5378 28.0141 76.5144 25.8959 78.1839 25.1568L76.1515 20.0625C74.4292 20.6762 72.2054 19.8382 71.4729 18.0037C71.4334 17.9113 71.308 17.7463 71.3146 17.7397L10.8366 41.8781C10.8432 41.8781 10.9224 42.0563 10.962 42.1553C11.7076 44.0294 10.7376 46.174 8.86355 46.9262C8.71178 46.9856 8.35545 47.1176 8.34885 47.0978L10.4011 52.2449C10.3945 52.2251 10.7442 52.0733 10.8894 52.0139C12.7634 51.2682 14.9146 52.1657 15.6603 54.0397C16.406 55.9138 15.4492 58.0518 13.5751 58.8041C13.4233 58.8635 13.0802 58.9888 13.0736 58.969L15.1258 64.1161C15.1192 64.0963 15.4689 63.9445 15.6141 63.8851C17.4882 63.1395 19.6394 64.0369 20.3851 65.911C21.1307 67.785 20.1739 69.923 18.2998 70.6753C18.1481 70.7347 17.8049 70.8601 17.7983 70.8403L19.8506 75.9873C19.844 75.9675 20.1937 75.8158 20.3389 75.7564C22.2129 75.0107 24.3641 75.9081 25.1164 77.7822C25.156 77.8746 25.255 78.0528 25.2484 78.0594L85.7264 53.921C85.7198 53.921 85.7 53.7164 85.6604 53.624C84.9279 51.7961 85.9705 49.6515 87.64 48.9125L85.6076 43.8182C83.8853 44.4319 81.7209 43.5674 80.9884 41.7396C80.2559 39.9117 81.2326 37.7935 82.9021 37.0544L80.8696 31.9602C79.1671 32.5342 77.0027 31.6764 76.2703 29.8419V29.8419Z" fill="white"/>
<path fill-rule="evenodd" clip-rule="evenodd" d="M89.8226 53.1193C89.8235 53.1239 89.8244 53.1286 89.8253 53.1332C90.203 55.0987 89.1324 57.0556 87.2736 57.7975L26.7956 81.9359C24.9556 82.6703 22.8529 82.0101 21.763 80.3558C21.6518 80.1871 21.5543 80.0128 21.4703 79.8343C21.4091 79.86 21.347 79.8844 21.284 79.9074C19.1631 80.683 16.8099 79.631 15.9735 77.5332L13.9463 72.449C13.9078 72.3561 13.8718 72.2599 13.8386 72.1602C13.3771 70.7757 13.6813 69.3162 14.5268 68.2475C13.0981 68.0392 11.8198 67.0944 11.2487 65.662L9.22152 60.5777C9.18309 60.4849 9.1471 60.3887 9.11387 60.289C8.65235 58.9044 8.95659 57.445 9.80202 56.3763C8.37336 56.1679 7.09509 55.2231 6.52398 53.7908L4.4982 48.71C4.45925 48.6161 4.42279 48.5187 4.38913 48.4177C3.67954 46.289 4.78016 43.983 6.87485 43.1928C6.81837 43.0223 6.77238 42.8464 6.7377 42.666C6.35995 40.7005 7.43052 38.7435 9.28936 38.0016L69.7673 13.8632C71.6073 13.1288 73.71 13.7891 74.8 15.4434C74.8309 15.4903 74.8607 15.5376 74.8895 15.5853C74.9195 15.6313 74.961 15.6962 75.0051 15.7694C75.0309 15.8122 75.0818 15.8971 75.1428 16.0121C77.1461 15.5109 79.2477 16.5593 80.0283 18.5159L82.0607 23.6101C82.6449 25.0744 82.3423 26.6789 81.3994 27.8193C82.8578 28.0069 84.1669 28.961 84.7464 30.4135L86.7788 35.5078C87.3565 36.9558 87.067 38.5409 86.1487 39.6788C87.6011 39.8698 88.9057 40.8211 89.4844 42.2715L91.5168 47.3658C92.2975 49.3226 91.4944 51.53 89.6959 52.5453C89.7226 52.6403 89.7402 52.7142 89.7506 52.7585C89.7856 52.9081 89.8083 53.0354 89.8199 53.1034C89.8205 53.1068 89.8214 53.1124 89.8226 53.1193Z" fill="white"/>
<path d="M76.2703 29.8419C75.5378 28.0141 76.5144 25.8959 78.1839 25.1568L76.1515 20.0625C74.4292 20.6762 72.2054 19.8382 71.4729 18.0037C71.4334 17.9113 71.308 17.7463 71.3146 17.7397L10.8366 41.8781C10.8432 41.8781 10.9224 42.0563 10.962 42.1553C11.7076 44.0294 10.7376 46.174 8.86355 46.9262C8.71178 46.9856 8.35545 47.1176 8.34885 47.0978L10.4011 52.2449C10.3945 52.2251 10.7442 52.0733 10.8894 52.0139C12.7634 51.2682 14.9146 52.1657 15.6603 54.0397C16.406 55.9138 15.4492 58.0518 13.5751 58.8041C13.4233 58.8635 13.0802 58.9888 13.0736 58.969L15.1258 64.1161C15.1192 64.0963 15.4689 63.9445 15.6141 63.8851C17.4882 63.1395 19.6394 64.0369 20.3851 65.911C21.1307 67.785 20.1739 69.923 18.2998 70.6753C18.1481 70.7347 17.8049 70.8601 17.7983 70.8403L19.8506 75.9873C19.844 75.9675 20.1937 75.8158 20.3389 75.7564C22.2129 75.0107 24.3641 75.9081 25.1164 77.7822C25.156 77.8746 25.255 78.0528 25.2484 78.0594L85.7263 53.921C85.7197 53.921 85.7 53.7164 85.6604 53.624C84.9279 51.7961 85.9705 49.6515 87.64 48.9125L85.6076 43.8182C83.8853 44.4319 81.7209 43.5674 80.9884 41.7396C80.2559 39.9117 81.2326 37.7935 82.9021 37.0544L80.8696 31.9602C79.1671 32.5342 77.0027 31.6764 76.2703 29.8419V29.8419Z" fill="#00DA93"/>
<path d="M69.2822 24.8599L16.6523 45.8677L26.7404 71.1408L79.3702 50.1331L69.2822 24.8599Z" fill="#09B9A3"/>
<path d="M25.7203 39.1175L23.6489 39.9443L36.0315 70.9658L38.1028 70.139L25.7203 39.1175Z" fill="#00CDB4"/>
<path d="M60.0919 25.0238L58.0206 25.8506L70.4031 56.8721L72.4745 56.0452L60.0919 25.0238Z" fill="#00CDB4"/>
<path d="M52.1842 56.6961C52.2545 56.6917 52.3222 56.6673 52.3797 56.6255C52.4372 56.5838 52.4823 56.5264 52.51 56.4597L53.0658 55.1586C55.8551 48.6665 57.6968 44.3757 56.2062 40.9111C55.7826 39.8931 55.0628 39.0347 54.1467 38.4551C53.2305 37.8755 52.1634 37.6033 51.0931 37.6762C50.4683 37.7194 49.856 37.8752 49.2841 38.1364C48.5378 38.482 47.8727 38.989 47.3338 39.6232C46.795 40.2574 46.3948 41.004 46.1605 41.8126C46.1448 41.8707 46.1122 41.9225 46.0669 41.9607C46.0217 41.999 45.9661 42.0219 45.9077 42.0264C45.8591 42.0301 45.8104 42.0205 45.7665 41.9985C44.8718 41.5557 43.8821 41.3591 42.8938 41.4278C42.2458 41.4689 41.6103 41.6275 41.0166 41.8964C40.3835 42.1765 39.8114 42.5841 39.3337 43.0953C38.8559 43.6066 38.4822 44.2112 38.2343 44.874C37.9863 45.5368 37.8692 46.2445 37.8896 46.9556C37.9101 47.6667 38.0678 48.3671 38.3534 49.0159C39.8417 52.4747 44.1619 53.9657 50.6979 56.2212L52.0381 56.6803C52.0854 56.6953 52.135 56.7007 52.1842 56.6961Z" fill="#28241C"/>
<path d="M70.5095 20.1945C71.5587 21.4351 73.1622 22.2137 74.8845 22.2401L75.7622 24.4441C74.1718 25.9948 73.5648 28.4298 74.4226 30.581C75.2474 32.653 77.3261 34.0586 79.6159 34.0982L80.5001 36.3088C78.9098 37.8595 78.3027 40.2944 79.1605 42.4456C79.9854 44.5177 82.064 45.9232 84.3538 45.9628L85.238 48.1734C84.0436 49.3414 83.3838 51.0175 83.4761 52.6738L26.1194 75.5716C25.0702 74.2782 23.4733 73.4996 21.7312 73.4996C21.5002 73.4996 21.2693 73.5128 21.0383 73.5392L20.3389 71.7839C21.1241 71.2032 21.751 70.4179 22.1601 69.5007C22.7738 68.1084 22.8068 66.5643 22.2459 65.1653C21.3881 63.0207 19.3292 61.6349 16.9999 61.6349C16.7689 61.6349 16.538 61.6481 16.307 61.6745L15.6075 59.9193C16.3928 59.3386 17.0197 58.5533 17.4288 57.6361C18.0425 56.2437 18.0755 54.6996 17.5146 53.3007C16.6567 51.1561 14.5979 49.7703 12.2685 49.7703C12.0376 49.7703 11.8066 49.7835 11.5757 49.8099L10.863 48.0612C11.6548 47.4805 12.2883 46.6953 12.7041 45.7648C13.0868 44.9004 13.2452 43.9832 13.1792 43.0725L70.5095 20.1945V20.1945ZM71.3146 17.7397L10.8366 41.8781C10.8432 41.8781 10.9224 42.0629 10.962 42.1553C11.7076 44.0294 10.7376 46.174 8.86355 46.9262C8.72498 46.979 8.40164 47.0978 8.35545 47.0978H8.34885L10.4011 52.2449C10.3945 52.2251 10.7442 52.0733 10.8894 52.0139C11.3381 51.8357 11.8 51.7499 12.2553 51.7499C13.7071 51.7499 15.0928 52.6144 15.6669 54.0397C16.4126 55.9138 15.4558 58.0518 13.5817 58.8041C13.4431 58.8569 13.1396 58.969 13.0868 58.969H13.0802L15.1324 64.1161C15.1258 64.0963 15.4755 63.9445 15.6207 63.8851C16.0694 63.707 16.5314 63.6212 16.9867 63.6212C18.4384 63.6212 19.8242 64.4856 20.3982 65.911C21.1439 67.785 20.1871 69.923 18.313 70.6753C18.1745 70.7281 17.8709 70.8403 17.8181 70.8403H17.8115L19.8637 75.9873C19.8571 75.9675 20.2069 75.8158 20.3521 75.7564C20.8008 75.5782 21.2627 75.4924 21.718 75.4924C23.1763 75.4924 24.5621 76.3569 25.1296 77.7822C25.1692 77.8746 25.2682 78.0528 25.2616 78.0594L85.7395 53.921C85.7329 53.921 85.7131 53.7164 85.6735 53.624C84.9411 51.7961 85.9837 49.6515 87.6532 48.9125L85.6208 43.8182C85.2512 43.9502 84.8553 44.0162 84.466 44.0162C83.034 44.0162 81.5757 43.1781 81.0082 41.7396C80.2757 39.9117 81.2524 37.7935 82.9219 37.0544L80.8894 31.9602C80.5199 32.0921 80.124 32.1581 79.7346 32.1581C78.3027 32.1581 76.8444 31.3201 76.2769 29.8815C75.5444 28.0537 76.521 25.9355 78.1905 25.1964L76.1581 20.1021C75.782 20.2341 75.3794 20.3001 74.9769 20.3001C73.5318 20.3001 72.047 19.4752 71.4795 18.0433C71.4333 17.9113 71.3014 17.7463 71.3146 17.7397V17.7397Z" fill="#06C2AC"/>
<path d="M73.9144 30.3549C73.243 28.6794 74.1382 26.7377 75.6686 26.0602L73.8055 21.3904C72.2268 21.953 70.1883 21.1848 69.5169 19.5032C69.4806 19.4185 69.3656 19.2673 69.3717 19.2612L13.9335 41.3881C13.9396 41.3881 14.0122 41.5514 14.0485 41.6422C14.732 43.36 13.8428 45.3259 12.1249 46.0155C11.9858 46.0699 11.6592 46.1909 11.6531 46.1728L13.5343 50.8909C13.5283 50.8728 13.8489 50.7336 13.9819 50.6792C15.6998 49.9957 17.6718 50.8183 18.3553 52.5362C19.0388 54.2541 18.1617 56.214 16.4438 56.9035C16.3047 56.958 15.9902 57.0729 15.9841 57.0547L17.8653 61.7729C17.8593 61.7547 18.1799 61.6156 18.3129 61.5612C20.0308 60.8777 22.0028 61.7003 22.6863 63.4182C23.3698 65.1361 22.4927 67.0959 20.7748 67.7855C20.6357 67.8399 20.3212 67.9549 20.3151 67.9367L22.1963 72.6549C22.1903 72.6367 22.5109 72.4976 22.644 72.4431C24.3618 71.7596 26.3338 72.5823 27.0234 74.3002C27.0597 74.3848 27.1504 74.5482 27.1443 74.5542L82.5825 52.4273C82.5764 52.4273 82.5583 52.2398 82.522 52.1551C81.8506 50.4796 82.8063 48.5137 84.3367 47.8362L82.4736 43.1665C80.8948 43.729 78.9108 42.9366 78.2394 41.2611C77.568 39.5855 78.4632 37.6438 79.9936 36.9664L78.1305 32.2966C76.5699 32.8229 74.5858 32.0365 73.9144 30.3549V30.3549Z" fill="white"/>
<path fill-rule="evenodd" clip-rule="evenodd" d="M86.3373 51.6922C86.3381 51.6965 86.339 51.7008 86.3398 51.705C86.6861 53.5067 85.7047 55.3006 84.0008 55.9807L28.5626 78.1075C26.876 78.7807 24.9485 78.1755 23.9494 76.659C23.8475 76.5044 23.7581 76.3446 23.6811 76.181C23.625 76.2046 23.5681 76.2269 23.5104 76.248C21.5661 76.959 19.409 75.9946 18.6423 74.0717L16.7841 69.4111C16.7488 69.326 16.7158 69.2378 16.6854 69.1465C16.2623 67.8773 16.5412 66.5394 17.3162 65.5598C16.0066 65.3688 14.8348 64.5027 14.3113 63.1898L12.453 58.5291C12.4178 58.4441 12.3848 58.3559 12.3544 58.2645C11.9313 56.9953 12.2102 55.6575 12.9852 54.6779C11.6756 54.4869 10.5038 53.6208 9.9803 52.3078L8.12333 47.6504C8.08763 47.5643 8.05421 47.4751 8.02335 47.3825C7.3729 45.4311 8.3818 43.3174 10.3019 42.593C10.2502 42.4367 10.208 42.2755 10.1762 42.11C9.82994 40.3084 10.8113 38.5145 12.5152 37.8344L67.9534 15.7076C69.64 15.0344 71.5675 15.6396 72.5666 17.156C72.595 17.199 72.6223 17.2424 72.6487 17.2861C72.6762 17.3283 72.7142 17.3877 72.7547 17.4548C72.7783 17.4941 72.825 17.572 72.8808 17.6773C74.7172 17.2179 76.6437 18.179 77.3592 19.9725L79.2223 24.6422C79.7578 25.9844 79.4804 27.4552 78.6161 28.5006C79.953 28.6725 81.153 29.5472 81.6842 30.8786L83.5472 35.5484C84.0768 36.8757 83.8114 38.3288 82.9696 39.3718C84.3009 39.5469 85.4969 40.4189 86.0273 41.7485L87.8904 46.4182C88.606 48.212 87.8698 50.2354 86.2212 51.1661C86.2457 51.2532 86.2619 51.3209 86.2714 51.3616C86.3035 51.4987 86.3242 51.6154 86.3349 51.6777C86.3354 51.6808 86.3363 51.6859 86.3373 51.6922Z" fill="white"/>
<path d="M73.9144 30.3549C73.243 28.6794 74.1382 26.7377 75.6686 26.0602L73.8055 21.3904C72.2268 21.953 70.1883 21.1848 69.5169 19.5032C69.4806 19.4185 69.3656 19.2673 69.3717 19.2612L13.9335 41.3881C13.9396 41.3881 14.0122 41.5514 14.0485 41.6422C14.732 43.36 13.8428 45.3259 12.1249 46.0155C11.9858 46.0699 11.6592 46.1909 11.6531 46.1728L13.5343 50.8909C13.5283 50.8728 13.8489 50.7336 13.9819 50.6792C15.6998 49.9957 17.6718 50.8183 18.3553 52.5362C19.0388 54.2541 18.1617 56.214 16.4438 56.9035C16.3047 56.958 15.9902 57.0729 15.9841 57.0547L17.8653 61.7729C17.8593 61.7547 18.1799 61.6156 18.3129 61.5612C20.0308 60.8776 22.0028 61.7003 22.6863 63.4182C23.3698 65.1361 22.4927 67.0959 20.7748 67.7855C20.6357 67.8399 20.3212 67.9549 20.3151 67.9367L22.1963 72.6549C22.1903 72.6367 22.5109 72.4976 22.644 72.4431C24.3618 71.7596 26.3338 72.5823 27.0234 74.3002C27.0597 74.3848 27.1504 74.5482 27.1443 74.5542L82.5825 52.4273C82.5764 52.4273 82.5583 52.2398 82.522 52.1551C81.8506 50.4796 82.8063 48.5137 84.3367 47.8362L82.4736 43.1665C80.8948 43.729 78.9108 42.9366 78.2394 41.2611C77.568 39.5855 78.4632 37.6438 79.9936 36.9664L78.1305 32.2966C76.5699 32.8229 74.5858 32.0365 73.9144 30.3549V30.3549Z" fill="#8CE0BE"/>
<path d="M67.5087 25.7883L19.2646 45.0454L28.512 68.2124L76.756 48.9553L67.5087 25.7883Z" fill="#00DA93"/>
<path d="M27.577 38.8578L25.6782 39.6157L37.0289 68.0521L38.9276 67.2942L27.577 38.8578Z" fill="#8CE0BE"/>
<path d="M59.0843 25.9384L57.1855 26.6963L68.5362 55.1326L70.4349 54.3747L59.0843 25.9384Z" fill="#8CE0BE"/>
<path d="M51.8355 54.9714C51.9 54.9674 51.962 54.945 52.0147 54.9067C52.0675 54.8685 52.1088 54.8158 52.1341 54.7547L52.6436 53.5621C55.2005 47.6109 56.8887 43.6777 55.5223 40.5019C55.134 39.5686 54.4742 38.7819 53.6344 38.2505C52.7947 37.7192 51.8165 37.4697 50.8354 37.5366C50.2626 37.5762 49.7014 37.7189 49.1771 37.9583C48.493 38.2751 47.8833 38.7399 47.3893 39.3213C46.8954 39.9026 46.5286 40.587 46.3138 41.3282C46.2994 41.3815 46.2695 41.4289 46.228 41.464C46.1866 41.499 46.1356 41.5201 46.082 41.5242C46.0375 41.5276 45.9928 41.5188 45.9526 41.4986C45.1325 41.0927 44.2252 40.9125 43.3193 40.9755C42.7253 41.0132 42.1428 41.1586 41.5986 41.4051C41.0182 41.6618 40.4938 42.0354 40.0558 42.504C39.6179 42.9727 39.2753 43.527 39.0481 44.1345C38.8208 44.7421 38.7134 45.3908 38.7321 46.0426C38.7509 46.6945 38.8954 47.3365 39.1573 47.9312C40.5216 51.1018 44.4818 52.4686 50.4731 54.5361L51.7016 54.957C51.7449 54.9707 51.7904 54.9756 51.8355 54.9714Z" fill="#025B37"/>
<path d="M68.6337 21.5114C69.5955 22.6486 71.0654 23.3624 72.6441 23.3866L73.4487 25.4069C71.9909 26.8284 71.4344 29.0604 72.2207 31.0324C72.9768 32.9317 74.8822 34.2202 76.9812 34.2564L77.7918 36.2828C76.334 37.7043 75.7775 39.9364 76.5638 41.9083C77.3199 43.8077 79.2253 45.0961 81.3243 45.1324L82.1349 47.1587C81.04 48.2294 80.4351 49.7658 80.5198 51.2841L27.9428 72.2738C26.981 71.0882 25.5172 70.3744 23.9203 70.3744C23.7086 70.3744 23.4969 70.3865 23.2851 70.4107L22.644 68.8017C23.3638 68.2694 23.9384 67.5496 24.3135 66.7088C24.876 65.4325 24.9062 64.017 24.3921 62.7347C23.6057 60.7688 21.7185 59.4985 19.5832 59.4985C19.3715 59.4985 19.1598 59.5106 18.9481 59.5348L18.3069 57.9258C19.0267 57.3935 19.6014 56.6737 19.9764 55.8329C20.5389 54.5566 20.5692 53.1411 20.055 51.8587C19.2687 49.8929 17.3814 48.6226 15.2462 48.6226C15.0344 48.6226 14.8227 48.6347 14.611 48.6589L13.9577 47.0559C14.6836 46.5236 15.2643 45.8038 15.6454 44.9509C15.9962 44.1585 16.1414 43.3177 16.0809 42.4829L68.6337 21.5114V21.5114ZM69.3717 19.2612L13.9335 41.3881C13.9396 41.3881 14.0122 41.5575 14.0485 41.6422C14.732 43.36 13.8428 45.3259 12.1249 46.0155C11.9979 46.0639 11.7015 46.1728 11.6592 46.1728H11.6531L13.5343 50.8909C13.5283 50.8728 13.8489 50.7336 13.9819 50.6792C14.3933 50.5159 14.8167 50.4373 15.2341 50.4373C16.5648 50.4373 17.8351 51.2297 18.3613 52.5362C19.0449 54.2541 18.1678 56.214 16.4499 56.9035C16.3229 56.9519 16.0446 57.0547 15.9962 57.0547H15.9902L17.8714 61.7729C17.8653 61.7547 18.1859 61.6156 18.319 61.5612C18.7303 61.3979 19.1537 61.3192 19.5711 61.3192C20.9019 61.3192 22.1721 62.1116 22.6984 63.4182C23.3819 65.1361 22.5048 67.0959 20.7869 67.7855C20.6599 67.8339 20.3817 67.9367 20.3333 67.9367H20.3272L22.2084 72.6549C22.2024 72.6367 22.523 72.4976 22.6561 72.4431C23.0674 72.2798 23.4908 72.2012 23.9082 72.2012C25.245 72.2012 26.5152 72.9936 27.0355 74.3002C27.0717 74.3848 27.1625 74.5482 27.1564 74.5542L82.5946 52.4273C82.5885 52.4273 82.5704 52.2398 82.5341 52.1551C81.8627 50.4796 82.8184 48.5137 84.3488 47.8362L82.4857 43.1665C82.147 43.2875 81.784 43.3479 81.4271 43.3479C80.1145 43.3479 78.7777 42.5797 78.2575 41.2611C77.5861 39.5855 78.4813 37.6438 80.0117 36.9664L78.1486 32.2966C77.8099 32.4176 77.447 32.4781 77.0901 32.4781C75.7775 32.4781 74.4407 31.7099 73.9205 30.3912C73.249 28.7157 74.1443 26.774 75.6746 26.0965L73.8116 21.4267C73.4668 21.5477 73.0978 21.6082 72.7288 21.6082C71.4041 21.6082 70.0431 20.8521 69.5229 19.5395C69.4806 19.4185 69.3596 19.2673 69.3717 19.2612V19.2612Z" fill="#00DA93"/>
</svg>
