<svg width="92" height="92" viewBox="0 0 92 92" fill="none" xmlns="http://www.w3.org/2000/svg">
<mask id="mask0_1412_3892" style="mask-type:alpha" maskUnits="userSpaceOnUse" x="0" y="0" width="92" height="92">
<rect width="92" height="92" fill="#C4C4C4"/>
</mask>
<g mask="url(#mask0_1412_3892)">
<path fill-rule="evenodd" clip-rule="evenodd" d="M76.4 30.8V27C76.4 24.9013 74.6988 23.2 72.6 23.2H65.3101C61.3656 14.2488 52.4151 8 42.0049 8C31.5951 8 22.6445 14.2488 18.7 23.2H11.8C9.70123 23.2 8 24.9013 8 27V80.2C8 82.2987 9.70123 84 11.8 84H76.4C78.4988 84 80.2 82.2987 80.2 80.2V68.8H81.3794C82.8266 68.8 84 67.6267 84 66.1793V49.8C84 47.7013 82.2988 46 80.2 46V34.6C80.2 32.5013 78.4988 30.8 76.4 30.8Z" fill="white"/>
<path fill-rule="evenodd" clip-rule="evenodd" d="M80.4 27V27.9023C82.6762 29.2646 84.2 31.7544 84.2 34.6V43.1023C86.4762 44.4646 88 46.9544 88 49.8V66.1793C88 68.827 86.4458 71.1117 84.2 72.1708V80.2C84.2 84.5078 80.708 88 76.4 88H11.8C7.49203 88 4 84.5078 4 80.2V27C4 22.6922 7.49203 19.2 11.8 19.2H16.2239C21.2427 10.1417 30.9029 4 42.0049 4C53.1072 4 62.7674 10.1417 67.7862 19.2H72.6C76.908 19.2 80.4 22.6922 80.4 27ZM65.3101 23.2C61.3656 14.2488 52.4151 8 42.0049 8C31.5951 8 22.6445 14.2488 18.7 23.2H11.8C9.70123 23.2 8 24.9013 8 27V80.2C8 82.2987 9.70123 84 11.8 84H76.4C78.4988 84 80.2 82.2987 80.2 80.2V68.8H81.3794C82.8266 68.8 84 67.6267 84 66.1793V49.8C84 47.7013 82.2988 46 80.2 46V34.6C80.2 32.5013 78.4988 30.8 76.4 30.8V27C76.4 24.9013 74.6988 23.2 72.6 23.2H65.3101Z" fill="white"/>
<rect x="8" y="23.2002" width="68.4" height="53.2" rx="4" fill="#846C4F"/>
<path d="M42.0054 61.2002C56.0638 61.2002 67.4604 49.8035 67.4604 35.7451C67.4604 21.6867 56.0638 10.29 42.0054 10.29C27.9469 10.29 16.5503 21.6867 16.5503 35.7451C16.5503 49.8035 27.9469 61.2002 42.0054 61.2002Z" fill="#D68F30"/>
<path d="M18.2808 42.3574V44.958C18.547 45.6458 18.8444 46.3248 19.1683 46.9816V42.3574H18.2808Z" fill="#BC6F00"/>
<path d="M21.1831 47.252V50.3761C21.5381 50.8776 21.9065 51.3702 22.2925 51.845V47.252H21.1831Z" fill="#BC6F00"/>
<path d="M25.0259 51.335V54.7032C25.4563 55.0893 25.9001 55.4577 26.3572 55.8127V51.335H25.0259Z" fill="#BC6F00"/>
<path d="M29.7568 54.4375V58.0587C30.1917 58.2984 30.6355 58.5247 31.0882 58.7421V54.4375H29.7568Z" fill="#BC6F00"/>
<path d="M35.1216 56.4121V60.2463C35.5609 60.3706 36.0047 60.4815 36.4529 60.5836V56.4121H35.1216Z" fill="#BC6F00"/>
<path d="M41.4009 57.0957V61.1829C41.6006 61.1873 41.8003 61.1962 42.0044 61.1962C42.2485 61.1962 42.4926 61.1829 42.7322 61.1785V57.0957H41.4009Z" fill="#BC6F00"/>
<path d="M47.6812 56.3809V60.5524C48.1294 60.4503 48.5731 60.3349 49.0125 60.2107V56.3809H47.6812Z" fill="#BC6F00"/>
<path d="M53.0332 54.3799V58.689C53.4859 58.4715 53.9296 58.2363 54.3645 57.9922V54.3799H53.0332Z" fill="#BC6F00"/>
<path d="M57.7505 51.251V55.7331C58.2076 55.3737 58.6514 55.0053 59.0818 54.6148V51.251H57.7505Z" fill="#BC6F00"/>
<path d="M62.9019 47.1543H61.7925V51.7474C62.1786 51.2681 62.5513 50.7755 62.9019 50.2696V47.1543Z" fill="#BC6F00"/>
<path d="M65.787 42.2422H64.8994V46.8752C65.2234 46.2051 65.5207 45.5173 65.787 44.8205V42.2422Z" fill="#BC6F00"/>
<path d="M42.0054 58.9101C56.0638 58.9101 67.4604 47.5135 67.4604 33.4551C67.4604 19.3966 56.0638 8 42.0054 8C27.9469 8 16.5503 19.3966 16.5503 33.4551C16.5503 47.5135 27.9469 58.9101 42.0054 58.9101Z" fill="#FFF176"/>
<path d="M42.0057 56.6423C54.8117 56.6423 65.1931 46.2609 65.1931 33.4549C65.1931 20.6489 54.8117 10.2676 42.0057 10.2676C29.1997 10.2676 18.8184 20.6489 18.8184 33.4549C18.8184 46.2609 29.1997 56.6423 42.0057 56.6423Z" fill="#F2BC1A"/>
<path d="M18.7736 34.3429C18.6094 31.2897 19.1375 28.1922 20.2026 25.2899C21.312 22.3964 23.0117 19.7205 25.1551 17.4483C29.4598 12.8952 35.7081 10.2547 42.0053 10.2236C48.3025 10.2591 54.5554 12.8952 58.8511 17.4528C60.999 19.7205 62.6942 22.4009 63.8037 25.2899C64.8732 28.1966 65.4013 31.2897 65.2326 34.3429H65.1439C65.135 31.303 64.5315 28.272 63.3688 25.4674C62.2105 22.6627 60.4931 20.0888 58.3585 17.9365C56.2195 15.7842 53.6589 14.0534 50.8587 12.8863C48.0629 11.7147 45.0319 11.1112 42.0009 11.1112C38.9699 11.1112 35.9389 11.7147 33.1431 12.8863C30.3429 14.0534 27.7823 15.7842 25.6433 17.9365C23.5043 20.0888 21.7913 22.6627 20.633 25.4674C19.4703 28.272 18.8668 31.303 18.8579 34.3429H18.7736Z" fill="#E08F00"/>
<path d="M42.0054 8.00488C27.9465 8.00488 16.5503 19.4011 16.5503 33.4599C16.5503 47.5188 27.9465 58.915 42.0054 58.915C56.0642 58.915 67.4604 47.5188 67.4604 33.4599C67.4604 19.4011 56.0642 8.00488 42.0054 8.00488ZM42.0054 56.6473C29.1979 56.6473 18.818 46.2673 18.818 33.4599C18.818 20.6481 29.1979 10.2681 42.0054 10.2681C54.8128 10.2681 65.1927 20.6481 65.1927 33.4555C65.1927 46.2629 54.8128 56.6473 42.0054 56.6473Z" fill="#FFF176"/>
<path d="M30.4624 15.6729L31.026 17.4169L32.8632 16.7157V17.4169L31.3765 18.4953L31.9446 19.5337V20.2393L30.4624 19.1609L28.9757 20.2393V19.5337L29.5437 18.4953L28.0615 17.4169V16.7157L29.8943 17.4169L30.4624 15.6729Z" fill="#D38200"/>
<path d="M23.371 25.6846L23.9391 27.4286L25.7719 26.7274V27.4286L24.2897 28.507L24.8577 29.5499V30.251L23.371 29.1727L21.8888 30.251V29.5499L22.4569 28.507L20.9702 27.4286V26.7274L22.8075 27.4286L23.371 25.6846Z" fill="#D38200"/>
<path d="M23.163 38.0264L23.7311 39.7704L25.5639 39.0692V39.7704L24.0817 40.8488L24.6497 41.8917V42.5928L23.163 41.5145L21.6808 42.5928V41.8917L22.2489 40.8488L20.7622 39.7704V39.0692L22.5994 39.7704L23.163 38.0264Z" fill="#D38200"/>
<path d="M30.7338 47.8242L31.3019 49.5683L33.1347 48.8671V49.5683L31.6525 50.6466L32.2205 51.6851V52.3907L30.7338 51.3123L29.2516 52.3907V51.6851L29.8197 50.6466L28.333 49.5683V48.8671L30.1702 49.5683L30.7338 47.8242Z" fill="#D38200"/>
<path d="M53.5483 15.6729L52.9847 17.4169L51.1475 16.7157V17.4169L52.6341 18.4953L52.0661 19.5337V20.2393L53.5483 19.1609L55.0349 20.2393V19.5337L54.4669 18.4953L55.9491 17.4169V16.7157L54.1163 17.4169L53.5483 15.6729Z" fill="#D38200"/>
<path d="M60.6401 25.6846L60.0721 27.4286L58.2393 26.7274V27.4286L59.7215 28.507L59.1534 29.5499V30.251L60.6401 29.1727L62.1223 30.251V29.5499L61.5543 28.507L63.0409 27.4286V26.7274L61.2037 27.4286L60.6401 25.6846Z" fill="#D38200"/>
<path d="M60.8486 38.0264L60.2806 39.7704L58.4478 39.0692V39.7704L59.93 40.8488L59.3619 41.8917V42.5928L60.8486 41.5145L62.3308 42.5928V41.8917L61.7628 40.8488L63.2494 39.7704V39.0692L61.4122 39.7704L60.8486 38.0264Z" fill="#D38200"/>
<path d="M53.2778 47.8242L52.7098 49.5683L50.877 48.8671V49.5683L52.3592 50.6466L51.7911 51.6851V52.3907L53.2778 51.3123L54.76 52.3907V51.6851L54.192 50.6466L55.6786 49.5683V48.8671L53.8414 49.5683L53.2778 47.8242Z" fill="#D38200"/>
<path d="M53.2778 47.1182L53.8414 48.8622H55.6786L54.192 49.9406L54.76 51.6846L53.2778 50.6063L51.7911 51.6846L52.3592 49.9406L50.877 48.8622H52.7098L53.2778 47.1182Z" fill="#FFF176"/>
<path d="M60.8486 37.3242L61.4122 39.0683H63.2494L61.7628 40.1466L62.3308 41.8907L60.8486 40.8123L59.3619 41.8907L59.93 40.1466L58.4478 39.0683H60.2806L60.8486 37.3242Z" fill="#FFF176"/>
<path d="M60.6401 24.9824L61.2037 26.7265H63.0409L61.5543 27.8048L62.1223 29.5489L60.6401 28.4705L59.1534 29.5489L59.7215 27.8048L58.2393 26.7265H60.0721L60.6401 24.9824Z" fill="#FFF176"/>
<path d="M53.5483 14.9668L54.1163 16.7108H55.9491L54.4669 17.7892L55.0349 19.5333L53.5483 18.4549L52.0661 19.5333L52.6341 17.7892L51.1475 16.7108H52.9847L53.5483 14.9668Z" fill="#FFF176"/>
<path d="M42.0278 51.6855L42.5958 53.4296L44.4286 52.7284V53.4296L42.9464 54.508L43.5144 55.5508V56.252L42.0278 55.1736L40.5456 56.252V55.5508L41.1136 54.508L39.627 53.4296V52.7284L41.4642 53.4296L42.0278 51.6855Z" fill="#D38200"/>
<path d="M42.0278 50.7539L42.5958 52.498H44.4286L42.9464 53.5763L43.5144 55.3204L42.0278 54.242L40.5456 55.3204L41.1136 53.5763L39.627 52.498H41.4642L42.0278 50.7539Z" fill="#FFF176"/>
<path d="M42.0278 11.9189L42.5958 13.663L44.4286 12.9618V13.663L42.9464 14.7414L43.5144 15.7842V16.4854L42.0278 15.407L40.5456 16.4854V15.7842L41.1136 14.7414L39.627 13.663V12.9618L41.4642 13.663L42.0278 11.9189Z" fill="#D38200"/>
<path d="M42.0278 11.2178L42.5958 12.9618H44.4286L42.9464 14.0402L43.5144 15.7842L42.0278 14.7059L40.5456 15.7842L41.1136 14.0402L39.627 12.9618H41.4642L42.0278 11.2178Z" fill="#FFF176"/>
<path d="M30.7338 47.1182L30.1702 48.8622H28.333L29.8197 49.9406L29.2516 51.6846L30.7338 50.6063L32.2205 51.6846L31.6525 49.9406L33.1347 48.8622H31.3019L30.7338 47.1182Z" fill="#FFF176"/>
<path d="M23.163 37.3242L22.5994 39.0683H20.7622L22.2489 40.1466L21.6808 41.8907L23.163 40.8123L24.6497 41.8907L24.0817 40.1466L25.5639 39.0683H23.7311L23.163 37.3242Z" fill="#FFF176"/>
<path d="M23.371 24.9824L22.8075 26.7265H20.9702L22.4569 27.8048L21.8888 29.5489L23.371 28.4705L24.8577 29.5489L24.2897 27.8048L25.7719 26.7265H23.9391L23.371 24.9824Z" fill="#FFF176"/>
<path d="M30.4624 14.9668L29.8943 16.7108H28.0615L29.5437 17.7892L28.9757 19.5333L30.4624 18.4549L31.9446 19.5333L31.3765 17.7892L32.8632 16.7108H31.026L30.4624 14.9668Z" fill="#FFF176"/>
<path d="M55.86 27.5886C55.86 27.4332 28.1772 27.5886 28.1772 27.5886L27.9287 28.3341V29.6077C27.9287 29.8385 28.1151 30.0249 28.3459 30.0249H42.0985H55.6648C55.8955 30.0249 56.0819 29.8385 56.0819 29.6077V28.3696L55.86 27.5886Z" fill="#D38200"/>
<path d="M55.8998 44.1416H28.2924L26.4463 45.0691L26.4685 46.2629C26.4729 46.3916 26.5794 46.4981 26.7126 46.4981H57.3021C57.4308 46.4981 57.5418 46.396 57.5462 46.2629L57.5684 45.0913L55.8998 44.1416Z" fill="#D38200"/>
<path d="M32.7433 40.5109H31.1545C30.8927 40.5109 30.6797 39.6855 30.6797 39.4236L33.2137 39.3438C33.2137 39.6056 33.0006 40.5109 32.7433 40.5109Z" fill="#D38200"/>
<path d="M33.2847 31.942H30.6088C30.4091 31.942 30.236 31.8089 30.1783 31.6181L29.9697 29.874H33.8883L33.7108 31.6181C33.6575 31.8089 33.4844 31.942 33.2847 31.942Z" fill="#D38200"/>
<path d="M30.6089 41.0391H33.2848C33.4845 41.0391 33.8795 41.1633 33.9327 41.3541C33.9327 41.3541 33.9194 42.184 33.9194 42.5124C33.9194 42.8408 33.7863 43.0804 33.489 43.0804H30.4047C30.1074 43.0804 29.9743 42.8142 29.9743 42.5124C29.9743 42.2106 29.9609 41.363 29.9609 41.363C30.0186 41.1722 30.4092 41.0391 30.6089 41.0391Z" fill="#D38200"/>
<path d="M53.379 40.5109H51.7903C51.5284 40.5109 51.3154 39.6855 51.3154 39.4236L53.8494 39.3438C53.8494 39.6056 53.6408 40.5109 53.379 40.5109Z" fill="#D38200"/>
<path d="M53.92 31.942H51.244C51.0443 31.942 50.8712 31.8089 50.8136 31.6181L50.605 29.874H54.5235L54.346 31.6181C54.2928 31.8089 54.1197 31.942 53.92 31.942Z" fill="#D38200"/>
<path d="M51.2441 41.0391H53.9201C54.1198 41.0391 54.5147 41.1633 54.568 41.3541C54.568 41.3541 54.5547 42.184 54.5547 42.5124C54.5547 42.8408 54.4215 43.0804 54.1242 43.0804H51.04C50.7426 43.0804 50.6095 42.8142 50.6095 42.5124C50.6095 42.2106 50.5962 41.363 50.5962 41.363C50.6539 41.1722 51.0444 41.0391 51.2441 41.0391Z" fill="#D38200"/>
<path d="M46.5011 40.5109H44.9123C44.6505 40.5109 44.4375 39.6855 44.4375 39.4236L46.9715 39.3438C46.9715 39.6056 46.7629 40.5109 46.5011 40.5109Z" fill="#D38200"/>
<path d="M47.0426 31.942H44.3666C44.1669 31.942 43.9938 31.8089 43.9361 31.6181L43.7275 29.874H47.6461L47.4686 31.6181C47.4153 31.8089 47.2423 31.942 47.0426 31.942Z" fill="#D38200"/>
<path d="M44.3667 41.0391H47.0426C47.2423 41.0391 47.6373 41.1633 47.6906 41.3541C47.6906 41.3541 47.6772 42.184 47.6772 42.5124C47.6772 42.8408 47.5441 43.0804 47.2468 43.0804H44.1625C43.8652 43.0804 43.7321 42.8142 43.7321 42.5124C43.7321 42.2106 43.7188 41.363 43.7188 41.363C43.7764 41.1722 44.167 41.0391 44.3667 41.0391Z" fill="#D38200"/>
<path d="M39.6231 40.5109H38.0344C37.7726 40.5109 37.5596 39.6855 37.5596 39.4236L40.0935 39.3438C40.0935 39.6056 39.885 40.5109 39.6231 40.5109Z" fill="#D38200"/>
<path d="M40.1641 31.942H37.4882C37.2885 31.942 37.1154 31.8089 37.0577 31.6181L36.8491 29.874H40.7677L40.5902 31.6181C40.5369 31.8089 40.3638 31.942 40.1641 31.942Z" fill="#D38200"/>
<path d="M37.4882 41.0391H40.1642C40.3639 41.0391 40.7589 41.1633 40.8121 41.3541C40.8121 41.3541 40.7988 42.184 40.7988 42.5124C40.7988 42.8408 40.6657 43.0804 40.3684 43.0804H37.2841C36.9868 43.0804 36.8536 42.8142 36.8536 42.5124C36.8536 42.2106 36.8403 41.363 36.8403 41.363C36.898 41.1722 37.2885 41.0391 37.4882 41.0391Z" fill="#D38200"/>
<path d="M56.0597 26.3995C56.0597 26.2442 55.9799 26.0977 55.86 26.0267L42.0231 18.1719L28.1684 26.0179C28.0352 26.0977 27.9509 26.2442 27.9509 26.3995L27.9287 28.3388C27.9287 28.5829 28.1284 28.7826 28.3725 28.7826H55.6337C55.8778 28.7826 56.0775 28.5829 56.0775 28.3388L56.0597 26.3995Z" fill="#FFF176"/>
<path d="M52.5856 25.8705L42.0059 19.8662L31.4263 25.8705H52.5856Z" fill="#F2BC1A"/>
<path d="M48.6928 25.1386L42.0051 21.3398L35.3174 25.1386H48.6928Z" fill="#FFF176"/>
<path d="M55.0481 42.5967H28.9629C28.7055 42.5967 28.4614 42.7076 28.2884 42.8984L26.4955 44.8999C26.3712 45.0375 26.4689 45.2549 26.6553 45.2549H57.3558C57.5377 45.2549 57.6353 45.0375 57.5155 44.8999L55.7182 42.8984C55.5496 42.7076 55.3011 42.5967 55.0481 42.5967Z" fill="#FFF176"/>
<path d="M53.3795 39.7082H51.7908C51.5289 39.7082 51.3159 39.4952 51.3159 39.2334V32.1418C51.3159 31.88 51.5289 31.667 51.7908 31.667H53.3795C53.6413 31.667 53.8543 31.88 53.8543 32.1418V39.2378C53.8543 39.4997 53.6413 39.7082 53.3795 39.7082Z" fill="#FFF176"/>
<path d="M53.9256 31.1386H51.2496C51.0499 31.1386 50.8768 31.0055 50.8191 30.8147L50.615 30.1091C50.5307 29.825 50.7481 29.541 51.0455 29.541H54.1297C54.4271 29.541 54.6401 29.825 54.5602 30.1091L54.356 30.8147C54.2984 31.0055 54.1208 31.1386 53.9256 31.1386Z" fill="#FFF176"/>
<path d="M51.2448 40.2402H53.9207C54.1204 40.2402 54.2935 40.3734 54.3512 40.5642L54.5554 41.2698C54.6397 41.5538 54.4222 41.8378 54.1249 41.8378H51.0406C50.7433 41.8378 50.5303 41.5538 50.6102 41.2698L50.8143 40.5642C50.872 40.3689 51.0495 40.2402 51.2448 40.2402Z" fill="#FFF176"/>
<path d="M32.7437 39.7082H31.155C30.8932 39.7082 30.6802 39.4952 30.6802 39.2334V32.1418C30.6802 31.88 30.8932 31.667 31.155 31.667H32.7437C33.0056 31.667 33.2186 31.88 33.2186 32.1418V39.2378C33.2141 39.4997 33.0011 39.7082 32.7437 39.7082Z" fill="#FFF176"/>
<path d="M33.2854 31.1386H30.6095C30.4098 31.1386 30.2367 31.0055 30.179 30.8147L29.9749 30.1091C29.8906 29.825 30.108 29.541 30.4053 29.541H33.4896C33.7869 29.541 33.9999 29.825 33.92 30.1091L33.7159 30.8147C33.6582 31.0055 33.4851 31.1386 33.2854 31.1386Z" fill="#FFF176"/>
<path d="M30.6095 40.2402H33.2855C33.4852 40.2402 33.6583 40.3734 33.716 40.5642L33.9201 41.2698C34.0044 41.5538 33.787 41.8378 33.4896 41.8378H30.4054C30.1081 41.8378 29.895 41.5538 29.9749 41.2698L30.1791 40.5642C30.2367 40.3689 30.4098 40.2402 30.6095 40.2402Z" fill="#FFF176"/>
<path d="M39.6222 39.7082H38.0334C37.7716 39.7082 37.5586 39.4952 37.5586 39.2334V32.1418C37.5586 31.88 37.7716 31.667 38.0334 31.667H39.6222C39.884 31.667 40.097 31.88 40.097 32.1418V39.2378C40.0926 39.4997 39.884 39.7082 39.6222 39.7082Z" fill="#FFF176"/>
<path d="M40.1634 31.1386H37.4874C37.2877 31.1386 37.1146 31.0055 37.0569 30.8147L36.8528 30.1091C36.7685 29.825 36.9859 29.541 37.2833 29.541H40.3675C40.6648 29.541 40.8779 29.825 40.798 30.1091L40.5938 30.8147C40.5361 31.0055 40.3631 31.1386 40.1634 31.1386Z" fill="#FFF176"/>
<path d="M37.4874 40.2402H40.1634C40.3631 40.2402 40.5362 40.3734 40.5939 40.5642L40.798 41.2698C40.8823 41.5538 40.6649 41.8378 40.3676 41.8378H37.2833C36.986 41.8378 36.773 41.5538 36.8528 41.2698L37.057 40.5642C37.1147 40.3689 37.2877 40.2402 37.4874 40.2402Z" fill="#FFF176"/>
<path d="M46.5006 39.7082H44.9119C44.65 39.7082 44.437 39.4952 44.437 39.2334V32.1418C44.437 31.88 44.65 31.667 44.9119 31.667H46.5006C46.7624 31.667 46.9754 31.88 46.9754 32.1418V39.2378C46.971 39.4997 46.7624 39.7082 46.5006 39.7082Z" fill="#FFF176"/>
<path d="M47.0418 31.1386H44.3658C44.1661 31.1386 43.993 31.0055 43.9354 30.8147L43.7312 30.1091C43.6469 29.825 43.8644 29.541 44.1617 29.541H47.2459C47.5433 29.541 47.7563 29.825 47.6764 30.1091L47.4723 30.8147C47.4146 31.0055 47.2415 31.1386 47.0418 31.1386Z" fill="#FFF176"/>
<path d="M44.3659 40.2402H47.0418C47.2415 40.2402 47.4146 40.3734 47.4723 40.5642L47.6764 41.2698C47.7608 41.5538 47.5433 41.8378 47.246 41.8378H44.1617C43.8644 41.8378 43.6514 41.5538 43.7313 41.2698L43.9354 40.5642C43.9931 40.3689 44.1706 40.2402 44.3659 40.2402Z" fill="#FFF176"/>
<path d="M80.2002 46C82.2989 46 84.0002 47.7013 84.0002 49.8V53.6H80.2002V46Z" fill="#846C4F"/>
<path d="M8 30.7998H76.2C78.4091 30.7998 80.2 32.5907 80.2 34.7998V79.9998C80.2 82.2089 78.4091 83.9998 76.2 83.9998H12C9.79086 83.9998 8 82.2089 8 79.9998V30.7998Z" fill="#998369"/>
<path d="M8 27V30.8H11.8C9.70123 30.8 8 29.0987 8 27Z" fill="#998369"/>
<path d="M65 61.1996C65 57.0022 68.4026 53.5996 72.6 53.5996H84V66.1789C84 67.6263 82.8267 68.7996 81.3793 68.7996H72.6C68.4026 68.7996 65 65.397 65 61.1996Z" fill="#AB9479"/>
<path d="M80.2002 53.5996L84.0002 53.5996L84.0002 49.7996C84.0002 51.8984 82.2989 53.5996 80.2002 53.5996Z" fill="#AB9479"/>
<circle cx="72.5998" cy="61.2004" r="3.8" fill="#CBB47B"/>
<circle cx="72.5998" cy="62.1496" r="3.8" fill="#E6C981"/>
</g>
</svg>
