<svg width="96" height="96" viewBox="0 0 96 96" fill="none" xmlns="http://www.w3.org/2000/svg">
<path d="M89.9635 66.9228L59.1654 15.6977C54.1099 7.28914 41.9055 7.28915 36.85 15.6978L6.05181 66.9228C0.836062 75.5979 7.10697 86.6087 17.2095 86.6087H78.8058C88.9084 86.6087 95.1793 75.5979 89.9635 66.9228Z" fill="white"/>
<path d="M40.4271 17.8484C43.8607 12.1374 52.1546 12.1374 55.5882 17.8484L86.3863 69.0735C89.9217 74.9537 85.6774 82.4348 78.8058 82.4348H17.2095C10.3379 82.4348 6.09354 74.9537 9.62894 69.0735L40.4271 17.8484Z" fill="#FFB300"/>
<path fill-rule="evenodd" clip-rule="evenodd" d="M51.8252 19.8977L82.8446 71.5275C84.625 74.4908 82.4876 78.2609 79.0271 78.2609H16.9882C13.5278 78.2609 11.3903 74.4908 13.1707 71.5275L44.1902 19.8977C45.9193 17.0196 50.096 17.0196 51.8252 19.8977ZM49.9164 21.0414L80.9359 72.6712C81.8261 74.1529 80.7573 76.0379 79.0271 76.0379H16.9882C15.258 76.0379 14.1893 74.1529 15.0795 72.6712L46.0989 21.0414C46.9635 19.6024 49.0519 19.6024 49.9164 21.0414Z" fill="black" fill-opacity="0.1"/>
<path fill-rule="evenodd" clip-rule="evenodd" d="M82.5961 71.343L51.7979 20.1179C50.0811 17.2624 45.9342 17.2624 44.2174 20.1179L13.4192 71.343C11.6515 74.2831 13.7737 78.0236 17.2095 78.0236H78.8058C82.2416 78.0236 84.3638 74.2831 82.5961 71.343ZM55.5882 17.8484C52.1546 12.1374 43.8607 12.1374 40.4271 17.8484L9.62894 69.0735C6.09354 74.9537 10.3379 82.4348 17.2095 82.4348H78.8058C85.6774 82.4348 89.9217 74.9537 86.3863 69.0735L55.5882 17.8484Z" fill="#D9E5EB"/>
<path d="M44.021 52.8751C43.8961 51.4317 43.8337 49.9734 43.8337 48.5005V36.3321C43.8337 34.7734 44.9723 33.3913 46.5109 33.3913H49.5044C51.043 33.3913 52.1816 34.7734 52.1816 36.3321V48.5005C52.1816 49.9763 52.1123 51.4375 51.9734 52.8839C51.8779 53.9854 51.7501 55.1171 51.5903 56.279C51.3981 57.676 50.3023 58.7627 48.9528 58.7627H47.0626C45.7122 58.7627 44.619 57.6757 44.4245 56.2829C44.2624 55.1221 44.1284 53.992 44.0227 52.8927L44.021 52.8751Z" fill="#272727"/>
<path d="M48.0077 72C50.3128 72 52.1816 70.0245 52.1816 67.5876C52.1816 65.1507 50.3128 63.1751 48.0077 63.1751C45.7025 63.1751 43.8337 65.1507 43.8337 67.5876C43.8337 70.0245 45.7025 72 48.0077 72Z" fill="#272727"/>
</svg>
