<svg width="80" height="80" viewBox="0 0 80 80" fill="none" xmlns="http://www.w3.org/2000/svg">
<path d="M61.3636 42.9396L59.8056 44.748C59.7168 44.851 59.6739 44.9858 59.6866 45.1212L59.9091 47.485L60.4142 52.9573C60.4373 53.2072 60.2715 53.4355 60.0267 53.4909L54.697 54.6971L52.3611 55.2255C52.2273 55.2558 52.1118 55.3397 52.0417 55.4576L50.8182 57.5153L48.0423 62.2259C47.9143 62.4432 47.6445 62.5311 47.413 62.431L42.4242 60.2729L40.1968 59.3262C40.0711 59.2728 39.929 59.2731 39.8036 59.3271L37.6061 60.2729L32.6162 62.4314C32.3852 62.5313 32.1159 62.444 31.9876 62.2275L29.2121 57.5456L27.9886 55.4879C27.9185 55.37 27.803 55.2861 27.6692 55.2558L25.3333 54.7274L20.0034 53.5212C19.7587 53.4658 19.5929 53.2376 19.6158 52.9878L20.1212 47.485L20.3437 45.1212C20.3564 44.9858 20.3135 44.851 20.2247 44.748L18.6667 42.9396L15.046 38.8137C14.8808 38.6255 14.8804 38.3441 15.0449 38.1554L18.6667 34.0002L20.2227 32.1941C20.3126 32.0897 20.3555 31.9528 20.3412 31.8157L20.0909 29.4244L19.586 23.9826C19.5628 23.7326 19.7286 23.5042 19.9735 23.4487L25.303 22.2426L27.6389 21.7142C27.7727 21.684 27.8882 21.6 27.9583 21.4821L29.1818 19.4244L31.9577 14.7138C32.0857 14.4966 32.3555 14.4086 32.587 14.5088L37.5757 16.6668L39.8032 17.6135C39.9289 17.6669 40.071 17.6666 40.1964 17.6126L42.3939 16.6668L47.3827 14.5088C47.6142 14.4086 47.884 14.4966 48.012 14.7138L50.7879 19.4244L52.0114 21.4821C52.0815 21.6 52.197 21.684 52.3308 21.7142L54.6667 22.2426L59.9964 23.4488C60.2412 23.5042 60.407 23.7325 60.3839 23.9824L59.8788 29.4547L59.6563 31.8185C59.6436 31.9539 59.6865 32.0887 59.7753 32.1917L61.3333 34.0002L64.9551 38.1273C65.1198 38.315 65.1208 38.5953 64.9575 38.7842L61.3636 42.9396Z" fill="white"/>
<path d="M73.0467 38.7837C73.2109 38.5952 73.2107 38.3143 73.0461 38.1261L66.0807 30.1615C65.9905 30.0584 65.9466 29.9229 65.9592 29.7865L66.9296 19.2546C66.9526 19.0049 66.787 18.7767 66.5424 18.7212L56.2402 16.3811C56.1062 16.3506 55.9907 16.2665 55.9207 16.1483L50.527 7.04462C50.3989 6.82848 50.1304 6.74092 49.8995 6.84005L40.1974 11.0063C40.0714 11.0604 39.9288 11.0604 39.8028 11.0063L30.1006 6.84005C29.8698 6.74092 29.6012 6.82848 29.4732 7.04462L24.0798 16.1477C24.0096 16.2662 23.8936 16.3505 23.7591 16.3807L13.459 18.6918C13.2139 18.7468 13.0476 18.9752 13.0706 19.2254L14.0411 29.7866C14.0536 29.9229 14.0097 30.0584 13.9195 30.1615L6.95461 38.1255C6.78978 38.314 6.78978 38.5953 6.95461 38.7838L13.9195 46.7478C14.0097 46.8508 14.0536 46.9863 14.0411 47.1227L13.0705 57.685C13.0475 57.9347 13.2131 58.1628 13.4576 58.2183L23.7596 60.5584C23.8938 60.5889 24.0094 60.6733 24.0794 60.7917L29.4728 69.9235C29.601 70.1404 29.8705 70.2281 30.1018 70.1281L39.8023 65.9341C39.9286 65.8795 40.0717 65.8793 40.198 65.9336L49.8995 70.0995C50.1304 70.1986 50.3989 70.1111 50.527 69.8949L55.9207 60.7912C55.9907 60.6731 56.1062 60.5889 56.2402 60.5585L66.5424 58.2184C66.787 58.1628 66.9526 57.9347 66.9296 57.6849L65.9591 47.1525C65.9466 47.0165 65.9903 46.8812 66.08 46.7782L73.0467 38.7837ZM61.3637 42.9395L59.8057 44.7479C59.7169 44.8509 59.674 44.9857 59.6867 45.1211L59.9092 47.4849L60.4143 52.9572C60.4374 53.2071 60.2716 53.4354 60.0268 53.4908L54.6971 54.6971L52.3612 55.2254C52.2274 55.2557 52.1119 55.3396 52.0418 55.4575L50.8183 57.5152L48.0424 62.2258C47.9144 62.4431 47.6446 62.531 47.4131 62.4309L42.4243 60.2728L40.1969 59.3261C40.0712 59.2727 39.9291 59.2731 39.8037 59.327L37.6061 60.2728L32.6163 62.4313C32.3853 62.5313 32.116 62.4439 31.9877 62.2274L29.2122 57.5455L27.9887 55.4878C27.9186 55.3699 27.8031 55.286 27.6692 55.2557L25.3334 54.7274L20.0035 53.5211C19.7588 53.4657 19.593 53.2376 19.6159 52.9877L20.1213 47.4849L20.3438 45.1211C20.3565 44.9857 20.3135 44.8509 20.2248 44.7479L18.6667 42.9395L15.0461 38.8136C14.8809 38.6254 14.8805 38.344 15.045 38.1553L18.6667 34.0001L20.2228 32.194C20.3127 32.0896 20.3556 31.9527 20.3412 31.8156L20.091 29.4243L19.5861 23.9825C19.5629 23.7325 19.7287 23.5041 19.9736 23.4487L25.3031 22.2425L27.6389 21.7142C27.7728 21.6839 27.8883 21.6 27.9584 21.482L29.1819 19.4243L31.9578 14.7137C32.0858 14.4965 32.3556 14.4086 32.5871 14.5087L37.5758 16.6667L39.8033 17.6134C39.929 17.6668 40.0711 17.6665 40.1965 17.6125L42.394 16.6667L47.3828 14.5087C47.6143 14.4086 47.884 14.4965 48.0121 14.7137L50.788 19.4243L52.0115 21.482C52.0816 21.6 52.1971 21.6839 52.3309 21.7142L54.6668 22.2425L59.9965 23.4487C60.2413 23.5041 60.4071 23.7324 60.384 23.9823L59.8789 29.4546L59.6564 31.8184C59.6436 31.9539 59.6866 32.0886 59.7754 32.1917L61.3334 34.0001L64.9552 38.1272C65.1199 38.3149 65.1209 38.5953 64.9576 38.7841L61.3637 42.9395Z" fill="#D9E5EB"/>
<path d="M34.5667 43.4324C34.3713 43.6285 34.0536 43.6284 33.8583 43.4322L27.5369 37.0836C27.3413 36.8871 27.0232 36.8873 26.8278 37.084L23.048 40.8894C22.854 41.0846 22.8543 41.3999 23.0487 41.5948L33.8584 52.4329C34.0538 52.6288 34.3711 52.6288 34.5664 52.4329L56.1034 30.8372C56.2978 30.6424 56.2981 30.3271 56.1041 30.1318L52.3241 26.3263C52.1288 26.1297 51.8109 26.1294 51.6152 26.3257L34.5667 43.4324Z" fill="#D9E5EB"/>
</svg>
