<svg width="25" height="24" viewBox="0 0 25 24" fill="none" xmlns="http://www.w3.org/2000/svg">
<path d="M19.6646 12.9792C19.7062 12.6667 19.7271 12.3438 19.7271 12C19.7271 11.6667 19.7062 11.3333 19.6542 11.0208L21.7688 9.375C21.9563 9.22917 22.0083 8.94792 21.8938 8.73958L19.8938 5.28125C19.7688 5.05208 19.5083 4.97917 19.2792 5.05208L16.7896 6.05208C16.2687 5.65625 15.7167 5.32292 15.1021 5.07292L14.7271 2.42708C14.6854 2.17708 14.4771 2 14.2271 2H10.2271C9.97708 2 9.77917 2.17708 9.7375 2.42708L9.3625 5.07292C8.74792 5.32292 8.18542 5.66667 7.675 6.05208L5.18542 5.05208C4.95625 4.96875 4.69583 5.05208 4.57083 5.28125L2.58125 8.73958C2.45625 8.95833 2.49792 9.22917 2.70625 9.375L4.82083 11.0208C4.76875 11.3333 4.72708 11.6771 4.72708 12C4.72708 12.3229 4.74792 12.6667 4.8 12.9792L2.68542 14.625C2.49792 14.7708 2.44583 15.0521 2.56042 15.2604L4.56042 18.7188C4.68542 18.9479 4.94583 19.0208 5.175 18.9479L7.66458 17.9479C8.18542 18.3437 8.7375 18.6771 9.35208 18.9271L9.72708 21.5729C9.77917 21.8229 9.97708 22 10.2271 22H14.2271C14.4771 22 14.6854 21.8229 14.7167 21.5729L15.0917 18.9271C15.7063 18.6771 16.2688 18.3437 16.7792 17.9479L19.2688 18.9479C19.4979 19.0312 19.7583 18.9479 19.8833 18.7188L21.8833 15.2604C22.0083 15.0312 21.9562 14.7708 21.7583 14.625L19.6646 12.9792ZM12.2271 15.75C10.1646 15.75 8.47708 14.0625 8.47708 12C8.47708 9.9375 10.1646 8.25 12.2271 8.25C14.2896 8.25 15.9771 9.9375 15.9771 12C15.9771 14.0625 14.2896 15.75 12.2271 15.75Z" fill="#867F70"/>
</svg>
