<svg width="24" height="24" viewBox="0 0 24 24" fill="none" xmlns="http://www.w3.org/2000/svg">
<path d="M11.1435 20.4718C10.0777 20.4718 10.2609 20.0897 7.9627 20.0897C6.03091 20.0897 4.14908 20.9701 3 22C3 18.4286 6.04756 14.1262 11.1435 14.1262C13.1585 14.1262 14.3243 15.804 14.3243 17.299C14.3243 19.0598 12.9087 20.4718 11.1435 20.4718ZM15.1403 13.196C15.1403 14.8571 16.2394 15.0233 16.2394 17.299C16.2561 19.0598 15.3401 20.7043 13.8413 21.6179C16.8389 21.6179 21.5185 18.8605 21.5185 13.196C21.5185 11.4352 20.103 10.0233 18.3377 10.0233C16.5725 10.0233 15.1403 11.4352 15.1403 13.196ZM13.8413 2C12.1593 2 10.7771 3.29568 10.6605 4.97342C10.6605 5.03987 10.6605 5.12292 10.6605 5.18937C10.6605 5.25581 10.6605 5.33887 10.6605 5.40532C10.6106 7.4485 9.79457 9.39203 8.36238 10.8538C8.22915 10.9701 8.11258 11.0864 7.996 11.2193C7.7129 11.5017 7.4631 11.8173 7.22995 12.1329C6.9635 12.4983 6.73035 12.897 6.51386 13.3123C7.52971 12.7807 8.64549 12.4319 9.77791 12.2824C9.89449 12.2658 10.0277 12.2492 10.1443 12.2326C13.4583 11.7508 16.1561 9.30897 16.9222 6.05316C16.9555 5.90365 16.9888 5.77076 17.0055 5.62126C17.0221 5.47176 17.0388 5.33887 17.0388 5.18937C17.0221 3.42857 15.5899 2 13.8413 2Z" fill="#00CDB4"/>
</svg>
