<svg width="96" height="96" viewBox="0 0 96 96" fill="none" xmlns="http://www.w3.org/2000/svg">
<mask id="mask0_1694_4131" style="mask-type:alpha" maskUnits="userSpaceOnUse" x="0" y="0" width="96" height="96">
<rect width="96" height="96" fill="#C4C4C4"/>
</mask>
<g mask="url(#mask0_1694_4131)">
<path d="M91.4966 41.3015C91.0565 40.2762 90.4176 39.3483 89.6166 38.5715C88.6503 37.628 87.4752 36.9257 86.1866 36.5215C83.9685 31.4902 80.5316 27.091 76.1866 23.7215C75.3966 14.5215 71.6166 12.5215 68.4866 12.5215C67.2443 12.5511 66.0298 12.8951 64.9566 13.5215C63.5553 14.324 62.2644 15.3056 61.1166 16.4415C57.8091 15.6208 54.4143 15.2044 51.0066 15.2015C38.6366 15.2015 27.3266 20.5215 20.3866 28.9915C20.0984 28.7925 19.7978 28.6122 19.4866 28.4515C18.5267 27.9865 17.4732 27.7471 16.4066 27.7515C15.074 27.7445 13.7632 28.0895 12.6066 28.7515C11.6351 29.3192 10.8071 30.1027 10.1866 31.0415C9.85826 30.9695 9.52267 30.936 9.18659 30.9415C8.26955 30.9391 7.36953 31.1891 6.58498 31.6639C5.80043 32.1387 5.16157 32.8201 4.7383 33.6336C4.31502 34.4472 4.12363 35.3614 4.18506 36.2764C4.24649 37.1914 4.55837 38.0718 5.08659 38.8215C6.79052 41.468 9.46607 43.3391 12.5366 44.0315C12.8566 44.3115 13.1866 44.5815 13.5366 44.8315C13.4052 45.9668 13.3384 47.1086 13.3366 48.2515C13.3366 58.7615 18.9066 68.4615 28.3866 74.6915C28.1496 75.9913 28.2998 77.3322 28.8187 78.5474C29.3375 79.7625 30.2021 80.7984 31.3049 81.5261C32.4078 82.2539 33.7002 82.6415 35.0215 82.6406C36.3428 82.6398 37.6347 82.2506 38.7366 81.5215C39.3395 81.1247 39.876 80.6353 40.3266 80.0715C47.3167 81.9184 54.6665 81.9184 61.6566 80.0715C62.105 80.6373 62.6419 81.127 63.2466 81.5215C63.4774 81.6736 63.7179 81.8106 63.9666 81.9315L65.1738 82.5215L66.9866 82.6915C68.1052 82.6917 69.2059 82.4096 70.1866 81.8715C71.1619 81.3483 71.9931 80.5927 72.6066 79.6715C73.195 78.7239 73.5386 77.6449 73.6066 76.5315C73.6553 75.9604 73.6284 75.3855 73.5266 74.8215C79.1031 71.2411 83.5053 66.1018 86.1866 60.0415C86.4345 59.9682 86.6782 59.8814 86.9166 59.7815C88.4929 59.128 89.8363 58.0158 90.7725 56.5893C91.7087 55.1627 92.1944 53.4876 92.1666 51.7815V44.6215C92.1672 43.4812 91.9393 42.3523 91.4966 41.3015Z" fill="white"/>
<path d="M35.0265 78.6216C34.3384 78.6262 33.674 78.3698 33.1674 77.904C32.6608 77.4383 32.3496 76.7978 32.2965 76.1116C32.2508 75.6576 32.3232 75.1995 32.5065 74.7816L35.2565 68.3616C35.3991 68.029 35.606 67.7278 35.8653 67.4752C36.1246 67.2227 36.4312 67.0238 36.7675 66.8901C37.1039 66.7563 37.4633 66.6902 37.8252 66.6956C38.1871 66.701 38.5444 66.7779 38.8765 66.9216C39.5434 67.2098 40.0691 67.7502 40.3389 68.4247C40.6087 69.0992 40.6007 69.8531 40.3165 70.5216L37.5565 76.9416C37.3483 77.4339 37.0007 77.8545 36.5565 78.1516C36.11 78.4514 35.5843 78.6115 35.0465 78.6116L35.0265 78.6216Z" fill="#EB95B4"/>
<path d="M66.9565 78.6214C66.4188 78.6201 65.8935 78.4601 65.4465 78.1614C65.0064 77.8597 64.6599 77.4404 64.4465 76.9514L61.6765 70.5214C61.3887 69.8504 61.3793 69.0926 61.6503 68.4147C61.9213 67.7367 62.4505 67.1942 63.1215 66.9064C63.7925 66.6187 64.5503 66.6093 65.2282 66.8802C65.9062 67.1512 66.4487 67.6804 66.7365 68.3514L69.4965 74.7714C69.6702 75.1921 69.7421 75.6478 69.7065 76.1014C69.6808 76.5637 69.5367 77.0116 69.2881 77.4021C69.0394 77.7927 68.6945 78.1127 68.2865 78.3314C67.8846 78.5503 67.434 78.6638 66.9765 78.6614L66.9565 78.6214Z" fill="#EB95B4"/>
<path d="M51.0064 77.312C69.5964 77.312 84.6764 64.312 84.6764 48.252C84.6764 32.192 69.5964 19.252 51.0064 19.252C32.4164 19.252 17.3364 32.252 17.3364 48.302C17.3364 64.352 32.4064 77.312 51.0064 77.312Z" fill="#EEA6C0"/>
<path d="M81.6362 40.0918H83.6362C84.523 40.1137 85.3852 40.3878 86.1219 40.8819C86.8587 41.376 87.4394 42.0697 87.7962 42.8818C88.0403 43.4337 88.1728 44.0285 88.1862 44.6318V51.8618C88.1942 52.4603 88.0824 53.0544 87.8575 53.6091C87.6325 54.1638 87.2989 54.6679 86.8762 55.0918C86.4589 55.521 85.9588 55.8612 85.4062 56.0918C84.8514 56.3218 84.2569 56.4407 83.6562 56.4418H81.6562L81.6362 40.0918Z" fill="#EEA6C0"/>
<path d="M76.4167 40.8916C76.4988 40.3994 76.4322 39.8939 76.2256 39.4397C76.019 38.9855 75.6817 38.6032 75.2567 38.3416C74.8334 38.0767 74.3405 37.9447 73.8414 37.9625C73.3424 37.9804 72.8601 38.1472 72.4567 38.4416C72.0557 38.7333 71.7495 39.1368 71.5767 39.6016C71.3973 40.0709 71.3659 40.5839 71.4867 41.0716C71.5821 41.4741 71.7755 41.8468 72.0497 42.1565C72.3239 42.4662 72.6703 42.7033 73.0583 42.8468C73.4462 42.9903 73.8636 43.0357 74.2733 42.979C74.683 42.9222 75.0724 42.7651 75.4067 42.5216C75.9421 42.1315 76.3015 41.5456 76.4067 40.8916H76.4167Z" fill="#E98AAC"/>
<path d="M55.9463 31.5216C55.9463 31.5216 60.6263 20.5216 66.9463 17.0216C73.2663 13.5216 73.1563 30.0216 71.5863 36.7316C68.7522 37.3778 65.7951 37.2337 63.0373 36.315C60.2795 35.3963 57.8267 33.7383 55.9463 31.5216V31.5216Z" fill="#EEA6C0"/>
<path fill-rule="evenodd" clip-rule="evenodd" d="M79.2367 63.7812C72.3967 69.9313 62.2367 72.8413 50.8767 72.8413C39.8767 72.8413 29.8767 70.1613 23.0967 64.3113C29.0967 72.1813 39.3567 77.4313 50.9567 77.4313C62.8167 77.4313 73.2367 71.9913 79.2367 63.7812Z" fill="#EB95B4"/>
<path fill-rule="evenodd" clip-rule="evenodd" d="M50.2463 25.3911C48.0403 25.3869 45.845 25.6967 43.7263 26.3111C43.3471 26.4437 42.9307 26.4202 42.5687 26.2458C42.2068 26.0714 41.9289 25.7604 41.7963 25.3811C41.6637 25.0019 41.6872 24.5855 41.8616 24.2235C42.036 23.8616 42.3471 23.5837 42.7263 23.4511C45.1493 22.7398 47.6611 22.3761 50.1863 22.3711C53.0986 22.2602 56.0096 22.6216 58.8063 23.4411C58.9948 23.5028 59.1692 23.6011 59.3197 23.7302C59.4702 23.8593 59.5938 24.0169 59.6834 24.1938C59.773 24.3707 59.8269 24.5635 59.8419 24.7612C59.857 24.9589 59.833 25.1577 59.7713 25.3461C59.7096 25.5346 59.6114 25.709 59.4822 25.8595C59.3531 26.01 59.1956 26.1335 59.0187 26.2232C58.8418 26.3128 58.649 26.3667 58.4512 26.3817C58.2535 26.3968 58.0548 26.3728 57.8663 26.3111C55.3916 25.6002 52.8191 25.2896 50.2463 25.3911V25.3911Z" fill="#E98AAC"/>
<path d="M85.686 44.002C85.9513 44.002 86.2056 44.1073 86.3931 44.2948C86.5807 44.4824 86.686 44.7367 86.686 45.002V51.002C86.686 51.2672 86.5807 51.5215 86.3931 51.7091C86.2056 51.8966 85.9513 52.002 85.686 52.002C85.4208 52.002 85.1665 51.8966 84.9789 51.7091C84.7914 51.5215 84.686 51.2672 84.686 51.002V45.002C84.686 44.7367 84.7914 44.4824 84.9789 44.2948C85.1665 44.1073 85.4208 44.002 85.686 44.002V44.002Z" fill="#E98AAC"/>
<path fill-rule="evenodd" clip-rule="evenodd" d="M15.6064 33.982C15.2816 34.1941 15.0254 34.4961 14.8692 34.8512C14.7129 35.2063 14.6633 35.5992 14.7264 35.982C14.7554 36.7195 14.9685 37.438 15.3464 38.072C15.765 37.9633 16.1577 37.772 16.5011 37.5092C16.8446 37.2465 17.132 36.9176 17.3464 36.542C17.5046 36.2749 17.6051 35.9776 17.6412 35.6693C17.6774 35.3609 17.6485 35.0484 17.5564 34.752C17.4212 34.3719 17.1506 34.0551 16.7964 33.862C16.6008 33.7968 16.3937 33.7739 16.1886 33.7945C15.9835 33.8152 15.7851 33.8791 15.6064 33.982V33.982ZM16.7064 39.682C17.7677 39.2301 18.6427 38.4292 19.1864 37.412C19.4676 36.9 19.6395 36.3353 19.6911 35.7535C19.7428 35.1717 19.6731 34.5855 19.4864 34.032C19.176 33.1686 18.551 32.4543 17.7364 32.032C17.2421 31.8191 16.7045 31.7263 16.1674 31.761C15.6304 31.7958 15.1092 31.9572 14.6464 32.232C14.0196 32.6181 13.5114 33.1697 13.1779 33.826C12.8445 34.4824 12.6986 35.218 12.7564 35.952C12.7644 36.6358 12.893 37.3129 13.1364 37.952C11.8591 37.4404 10.7795 36.5326 10.0564 35.362C9.9026 35.1379 9.66605 34.9841 9.39881 34.9344C9.13157 34.8847 8.85554 34.9432 8.63143 35.097C8.40732 35.2508 8.2535 35.4874 8.2038 35.7546C8.15411 36.0218 8.2126 36.2979 8.36643 36.522C10.1964 39.132 12.3664 40.202 14.3664 40.192L14.7364 40.602C15.4417 41.3571 16.2949 41.9589 17.2428 42.3701C18.1908 42.7813 19.2132 42.993 20.2464 42.992C20.5116 42.992 20.766 42.8866 20.9535 42.6991C21.1411 42.5116 21.2464 42.2572 21.2464 41.992C21.2464 41.7268 21.1411 41.4724 20.9535 41.2849C20.766 41.0973 20.5116 40.992 20.2464 40.992C18.9476 40.9936 17.6913 40.5287 16.7064 39.682V39.682Z" fill="#EEA6C0"/>
</g>
</svg>
