<svg width="16" height="16" viewBox="0 0 16 16" fill="none" xmlns="http://www.w3.org/2000/svg">
<path d="M7.33331 12.0002H8.66665V10.6668H7.33331V12.0002ZM7.99998 1.3335C4.31998 1.3335 1.33331 4.32016 1.33331 8.00016C1.33331 11.6802 4.31998 14.6668 7.99998 14.6668C11.68 14.6668 14.6666 11.6802 14.6666 8.00016C14.6666 4.32016 11.68 1.3335 7.99998 1.3335ZM7.99998 13.3335C5.05998 13.3335 2.66665 10.9402 2.66665 8.00016C2.66665 5.06016 5.05998 2.66683 7.99998 2.66683C10.94 2.66683 13.3333 5.06016 13.3333 8.00016C13.3333 10.9402 10.94 13.3335 7.99998 13.3335ZM7.99998 4.00016C6.52665 4.00016 5.33331 5.1935 5.33331 6.66683H6.66665C6.66665 5.9335 7.26665 5.3335 7.99998 5.3335C8.73331 5.3335 9.33331 5.9335 9.33331 6.66683C9.33331 8.00016 7.33331 7.8335 7.33331 10.0002H8.66665C8.66665 8.50016 10.6666 8.3335 10.6666 6.66683C10.6666 5.1935 9.47331 4.00016 7.99998 4.00016Z" fill="#00DA93"/>
</svg>
