<svg width="9" height="12" viewBox="0 0 9 12" fill="none" xmlns="http://www.w3.org/2000/svg">
<path d="M2.54028 0.948156C1.27894 2.21236 1.27894 4.26203 2.54028 5.52624C3.80163 6.79045 3.80163 8.83846 2.54028 10.1027C1.90959 10.7347 1.08302 11.0587 0.256457 11.0587C0.190802 11.0587 0.125146 11.0807 0.0751173 11.1308C-0.0250391 11.2312 -0.0250391 11.3924 0.0751173 11.4928C0.0960374 11.5138 0.119803 11.5293 0.145017 11.5415C0.159746 11.5476 0.167635 11.5506 0.175623 11.5533C2.49929 12.4648 5.23542 11.9811 7.10799 10.1044C9.63067 7.57596 9.63067 3.47657 7.10799 0.948156C5.84664 -0.316052 3.80163 -0.316052 2.54028 0.948156Z" fill="#00DA93"/>
</svg>
