<svg width="88" height="85" viewBox="0 0 88 85" fill="none" xmlns="http://www.w3.org/2000/svg">
<path d="M82.7598 44.5526C83.8165 43.3442 83.8165 41.5405 82.7598 40.3321L76.5039 33.179C75.9259 32.518 75.6443 31.6489 75.7249 30.7746L76.5959 21.321C76.7435 19.7199 75.682 18.2572 74.114 17.901L64.8758 15.8026C64.0158 15.6072 63.2743 15.0662 62.8258 14.3068L57.986 6.1125C57.1661 4.72426 55.4426 4.16105 53.9611 4.79722L45.2667 8.53069C44.4592 8.87747 43.5447 8.87747 42.7371 8.53069L34.0392 4.79568C32.5592 4.16018 30.8375 4.72151 30.0165 6.10718L25.1809 14.2688C24.7307 15.0288 23.9868 15.5693 23.1249 15.7626L13.8981 17.8329C12.3264 18.1856 11.2605 19.6499 11.4079 21.254L12.2797 30.7415C12.3598 31.6136 12.0797 32.4805 11.5043 33.1408L5.23709 40.3326C4.18387 41.5413 4.18547 43.3421 5.24083 44.5488L11.5002 51.7061C12.0781 52.3669 12.3597 53.2356 12.2794 54.1097L11.4072 63.6013C11.2601 65.2022 12.3215 66.6644 13.8892 67.0205L23.1306 69.1197C23.9891 69.3147 24.7296 69.8542 25.1784 70.6116L30.0129 78.7715C30.8355 80.1598 32.5617 80.7202 34.0429 80.0799L42.7342 76.3222C43.5434 75.9723 44.461 75.9711 45.2711 76.319L53.9647 80.0522C55.4447 80.6877 57.1664 80.1263 57.9874 78.7407L62.8255 70.5747C63.2742 69.8173 64.0148 69.2777 64.8733 69.0827L74.114 66.9837C75.682 66.6276 76.7435 65.1649 76.5959 63.5637L75.7249 54.1101C75.6443 53.2358 75.9259 52.3667 76.5039 51.7058L82.7598 44.5526Z" fill="white"/>
<path fill-rule="evenodd" clip-rule="evenodd" d="M80.0226 30.7106L85.9766 37.5187C88.4425 40.3382 88.4425 44.547 85.9766 47.3665L80.0226 54.1746L80.8516 63.1718C81.1958 66.9078 78.719 70.3208 75.0603 71.1518L66.2679 73.149L61.6641 80.9195C59.7485 84.1527 55.7311 85.4625 52.2779 83.9796L44.0073 80.4281L35.7386 84.0031C32.2826 85.4974 28.2547 84.1896 26.3355 80.9503L21.7352 73.1859L12.9421 71.1886C9.28417 70.3577 6.80745 66.9458 7.1507 63.2104L7.98097 54.1751L2.0232 47.3627C-0.439313 44.547 -0.443028 40.345 2.01448 37.5249L7.98138 30.6776L7.15138 21.6453C6.80744 17.9024 9.29459 14.4857 12.962 13.6628L21.7386 11.6935L26.339 3.9288C28.2547 0.695556 32.272 -0.614208 35.7252 0.86864L44.0016 4.42261L52.2743 0.870177C55.7311 -0.614213 59.7526 0.69994 61.6657 3.93917L66.2713 11.7369L75.0603 13.7333C78.719 14.5644 81.1958 17.9774 80.8516 21.7134L80.0226 30.7106ZM82.7594 40.3324C83.8162 41.5407 83.8162 43.3445 82.7594 44.5528L76.5036 51.706C75.9256 52.3669 75.644 53.236 75.7245 54.1103L76.5956 63.564C76.7431 65.1651 75.6816 66.6278 74.1136 66.984L64.8729 69.083C64.0144 69.278 63.2739 69.8175 62.8251 70.5749L57.987 78.7409C57.166 80.1266 55.4443 80.6879 53.9643 80.0524L45.2707 76.3192C44.4606 75.9714 43.543 75.9725 42.7338 76.3224L34.0425 80.0801C32.5614 80.7205 30.8351 80.16 30.0126 78.7717L25.178 70.6118C24.7293 69.8544 23.9887 69.3149 23.1302 69.1199L13.8888 67.0207C12.3211 66.6646 11.2597 65.2024 11.4068 63.6015L12.279 54.1099C12.3593 53.2358 12.0777 52.3671 11.4999 51.7063L5.24045 44.5491C4.18509 43.3423 4.1835 41.5415 5.23671 40.3329L11.5039 33.141C12.0793 32.4807 12.3594 31.6138 12.2793 30.7417L11.4075 21.2542C11.2601 19.6501 12.326 18.1858 13.8978 17.8331L23.1245 15.7629C23.9864 15.5695 24.7303 15.029 25.1806 14.269L30.0161 6.1074C30.8371 4.72172 32.5588 4.1604 34.0388 4.7959L42.7368 8.53091C43.5443 8.87768 44.4588 8.87768 45.2664 8.53091L53.9608 4.79744C55.4422 4.16127 57.1657 4.72448 57.9856 6.11272L62.8254 14.3071C63.2739 15.0664 64.0154 15.6074 64.8755 15.8028L74.1136 17.9012C75.6816 18.2574 76.7431 19.7201 76.5956 21.3212L75.7245 30.7748C75.644 31.6492 75.9256 32.5183 76.5036 33.1792L82.7594 40.3324Z" fill="white"/>
<path d="M82.8779 44.4172C83.8669 43.2863 83.8669 41.5983 82.8779 40.4674L76.4457 33.1125C75.9048 32.494 75.6412 31.6806 75.7166 30.8623L76.6123 21.1416C76.7504 19.6431 75.7569 18.2741 74.2895 17.9408L64.7893 15.7829C63.9844 15.6001 63.2904 15.0937 62.8707 14.383L57.8939 5.95676C57.1265 4.65753 55.5136 4.13043 54.1271 4.72581L45.1855 8.56544C44.4297 8.88998 43.5738 8.88998 42.8181 8.56544L33.8731 4.72437C32.488 4.12961 30.8767 4.65495 30.1084 5.95178L25.1355 14.3451C24.7142 15.0563 24.018 15.5621 23.2113 15.7431L13.7218 17.8724C12.2508 18.2024 11.2532 19.5729 11.3912 21.0741L12.2876 30.829C12.3626 31.6451 12.1004 32.4565 11.5619 33.0744L5.11904 40.4678C4.13335 41.599 4.13485 43.2843 5.12254 44.4137L11.5581 51.7724C12.0989 52.3908 12.3624 53.2038 12.2873 54.0219L11.3905 63.7805C11.2529 65.2788 12.2463 66.6473 13.7134 66.9805L23.2167 69.1392C24.0201 69.3217 24.7132 69.8266 25.1331 70.5355L30.105 78.9271C30.8748 80.2264 32.4904 80.7509 33.8766 80.1516L42.8153 76.2869C43.5726 75.9595 44.4314 75.9584 45.1895 76.284L54.1304 80.1233C55.5155 80.7181 57.1268 80.1927 57.8952 78.8959L62.8704 70.4985C63.2904 69.7897 63.9834 69.2848 64.7869 69.1022L74.2895 66.9438C75.7569 66.6104 76.7504 65.2415 76.6123 63.743L75.7166 54.0223C75.6412 53.204 75.9048 52.3906 76.4457 51.7721L82.8779 44.4172ZM34.3308 57.2441L25.5457 48.3851C24.1061 46.9456 24.1061 44.6201 25.5457 43.1805L25.8041 42.9222C27.2437 41.4826 29.606 41.4826 31.0456 42.9222L36.9885 48.9019L55.9982 29.8553C57.4378 28.4157 59.8002 28.4157 61.2397 29.8553L61.4981 30.1136C62.9377 31.5532 62.9377 33.8787 61.4981 35.3183L39.6461 57.2441C38.1327 58.6836 35.8073 58.6836 34.3308 57.2441Z" fill="url(#paint0_linear_1106_300)"/>
<defs>
<linearGradient id="paint0_linear_1106_300" x1="44.0018" y1="3.68457" x2="44.0018" y2="81.2" gradientUnits="userSpaceOnUse">
<stop stop-color="#00DA93"/>
<stop offset="1" stop-color="#009DAC"/>
</linearGradient>
</defs>
</svg>
