<svg width="46" height="46" viewBox="0 0 46 46" fill="none" xmlns="http://www.w3.org/2000/svg">
<path d="M36.5462 14.299C36.1952 13.4231 36.6632 12.4081 37.4631 12.054L36.4893 9.613C35.664 9.90706 34.5984 9.50549 34.2475 8.62648C34.2285 8.58221 34.1684 8.50316 34.1716 8.5L5.19253 20.0663C5.1957 20.0663 5.23364 20.1517 5.25261 20.1991C5.60991 21.0971 5.1451 22.1247 4.24712 22.4852C4.17439 22.5136 4.00365 22.5769 4.00049 22.5674L4.98385 25.0337C4.98068 25.0242 5.14827 24.9515 5.21783 24.923C6.11582 24.5657 7.1466 24.9958 7.5039 25.8937C7.8612 26.7917 7.40272 27.8162 6.50473 28.1767C6.43201 28.2051 6.26759 28.2652 6.26443 28.2557L7.24778 30.722C7.24462 30.7125 7.4122 30.6398 7.48177 30.6113C8.37975 30.254 9.41054 30.6841 9.76784 31.582C10.1251 32.48 9.66666 33.5045 8.76867 33.865C8.69594 33.8934 8.53152 33.9535 8.52836 33.944L9.51172 36.4103C9.50856 36.4008 9.67614 36.3281 9.7457 36.2996C10.6437 35.9423 11.6745 36.3724 12.0349 37.2703C12.0539 37.3146 12.1013 37.4 12.0982 37.4031L41.0772 25.8368C41.074 25.8368 41.0646 25.7388 41.0456 25.6945C40.6946 24.8187 41.1942 23.7911 41.9942 23.4369L41.0203 20.9959C40.195 21.29 39.1579 20.8758 38.8069 19.9999C38.456 19.1241 38.9239 18.1091 39.7239 17.755L38.75 15.3139C37.9343 15.589 36.8971 15.178 36.5462 14.299Z" fill="white"/>
<path fill-rule="evenodd" clip-rule="evenodd" d="M43.04 25.4529C43.0404 25.4551 43.0408 25.4573 43.0413 25.4596C43.2223 26.4013 42.7093 27.339 41.8186 27.6945L12.8396 39.2609C11.9579 39.6128 10.9504 39.2964 10.4281 38.5037C10.3748 38.4229 10.3281 38.3393 10.2879 38.2538C10.2585 38.2661 10.2288 38.2778 10.1986 38.2889C9.18229 38.6605 8.05473 38.1564 7.65395 37.1512L6.68258 34.715C6.66417 34.6705 6.64692 34.6244 6.63099 34.5767C6.40985 33.9132 6.55563 33.2139 6.96074 32.7018C6.27617 32.602 5.66366 32.1493 5.39001 31.4629L4.41864 29.0267C4.40023 28.9822 4.38298 28.9361 4.36706 28.8884C4.14592 28.2249 4.29169 27.5256 4.6968 27.0135C4.01223 26.9137 3.39973 26.461 3.12607 25.7746L2.15538 23.3401C2.13672 23.2951 2.11925 23.2484 2.10312 23.2001C1.76311 22.18 2.29049 21.0751 3.2942 20.6965C3.26713 20.6147 3.24509 20.5305 3.22848 20.444C3.04747 19.5022 3.56045 18.5645 4.45115 18.209L33.4302 6.6427C34.3118 6.2908 35.3194 6.60716 35.8417 7.39985C35.8565 7.42231 35.8708 7.44498 35.8845 7.46784C35.8989 7.48992 35.9188 7.52098 35.9399 7.55605C35.9523 7.57659 35.9767 7.61728 36.0059 7.67236C36.9658 7.43221 37.9728 7.93456 38.3469 8.87208L39.3207 11.3131C39.6007 12.0147 39.4557 12.7835 39.0039 13.33C39.7027 13.4199 40.33 13.8771 40.6076 14.573L41.5815 17.014C41.8583 17.7079 41.7196 18.4674 41.2796 19.0127C41.9755 19.1042 42.6006 19.56 42.8779 20.255L43.8518 22.696C44.2259 23.6336 43.8411 24.6914 42.9793 25.1779C42.9921 25.2234 43.0005 25.2588 43.0055 25.28C43.0223 25.3517 43.0331 25.4127 43.0387 25.4453C43.039 25.4469 43.0394 25.4496 43.04 25.4529Z" fill="white"/>
<path d="M36.5462 14.299C36.1952 13.4231 36.6632 12.4081 37.4631 12.054L36.4893 9.613C35.664 9.90706 34.5984 9.50549 34.2475 8.62648C34.2285 8.58221 34.1684 8.50316 34.1716 8.5L5.19253 20.0663C5.1957 20.0663 5.23364 20.1517 5.25261 20.1991C5.60991 21.0971 5.1451 22.1247 4.24712 22.4852C4.17439 22.5136 4.00365 22.5769 4.00049 22.5674L4.98385 25.0337C4.98068 25.0242 5.14827 24.9515 5.21783 24.923C6.11582 24.5657 7.1466 24.9958 7.5039 25.8937C7.8612 26.7917 7.40272 27.8162 6.50473 28.1767C6.43201 28.2051 6.26759 28.2652 6.26443 28.2557L7.24778 30.722C7.24462 30.7125 7.4122 30.6398 7.48177 30.6113C8.37975 30.254 9.41054 30.6841 9.76784 31.582C10.1251 32.48 9.66666 33.5045 8.76867 33.865C8.69594 33.8934 8.53152 33.9535 8.52836 33.944L9.51172 36.4103C9.50856 36.4008 9.67614 36.3281 9.7457 36.2996C10.6437 35.9423 11.6745 36.3724 12.0349 37.2703C12.0539 37.3146 12.1013 37.4 12.0982 37.4031L41.0772 25.8368C41.074 25.8368 41.0646 25.7388 41.0456 25.6945C40.6946 24.8187 41.1942 23.7911 41.9942 23.4369L41.0203 20.9959C40.195 21.29 39.1579 20.8758 38.8069 19.9999C38.456 19.1241 38.9239 18.1091 39.7239 17.755L38.75 15.3139C37.9343 15.589 36.8971 15.178 36.5462 14.299Z" fill="#8CE0BE"/>
<path d="M33.1977 11.9123L7.97925 21.9785L12.8131 34.0886L38.0316 24.0223L33.1977 11.9123Z" fill="#00DA93"/>
<path d="M12.3243 18.744L11.3318 19.1401L17.2651 34.0046L18.2576 33.6084L12.3243 18.744Z" fill="#8CE0BE"/>
<path d="M28.794 11.9905L27.8015 12.3867L33.7348 27.2512L34.7273 26.855L28.794 11.9905Z" fill="#8CE0BE"/>
<path d="M25.0049 27.1671C25.0386 27.165 25.0711 27.1533 25.0986 27.1333C25.1262 27.1133 25.1478 27.0858 25.161 27.0538L25.4273 26.4304C26.7639 23.3196 27.6464 21.2636 26.9321 19.6035C26.7291 19.1157 26.3843 18.7044 25.9453 18.4267C25.5063 18.1489 24.995 18.0185 24.4821 18.0534C24.1827 18.0741 23.8894 18.1488 23.6153 18.2739C23.2577 18.4395 22.939 18.6825 22.6808 18.9864C22.4226 19.2902 22.2309 19.648 22.1186 20.0354C22.1111 20.0633 22.0954 20.0881 22.0738 20.1064C22.0521 20.1247 22.0254 20.1357 21.9974 20.1379C21.9742 20.1397 21.9508 20.135 21.9298 20.1245C21.5011 19.9124 21.0268 19.8181 20.5533 19.8511C20.2428 19.8708 19.9383 19.9468 19.6538 20.0756C19.3504 20.2098 19.0763 20.4051 18.8474 20.6501C18.6185 20.8951 18.4394 21.1848 18.3206 21.5024C18.2018 21.82 18.1456 22.159 18.1555 22.4998C18.1653 22.8406 18.2408 23.1762 18.3777 23.487C19.0908 25.1444 21.1609 25.8588 24.2928 26.9396L24.9349 27.1596C24.9576 27.1667 24.9814 27.1693 25.0049 27.1671Z" fill="#025B37"/>
<path d="M33.7858 9.67624C34.2886 10.2707 35.0569 10.6438 35.8822 10.6564L36.3027 11.7125C35.5407 12.4556 35.2498 13.6223 35.6608 14.6531C36.0561 15.6459 37.0521 16.3194 38.1493 16.3384L38.573 17.3977C37.8109 18.1407 37.52 19.3075 37.9311 20.3382C38.3263 21.3311 39.3223 22.0046 40.4195 22.0235L40.8432 23.0828C40.2709 23.6425 39.9547 24.4456 39.999 25.2392L12.5155 36.2111C12.0128 35.5914 11.2476 35.2183 10.4129 35.2183C10.3022 35.2183 10.1915 35.2246 10.0809 35.2372L9.7457 34.3962C10.122 34.1179 10.4224 33.7416 10.6184 33.3021C10.9125 32.635 10.9283 31.8951 10.6595 31.2247C10.2485 30.1971 9.26193 29.5331 8.14577 29.5331C8.0351 29.5331 7.92444 29.5394 7.81377 29.5521L7.4786 28.711C7.85487 28.4328 8.15526 28.0565 8.3513 27.617C8.64535 26.9498 8.66116 26.2099 8.3924 25.5396C7.98135 24.512 6.99483 23.848 5.87867 23.848C5.768 23.848 5.65734 23.8543 5.54667 23.867L5.20518 23.029C5.58461 22.7508 5.88816 22.3745 6.08736 21.9287C6.27075 21.5145 6.34664 21.075 6.31502 20.6386L33.7858 9.67624ZM34.1716 8.5L5.19253 20.0663C5.1957 20.0663 5.23364 20.1549 5.25261 20.1991C5.60991 21.0971 5.1451 22.1247 4.24712 22.4852C4.18072 22.5105 4.02578 22.5674 4.00365 22.5674H4.00049L4.98385 25.0337C4.98068 25.0242 5.14827 24.9515 5.21783 24.923C5.43284 24.8377 5.65417 24.7966 5.87235 24.7966C6.56797 24.7966 7.23197 25.2108 7.50706 25.8937C7.86436 26.7917 7.40588 27.8162 6.50789 28.1767C6.44149 28.2019 6.29604 28.2557 6.27075 28.2557H6.26759L7.25095 30.722C7.24778 30.7125 7.41537 30.6398 7.48493 30.6113C7.69994 30.526 7.92127 30.4849 8.13945 30.4849C8.83507 30.4849 9.49907 30.8991 9.77416 31.582C10.1315 32.48 9.67298 33.5045 8.77499 33.865C8.70859 33.8902 8.56314 33.944 8.53785 33.944H8.53469L9.51805 36.4103C9.51488 36.4008 9.68247 36.3281 9.75203 36.2996C9.96704 36.2143 10.1884 36.1732 10.4065 36.1732C11.1053 36.1732 11.7693 36.5874 12.0413 37.2703C12.0602 37.3146 12.1077 37.4 12.1045 37.4031L41.0835 25.8368C41.0804 25.8368 41.0709 25.7388 41.0519 25.6945C40.7009 24.8187 41.2005 23.7911 42.0005 23.4369L41.0266 20.9959C40.8495 21.0592 40.6598 21.0908 40.4733 21.0908C39.7871 21.0908 39.0884 20.6892 38.8164 19.9999C38.4655 19.1241 38.9334 18.1091 39.7334 17.755L38.7595 15.3139C38.5825 15.3772 38.3927 15.4088 38.2062 15.4088C37.52 15.4088 36.8213 15.0072 36.5493 14.3179C36.1984 13.4421 36.6663 12.4271 37.4663 12.073L36.4924 9.63197C36.3122 9.69521 36.1193 9.72683 35.9264 9.72683C35.234 9.72683 34.5225 9.33159 34.2506 8.64545C34.2285 8.58221 34.1652 8.50316 34.1716 8.5Z" fill="#00DA93"/>
</svg>
