<svg width="48" height="48" viewBox="0 0 48 48" fill="none" xmlns="http://www.w3.org/2000/svg">
<path fill-rule="evenodd" clip-rule="evenodd" d="M14 6C8.47715 6 4 10.4772 4 16V38C4 40.2091 5.79086 42 8 42H40C42.2091 42 44 40.2091 44 38V16C44 10.4772 39.5228 6 34 6H14ZM40 18V16C40 12.6863 37.3137 10 34 10V18H40ZM30 18V10H18V18H30ZM14 18H8V16C8 12.6863 10.6863 10 14 10V18ZM40 22H30V26C30 29.3137 27.3137 32 24 32C20.6863 32 18 29.3137 18 26V22H8V38H40V22ZM22 22V26C22 27.1046 22.8954 28 24 28C25.1046 28 26 27.1046 26 26V22H22Z" fill="#D9E5EB"/>
</svg>
