<svg width="16" height="16" viewBox="0 0 16 16" fill="none" xmlns="http://www.w3.org/2000/svg">
<path fill-rule="evenodd" clip-rule="evenodd" d="M4.66671 2C2.82576 2 1.33337 3.49238 1.33337 5.33333V12.6667C1.33337 13.403 1.93033 14 2.66671 14H13.3334C14.0698 14 14.6667 13.403 14.6667 12.6667V5.33333C14.6667 3.49238 13.1743 2 11.3334 2H4.66671ZM13.3334 6V5.33333C13.3334 4.22876 12.4379 3.33333 11.3334 3.33333V6H13.3334ZM10 6V3.33333H6.00004V6H10ZM4.66671 6H2.66671V5.33333C2.66671 4.22876 3.56214 3.33333 4.66671 3.33333V6ZM13.3334 7.33333H10V8.66667C10 9.77124 9.10461 10.6667 8.00004 10.6667C6.89547 10.6667 6.00004 9.77124 6.00004 8.66667V7.33333H2.66671V12.6667H13.3334V7.33333ZM7.33337 7.33333V8.66667C7.33337 9.03486 7.63185 9.33333 8.00004 9.33333C8.36823 9.33333 8.66671 9.03486 8.66671 8.66667V7.33333H7.33337Z" fill="#00DA93"/>
</svg>
