<svg width="92" height="92" viewBox="0 0 92 92" fill="none" xmlns="http://www.w3.org/2000/svg">
<mask id="mask0_1878_15322" style="mask-type:alpha" maskUnits="userSpaceOnUse" x="0" y="0" width="92" height="92">
<rect width="92" height="92" fill="#C4C4C4"/>
</mask>
<g mask="url(#mask0_1878_15322)">
<path d="M4 37.6189C4 37.7118 4.00324 37.8046 4.0097 37.8973L6.48905 73.4346C6.76759 77.427 10.0875 80.5234 14.0896 80.5234H77.9099C81.912 80.5234 85.2319 77.427 85.5104 73.4346L87.9898 37.8973C87.9962 37.8046 87.9995 37.7118 87.9995 37.6189V29.4761C87.9995 19.272 79.7274 11 69.5234 11H22.4761C12.272 11 4 19.272 4 29.4761V37.6189Z" fill="white"/>
<path d="M69.5234 15H22.4761C14.4812 15 8 21.4812 8 29.4761V37.6189L10.4793 73.1562C10.6117 75.0526 12.1886 76.5234 14.0896 76.5234H77.9099C79.8109 76.5234 81.3878 75.0526 81.5201 73.1562L83.9995 37.6189V29.4761C83.9995 21.4812 77.5183 15 69.5234 15Z" fill="#805333"/>
<rect x="11.6187" y="53" width="68.7614" height="8.1428" fill="#AF8066"/>
<rect x="11.6187" y="22.2383" width="68.7614" height="8.1428" fill="#AF8066"/>
<path fill-rule="evenodd" clip-rule="evenodd" d="M8 37.6191L10.4793 73.1565C10.6117 75.0529 12.1886 76.5236 14.0896 76.5236H77.9099C79.8109 76.5236 81.3878 75.0529 81.5201 73.1565L83.9995 37.6191H8ZM17.7609 44.8572C16.7139 44.8572 15.8854 45.7431 15.9555 46.7878L17.2907 66.6924C17.3545 67.6427 18.1438 68.3808 19.0962 68.3808H72.9033C73.8556 68.3808 74.645 67.6426 74.7087 66.6924L76.044 46.7878C76.1141 45.7431 75.2856 44.8572 74.2386 44.8572H17.7609Z" fill="#FFB300"/>
<path d="M37.8574 37.6191H54.143V47.5715C54.143 52.0686 50.4974 55.7143 46.0002 55.7143V55.7143C41.5031 55.7143 37.8574 52.0686 37.8574 47.5715V37.6191Z" fill="#F2D01C"/>
<circle cx="45.9994" cy="44.8568" r="2.71427" fill="black"/>
<rect x="45.0957" y="45.7617" width="1.80951" height="4.52378" rx="0.904755" fill="black"/>
<path d="M77.667 37.6189V31.5544C77.667 21.3333 68.6195 15 63.1909 15H69.5242C77.5191 15 84.0003 21.4812 84.0003 29.4761V37.6189H77.667Z" fill="#F2D01C"/>
<path d="M14.333 37.6189V31.5544C14.333 21.3333 23.3805 15 28.8091 15H22.4758C14.4809 15 7.99971 21.4812 7.99971 29.4761V37.6189H14.333Z" fill="#F2D01C"/>
</g>
</svg>
