<svg width="20" height="21" viewBox="0 0 20 21" fill="none" xmlns="http://www.w3.org/2000/svg">
<path d="M10 20.5C15.5417 20.5 20 16.0417 20 10.5C20 4.9583 15.5417 0.5 10 0.5C4.4583 0.5 0 4.9583 0 10.5C0 16.0417 4.4583 20.5 10 20.5Z" fill="#2775CA"/>
<path d="M12.7493 12.0833C12.7493 10.625 11.8743 10.125 10.1243 9.91665C8.87432 9.74995 8.62432 9.41665 8.62432 8.83325C8.62432 8.24985 9.04102 7.87495 9.87432 7.87495C10.6243 7.87495 11.041 8.12495 11.2493 8.74995C11.291 8.87495 11.416 8.95825 11.541 8.95825H12.2076C12.3743 8.95825 12.4993 8.83325 12.4993 8.66665V8.62495C12.3326 7.70825 11.5826 6.99995 10.6243 6.91665V5.91665C10.6243 5.74995 10.4993 5.62495 10.291 5.58325H9.66602C9.49932 5.58325 9.37432 5.70825 9.33262 5.91665V6.87495C8.08262 7.04165 7.29102 7.87495 7.29102 8.91665C7.29102 10.2917 8.12432 10.8333 9.87432 11.0417C11.041 11.25 11.416 11.5 11.416 12.1667C11.416 12.8334 10.8326 13.2917 10.041 13.2917C8.95762 13.2917 8.58262 12.8333 8.45762 12.2083C8.41602 12.0417 8.29102 11.9583 8.16602 11.9583H7.45762C7.29102 11.9583 7.16602 12.0833 7.16602 12.25V12.2917C7.33262 13.3333 7.99932 14.0833 9.37432 14.2917V15.2917C9.37432 15.4583 9.49932 15.5833 9.70762 15.625H10.3326C10.4993 15.625 10.6243 15.5 10.666 15.2917V14.2917C11.916 14.0833 12.7493 13.2083 12.7493 12.0833Z" fill="white"/>
<path d="M7.87484 16.4583C4.62484 15.2917 2.95814 11.6667 4.16654 8.45835C4.79154 6.70835 6.16654 5.37505 7.87484 4.75005C8.04154 4.66675 8.12484 4.54175 8.12484 4.33335V3.75005C8.12484 3.58335 8.04154 3.45835 7.87484 3.41675C7.83314 3.41675 7.74984 3.41675 7.70814 3.45835C3.74984 4.70835 1.58314 8.91675 2.83314 12.875C3.58314 15.2083 5.37484 17 7.70814 17.75C7.87484 17.8333 8.04154 17.75 8.08314 17.5833C8.12484 17.5417 8.12484 17.5 8.12484 17.4167V16.8333C8.12484 16.7083 7.99984 16.5417 7.87484 16.4583ZM12.2915 3.45835C12.1248 3.37505 11.9581 3.45835 11.9165 3.62505C11.8748 3.66675 11.8748 3.70835 11.8748 3.79175V4.37505C11.8748 4.54175 11.9998 4.70835 12.1248 4.79175C15.3748 5.95835 17.0415 9.58335 15.8331 12.7917C15.2081 14.5417 13.8331 15.875 12.1248 16.5C11.9581 16.5833 11.8748 16.7083 11.8748 16.9167V17.5C11.8748 17.6667 11.9581 17.7917 12.1248 17.8333C12.1665 17.8333 12.2498 17.8333 12.2915 17.7917C16.2498 16.5417 18.4165 12.3333 17.1665 8.37505C16.4165 6.00005 14.5831 4.20835 12.2915 3.45835Z" fill="white"/>
</svg>
