<svg width="88" height="78" viewBox="0 0 88 78" fill="none" xmlns="http://www.w3.org/2000/svg">
<path d="M85.9634 57.9231L55.1653 6.69805C50.1097 -1.71055 37.9054 -1.71054 32.8498 6.69806L2.05169 57.9231C-3.16406 66.5982 3.10685 77.609 13.2094 77.609H74.8057C84.9082 77.609 91.1792 66.5982 85.9634 57.9231Z" fill="white"/>
<path d="M36.4271 8.84867C39.8607 3.13769 48.1546 3.13768 51.5882 8.84867L82.3863 60.0737C85.9217 65.954 81.6774 73.435 74.8058 73.435H13.2095C6.33792 73.435 2.09354 65.954 5.62894 60.0737L36.4271 8.84867Z" fill="#FFB300"/>
<path fill-rule="evenodd" clip-rule="evenodd" d="M47.8251 10.8978L78.8445 62.5276C80.6249 65.4909 78.4875 69.261 75.027 69.261H12.9881C9.52765 69.261 7.39021 65.4909 9.17061 62.5276L40.19 10.8978C41.9192 8.01974 46.0959 8.01975 47.8251 10.8978ZM45.9163 12.0415L76.9358 63.6713C77.826 65.153 76.7572 67.038 75.027 67.038H12.9881C11.2579 67.038 10.1892 65.153 11.0794 63.6713L42.0988 12.0415C42.9634 10.6025 45.0517 10.6025 45.9163 12.0415Z" fill="black" fill-opacity="0.1"/>
<path fill-rule="evenodd" clip-rule="evenodd" d="M78.5961 62.3432L47.7979 11.1182C46.0811 8.26268 41.9342 8.26268 40.2174 11.1182L9.41921 62.3432C7.65152 65.2834 9.77371 69.0239 13.2095 69.0239H74.8058C78.2416 69.0239 80.3638 65.2834 78.5961 62.3432ZM51.5882 8.84867C48.1546 3.13768 39.8607 3.13768 36.4271 8.84867L5.62894 60.0737C2.09354 65.954 6.33792 73.435 13.2095 73.435H74.8058C81.6774 73.435 85.9217 65.954 82.3863 60.0737L51.5882 8.84867Z" fill="#D9E5EB"/>
<path d="M40.0208 43.8754C39.8958 42.432 39.8335 40.9737 39.8335 39.5008V27.3324C39.8335 25.7737 40.972 24.3916 42.5107 24.3916H45.5041C47.0428 24.3916 48.1813 25.7737 48.1813 27.3324V39.5008C48.1813 40.9766 48.112 42.4379 47.9732 43.8842C47.8777 44.9857 47.7499 46.1174 47.59 47.2793C47.3978 48.6763 46.302 49.763 44.9525 49.763H43.0623C41.7119 49.763 40.6188 48.676 40.4243 47.2832C40.2622 46.1225 40.1282 44.9923 40.0224 43.893L40.0208 43.8754Z" fill="#272727"/>
<path d="M44.0074 63.0003C46.3126 63.0003 48.1813 61.0248 48.1813 58.5879C48.1813 56.151 46.3126 54.1755 44.0074 54.1755C41.7022 54.1755 39.8335 56.151 39.8335 58.5879C39.8335 61.0248 41.7022 63.0003 44.0074 63.0003Z" fill="#272727"/>
</svg>
