<svg width="96" height="96" viewBox="0 0 96 96" fill="none" xmlns="http://www.w3.org/2000/svg">
<path d="M76.2701 29.8418C75.5376 28.0139 76.5142 25.8957 78.1837 25.1566L76.1513 20.0623C74.429 20.676 72.2052 19.838 71.4727 18.0035C71.4331 17.9111 71.3078 17.7462 71.3144 17.7396L10.8364 41.878C10.843 41.878 10.9222 42.0561 10.9618 42.1551C11.7074 44.0292 10.7374 46.1738 8.86334 46.926C8.71157 46.9854 8.35523 47.1174 8.34863 47.0976L10.4009 52.2447C10.3943 52.2249 10.744 52.0731 10.8892 52.0137C12.7632 51.2681 14.9144 52.1655 15.6601 54.0396C16.4058 55.9136 15.4489 58.0516 13.5749 58.8039C13.4231 58.8633 13.08 58.9886 13.0734 58.9689L15.1256 64.1159C15.119 64.0961 15.4687 63.9443 15.6139 63.885C17.488 63.1393 19.6392 64.0367 20.3848 65.9108C21.1305 67.7848 20.1737 69.9229 18.2996 70.6751C18.1478 70.7345 17.8047 70.8599 17.7981 70.8401L19.8503 75.9871C19.8437 75.9674 20.1935 75.8156 20.3386 75.7562C22.2127 75.0105 24.3639 75.908 25.1162 77.782C25.1558 77.8744 25.2548 78.0526 25.2482 78.0592L85.7261 53.9208C85.7195 53.9208 85.6997 53.7162 85.6601 53.6238C84.9277 51.796 85.9703 49.6513 87.6398 48.9123L85.6074 43.818C83.8851 44.4317 81.7207 43.5673 80.9882 41.7394C80.2557 39.9115 81.2324 37.7933 82.9018 37.0542L80.8694 31.96C79.1669 32.5341 77.0025 31.6762 76.2701 29.8418Z" fill="white"/>
<path fill-rule="evenodd" clip-rule="evenodd" d="M80.1446 28.2892C80.1452 28.2908 80.1459 28.2924 80.1465 28.294L76.2702 29.8418L80.1446 28.2892ZM80.8696 31.96C79.1671 32.5341 77.0027 31.6763 76.2702 29.8418C75.5377 28.0139 76.5144 25.8957 78.1838 25.1566L76.1514 20.0624C75.6755 20.232 75.1613 20.2907 74.6508 20.2482C74.2876 20.2179 73.9262 20.1364 73.582 20.0071C72.6592 19.6604 71.8589 18.9704 71.4729 18.0035C71.4497 17.9495 71.3971 17.8705 71.3588 17.813C71.3413 17.7868 71.3268 17.765 71.3195 17.7521C71.3154 17.745 71.3135 17.7406 71.3145 17.7396L10.8365 41.878C10.8431 41.878 10.9223 42.0562 10.9619 42.1551C11.0004 42.252 11.0343 42.3495 11.0638 42.4475C11.2209 42.9699 11.2511 43.5062 11.1715 44.0218C11.1715 44.0216 11.1714 44.022 11.1715 44.0218C11.1143 44.3916 11.0005 44.7513 10.8365 45.087C10.6739 45.4199 10.4618 45.7299 10.2063 46.0042C10.2063 46.0042 10.2062 46.0043 10.2063 46.0042C9.94486 46.2849 9.6379 46.5286 9.29219 46.7215C9.15525 46.7979 9.0122 46.8664 8.86346 46.9261C8.71217 46.9853 8.35761 47.1166 8.34883 47.0978L10.401 52.2447C10.3944 52.2249 10.7441 52.0731 10.8893 52.0138C11.0457 51.9515 11.2041 51.9007 11.3634 51.861C11.5063 51.8254 11.6499 51.7986 11.7937 51.7805C12.7934 51.6544 13.7961 51.9454 14.564 52.5593C15.0369 52.9375 15.421 53.4385 15.6602 54.0396C15.9002 54.6427 15.9638 55.2731 15.8773 55.8759C15.8773 55.8763 15.8772 55.8767 15.8772 55.8771C15.7164 56.9952 15.0389 58.0181 14.0119 58.5947C13.8818 58.6678 13.7461 58.7337 13.6051 58.7917C13.5951 58.7958 13.5851 58.7999 13.575 58.8039C13.4237 58.8631 13.0824 58.9879 13.0736 58.9691L15.1257 64.1159C15.1191 64.0962 15.4689 63.9444 15.614 63.885C15.7704 63.8228 15.9288 63.772 16.0881 63.7322C16.231 63.6966 16.3747 63.6699 16.5184 63.6517C17.5182 63.5257 18.5208 63.8167 19.2887 64.4306C19.7616 64.8087 20.1458 65.3097 20.385 65.9108C20.6249 66.5139 20.6886 67.1443 20.6021 67.7471C20.602 67.7475 20.602 67.7479 20.6019 67.7483C20.4411 68.8664 19.7637 69.8893 18.7367 70.466C18.6066 70.539 18.4708 70.6049 18.3298 70.6629C18.3198 70.667 18.3098 70.6711 18.2997 70.6752C18.1485 70.7344 17.8071 70.8591 17.7983 70.8403L19.8505 75.9872C19.8439 75.9674 20.1936 75.8156 20.3388 75.7562C20.4952 75.694 20.6535 75.6432 20.8128 75.6035C20.9557 75.5678 21.0994 75.5411 21.2431 75.523C21.4793 75.4932 21.7156 75.4867 21.949 75.5022C21.949 75.5022 21.949 75.5022 21.949 75.5022C22.2646 75.5232 22.5749 75.5844 22.872 75.6829C23.2846 75.8196 23.6721 76.0282 24.0136 76.3003C24.4883 76.6786 24.8747 77.1801 25.1163 77.7821C25.1346 77.8247 25.1655 77.8856 25.1929 77.9395C25.2071 77.9675 25.2203 77.9936 25.2303 78.0142C25.2428 78.0399 25.2503 78.0572 25.2483 78.0592L85.7263 53.9208C85.7256 53.9208 85.7248 53.9186 85.7238 53.9146C85.7216 53.9054 85.7186 53.8866 85.7147 53.8623C85.7039 53.7947 85.6864 53.6848 85.6603 53.6239C85.3016 52.7289 85.3686 51.7579 85.7263 50.9132C85.8981 50.5075 86.1369 50.131 86.428 49.8059C86.7301 49.8573 87.022 49.9412 87.2998 50.0544C87.0414 49.9485 86.75 49.8604 86.428 49.8059C86.7684 49.4258 87.1807 49.1156 87.6399 48.9123L85.6075 43.818C83.8852 44.4317 81.7208 43.5673 80.9883 41.7394C80.2559 39.9116 81.2325 37.7933 82.902 37.0543L80.8696 31.96ZM89.8225 53.1191C89.8234 53.1237 89.8243 53.1284 89.8252 53.133C90.2029 55.0985 89.1323 57.0554 87.2735 57.7974L26.7955 81.9358C24.9555 82.6701 22.8528 82.0099 21.7629 80.3556C21.6517 80.1869 21.5542 80.0126 21.4702 79.8341C21.409 79.8598 21.3469 79.8842 21.2839 79.9072C19.163 80.6828 16.8098 79.6308 15.9734 77.5331L13.9462 72.4488C13.9077 72.3559 13.8717 72.2597 13.8385 72.16C13.377 70.7755 13.6812 69.316 14.5267 68.2473C13.098 68.039 11.8197 67.0942 11.2486 65.6618L9.22143 60.5775C9.183 60.4847 9.14701 60.3885 9.11377 60.2888C8.65226 58.9043 8.95649 57.4448 9.80193 56.3761C8.37327 56.1678 7.095 55.2229 6.52389 53.7906L4.49811 48.7098C4.45916 48.6159 4.42269 48.5185 4.38904 48.4176C3.67945 46.2888 4.78007 43.9829 6.87476 43.1927C6.81828 43.0221 6.77229 42.8462 6.73761 42.6658C6.35986 40.7003 7.43043 38.7434 9.28927 38.0014L69.7673 13.863C71.6072 13.1287 73.7099 13.7889 74.7999 15.4432C74.8308 15.4901 74.8606 15.5374 74.8894 15.5851C74.9194 15.6312 74.9609 15.696 75.005 15.7692C75.0309 15.812 75.0817 15.897 75.1427 16.0119C77.146 15.5107 79.2476 16.5591 80.0282 18.5157L82.0606 23.61C82.6448 25.0742 82.3422 26.6787 81.3993 27.8191C82.8577 28.0067 84.1668 28.9608 84.7463 30.4133L86.7787 35.5076C87.3564 36.9556 87.0669 38.5408 86.1486 39.6786C87.601 39.8696 88.9056 40.8209 89.4843 42.2714L91.5167 47.3656C92.2974 49.3224 91.4943 51.5298 89.6958 52.5451C89.7225 52.6401 89.7402 52.714 89.7505 52.7583C89.7855 52.908 89.8082 53.0353 89.8198 53.1032C89.8204 53.1066 89.8213 53.1122 89.8225 53.1191Z" fill="white"/>
<path d="M76.2701 29.8418C75.5376 28.0139 76.5142 25.8957 78.1837 25.1566L76.1513 20.0623C74.429 20.676 72.2052 19.838 71.4727 18.0035C71.4331 17.9111 71.3078 17.7462 71.3144 17.7396L10.8364 41.878C10.843 41.878 10.9222 42.0561 10.9618 42.1551C11.7074 44.0292 10.7374 46.1738 8.86334 46.926C8.71157 46.9854 8.35523 47.1174 8.34863 47.0976L10.4009 52.2447C10.3943 52.2249 10.744 52.0731 10.8892 52.0137C12.7632 51.2681 14.9144 52.1655 15.6601 54.0395C16.4058 55.9136 15.4489 58.0516 13.5749 58.8039C13.4231 58.8633 13.08 58.9886 13.0734 58.9689L15.1256 64.1159C15.119 64.0961 15.4687 63.9443 15.6139 63.885C17.488 63.1393 19.6392 64.0367 20.3848 65.9108C21.1305 67.7848 20.1737 69.9229 18.2996 70.6751C18.1478 70.7345 17.8047 70.8599 17.7981 70.8401L19.8503 75.9871C19.8437 75.9674 20.1935 75.8156 20.3386 75.7562C22.2127 75.0105 24.3639 75.908 25.1162 77.782C25.1558 77.8744 25.2548 78.0526 25.2482 78.0592L85.7261 53.9208C85.7195 53.9208 85.6997 53.7162 85.6601 53.6238C84.9277 51.796 85.9703 49.6513 87.6398 48.9123L85.6074 43.818C83.8851 44.4317 81.7207 43.5673 80.9882 41.7394C80.2557 39.9115 81.2324 37.7933 82.9018 37.0542L80.8694 31.96C79.1669 32.5341 77.0025 31.6762 76.2701 29.8418Z" fill="#D9E5EB"/>
<path d="M69.2822 24.86L16.6523 45.8678L26.7404 71.1409L79.3702 50.1331L69.2822 24.86Z" fill="#C2D4DC"/>
<path d="M25.7203 39.1174L23.6489 39.9442L36.0315 70.9657L38.1028 70.1388L25.7203 39.1174Z" fill="#D9E5EB"/>
<path d="M60.0919 25.0238L58.0205 25.8506L70.403 56.8721L72.4744 56.0453L60.0919 25.0238Z" fill="#D9E5EB"/>
<path d="M70.5093 20.1943C71.5585 21.4349 73.162 22.2135 74.8843 22.2399L75.762 24.4439C74.1716 25.9947 73.5646 28.4296 74.4224 30.5808C75.2472 32.6528 77.3259 34.0584 79.6157 34.098L80.4999 36.3086C78.9096 37.8593 78.3025 40.2943 79.1603 42.4455C79.9852 44.5175 82.0638 45.923 84.3536 45.9626L85.2378 48.1732C84.0434 49.3412 83.3836 51.0173 83.4759 52.6736L26.1192 75.5714C25.07 74.2781 23.4731 73.4994 21.731 73.4994C21.5 73.4994 21.2691 73.5126 21.0381 73.539L20.3386 71.7837C21.1239 71.203 21.7508 70.4178 22.1599 69.5005C22.7736 68.1082 22.8066 66.5641 22.2457 65.1651C21.3879 63.0205 19.329 61.6348 16.9997 61.6348C16.7687 61.6348 16.5377 61.648 16.3068 61.6744L15.6073 59.9191C16.3926 59.3384 17.0195 58.5531 17.4286 57.6359C18.0423 56.2435 18.0753 54.6994 17.5144 53.3005C16.6565 51.1559 14.5977 49.7701 12.2683 49.7701C12.0374 49.7701 11.8064 49.7833 11.5754 49.8097L10.8628 48.061C11.6546 47.4803 12.2881 46.6951 12.7038 45.7647C13.0866 44.9002 13.2449 43.983 13.179 43.0723L70.5093 20.1943ZM71.3144 17.7396L10.8364 41.878C10.843 41.878 10.9222 42.0627 10.9618 42.1551C11.7074 44.0292 10.7374 46.1738 8.86334 46.926C8.72476 46.9788 8.40142 47.0976 8.35523 47.0976H8.34863L10.4009 52.2447C10.3943 52.2249 10.744 52.0731 10.8892 52.0137C11.3379 51.8355 11.7998 51.7498 12.2551 51.7498C13.7069 51.7498 15.0926 52.6142 15.6667 54.0395C16.4124 55.9136 15.4555 58.0516 13.5815 58.8039C13.4429 58.8567 13.1394 58.9689 13.0866 58.9689H13.08L15.1322 64.1159C15.1256 64.0961 15.4753 63.9443 15.6205 63.885C16.0692 63.7068 16.5311 63.621 16.9865 63.621C18.4382 63.621 19.8239 64.4854 20.398 65.9108C21.1437 67.7848 20.1869 69.9229 18.3128 70.6751C18.1742 70.7279 17.8707 70.8401 17.8179 70.8401H17.8113L19.8635 75.9871C19.8569 75.9674 20.2067 75.8156 20.3518 75.7562C20.8006 75.578 21.2625 75.4922 21.7178 75.4922C23.1761 75.4922 24.5619 76.3567 25.1294 77.782C25.169 77.8744 25.268 78.0526 25.2614 78.0592L85.7393 53.9208C85.7327 53.9208 85.7129 53.7162 85.6733 53.6238C84.9409 51.796 85.9835 49.6513 87.653 48.9123L85.6206 43.818C85.251 43.95 84.8551 44.016 84.4658 44.016C83.0338 44.016 81.5755 43.1779 81.008 41.7394C80.2755 39.9115 81.2522 37.7933 82.9217 37.0542L80.8892 31.96C80.5197 32.0919 80.1238 32.1579 79.7344 32.1579C78.3025 32.1579 76.8442 31.3199 76.2767 29.8813C75.5442 28.0535 76.5208 25.9353 78.1903 25.1962L76.1579 20.1019C75.7818 20.2339 75.3792 20.2999 74.9767 20.2999C73.5316 20.2999 72.0468 19.475 71.4793 18.0431C71.4331 17.9111 71.3012 17.7462 71.3144 17.7396Z" fill="#CFDEE6"/>
</svg>
