<svg width="13" height="19" viewBox="0 0 13 19" fill="none" xmlns="http://www.w3.org/2000/svg">
<path fill-rule="evenodd" clip-rule="evenodd" d="M4.05103 9.45107C4.05103 9.86534 4.38686 10.2012 4.80112 10.2012L9.00167 10.2012C9.41594 10.2012 9.75177 9.86534 9.75177 9.45107C9.75177 9.03681 9.41594 8.70098 9.00167 8.70098L4.80112 8.70098C4.38686 8.70098 4.05103 9.03681 4.05103 9.45107Z" fill="white"/>
<path fill-rule="evenodd" clip-rule="evenodd" d="M3.12702 12.1855C2.89722 12.5301 2.99037 12.9959 3.33506 13.2256L6.48547 15.3259C6.83016 15.5557 7.29587 15.4626 7.52567 15.1179C7.75546 14.7732 7.66232 14.3075 7.31763 14.0777L4.16722 11.9774C3.82252 11.7476 3.35681 11.8408 3.12702 12.1855Z" fill="white"/>
<path fill-rule="evenodd" clip-rule="evenodd" d="M3.12689 6.7167C3.35668 7.06139 3.8224 7.15454 4.16709 6.92474L7.3175 4.82447C7.66219 4.59467 7.75533 4.12896 7.52554 3.78427C7.29575 3.43958 6.83003 3.34643 6.48534 3.57623L3.33493 5.6765C2.99024 5.9063 2.89709 6.37201 3.12689 6.7167Z" fill="white"/>
<path fill-rule="evenodd" clip-rule="evenodd" d="M0.63033 10.5216C-0.518642 12.245 -0.0529295 14.5736 1.67053 15.7226L4.82094 17.8228C6.5444 18.9718 8.87296 18.5061 10.0219 16.7826C10.8024 15.612 10.8378 14.1621 10.2402 12.9924C11.703 12.4809 12.7522 11.0886 12.7522 9.45124C12.7522 7.81392 11.703 6.42165 10.2403 5.91008C10.8379 4.74036 10.8025 3.29052 10.022 2.11987C8.87306 0.396408 6.54449 -0.069306 4.82104 1.07967L1.67062 3.17994C-0.0528361 4.32891 -0.518549 6.65748 0.630423 8.38094C0.766482 8.58502 0.919082 8.77147 1.08526 8.93969C1.06245 9.10695 1.05066 9.27772 1.05066 9.45124C1.05066 9.62474 1.06245 9.79548 1.08525 9.96272C0.91904 10.131 0.766412 10.3174 0.63033 10.5216ZM6.00297 5.70075L4.80116 5.70075C4.1548 5.70075 3.54662 5.86426 3.01575 6.15217C3.05363 5.96441 3.16298 5.79106 3.33494 5.67642L6.48535 3.57615C6.83005 3.34635 7.29576 3.43949 7.52555 3.78418C7.75535 4.12888 7.6622 4.59459 7.31751 4.82438L6.00297 5.70075ZM5.78549 9.45128C5.80081 9.46118 5.81609 9.47121 5.83133 9.48136L6.92108 10.2079L6.9234 10.2013L9.00171 10.2013C9.41597 10.2013 9.75181 9.86551 9.75181 9.45124C9.75181 9.03697 9.41597 8.70114 9.00171 8.70114L6.92341 8.70114C6.92264 8.69898 6.92188 8.69683 6.92111 8.69468L5.83142 9.42114C5.81616 9.43131 5.80084 9.44136 5.78549 9.45128ZM7.31742 14.0781L6.00284 13.2017L4.80116 13.2017C4.15475 13.2017 3.54654 13.0382 3.01563 12.7502C3.0535 12.938 3.16286 13.1114 3.33485 13.2261L6.48526 15.3264C6.82995 15.5561 7.29566 15.463 7.52546 15.1183C7.75525 14.7736 7.66211 14.3079 7.31742 14.0781Z" fill="white"/>
<path d="M3.12671 12.1856C2.89692 12.5303 2.99006 12.996 3.33475 13.2258L6.48516 15.3261C6.82985 15.5559 7.29557 15.4627 7.52536 15.118C7.75516 14.7734 7.66201 14.3076 7.31732 14.0779L4.16691 11.9776C3.82222 11.7478 3.35651 11.8409 3.12671 12.1856Z" fill="#00DA93"/>
<path d="M4.05096 9.45124C4.05096 9.86551 4.38679 10.2013 4.80106 10.2013L9.00161 10.2013C9.41588 10.2013 9.75171 9.86551 9.75171 9.45124C9.75171 9.03697 9.41588 8.70114 9.00161 8.70114L4.80106 8.70114C4.38679 8.70114 4.05096 9.03697 4.05096 9.45124Z" fill="#00DA93"/>
<path d="M4.16703 6.92491C3.82233 7.1547 3.35662 7.06156 3.12683 6.71686C2.89703 6.37217 2.99018 5.90646 3.33487 5.67667L6.48528 3.57639C6.82997 3.3466 7.29568 3.43974 7.52548 3.78443C7.75527 4.12912 7.66213 4.59484 7.31744 4.82463L4.16703 6.92491Z" fill="#00DA93"/>
</svg>
