<svg width="13" height="19" viewBox="0 0 13 19" fill="none" xmlns="http://www.w3.org/2000/svg">
<path fill-rule="evenodd" clip-rule="evenodd" d="M8.70117 9.45127C8.70117 9.037 8.36534 8.70117 7.95107 8.70117H3.75052C3.33626 8.70117 3.00043 9.037 3.00043 9.45127C3.00043 9.86554 3.33626 10.2014 3.75052 10.2014H7.95107C8.36534 10.2014 8.70117 9.86554 8.70117 9.45127Z" fill="white"/>
<path fill-rule="evenodd" clip-rule="evenodd" d="M9.62518 6.71689C9.85497 6.3722 9.76183 5.90649 9.41714 5.67669L6.26673 3.57642C5.92204 3.34662 5.45632 3.43977 5.22653 3.78446C4.99673 4.12915 5.08988 4.59486 5.43457 4.82466L8.58498 6.92493C8.92967 7.15473 9.39539 7.06158 9.62518 6.71689Z" fill="white"/>
<path fill-rule="evenodd" clip-rule="evenodd" d="M9.62531 12.1856C9.39551 11.841 8.9298 11.7478 8.58511 11.9776L5.4347 14.0779C5.09001 14.3077 4.99686 14.7734 5.22666 15.1181C5.45645 15.4628 5.92216 15.5559 6.26686 15.3261L9.41727 13.2258C9.76196 12.996 9.8551 12.5303 9.62531 12.1856Z" fill="white"/>
<path fill-rule="evenodd" clip-rule="evenodd" d="M12.1219 8.38078C13.2708 6.65732 12.8051 4.32876 11.0817 3.17979L7.93126 1.07951C6.2078 -0.0694609 3.87923 0.396252 2.73026 2.11971C1.94983 3.29036 1.91437 4.7402 2.51203 5.90991C1.04924 6.42146 0 7.81375 0 9.4511C0 11.0884 1.0492 12.4807 2.51194 12.9923C1.91428 14.162 1.94973 15.6118 2.73017 16.7825C3.87914 18.5059 6.20771 18.9716 7.93116 17.8227L11.0816 15.7224C12.805 14.5734 13.2707 12.2449 12.1218 10.5214C11.9857 10.3173 11.8331 10.1309 11.6669 9.96265C11.6897 9.79539 11.7015 9.62462 11.7015 9.4511C11.7015 9.27761 11.6898 9.10687 11.6669 8.93963C11.8332 8.77138 11.9858 8.5849 12.1219 8.38078ZM6.74923 13.2016H7.95104C8.5974 13.2016 9.20557 13.0381 9.73645 12.7502C9.69857 12.9379 9.58922 13.1113 9.41726 13.2259L6.26685 15.3262C5.92215 15.556 5.45644 15.4628 5.22665 15.1182C4.99685 14.7735 5.08999 14.3078 5.43469 14.078L6.74923 13.2016ZM6.96671 9.45107C6.95138 9.44116 6.9361 9.43113 6.92087 9.42098L5.83111 8.69447L5.82879 8.70101H3.75049C3.33622 8.70101 3.00039 9.03684 3.00039 9.4511C3.00039 9.86537 3.33622 10.2012 3.75049 10.2012H5.82879C5.82956 10.2034 5.83032 10.2055 5.83109 10.2077L6.92078 9.48121C6.93604 9.47103 6.95135 9.46099 6.96671 9.45107ZM5.43478 4.82423L6.74936 5.70061H7.95104C8.59745 5.70061 9.20566 5.86415 9.73656 6.15209C9.6987 5.96431 9.58934 5.79092 9.41735 5.67626L6.26694 3.57599C5.92225 3.34619 5.45653 3.43934 5.22674 3.78403C4.99694 4.12872 5.09009 4.59443 5.43478 4.82423Z" fill="white"/>
<path d="M9.62549 6.71673C9.85528 6.37204 9.76214 5.90632 9.41745 5.67653L6.26703 3.57625C5.92234 3.34646 5.45663 3.4396 5.22684 3.78429C4.99704 4.12899 5.09018 4.5947 5.43488 4.82449L8.58529 6.92477C8.92998 7.15456 9.39569 7.06142 9.62549 6.71673Z" fill="#00DA93"/>
<path d="M8.70123 9.45111C8.70123 9.03684 8.3654 8.70101 7.95114 8.70101H3.75059C3.33632 8.70101 3.00049 9.03684 3.00049 9.45111C3.00049 9.86537 3.33632 10.2012 3.75059 10.2012H7.95114C8.3654 10.2012 8.70123 9.86537 8.70123 9.45111Z" fill="#00DA93"/>
<path d="M8.58517 11.9774C8.92986 11.7476 9.39558 11.8408 9.62537 12.1855C9.85517 12.5302 9.76202 12.9959 9.41733 13.2257L6.26692 15.326C5.92223 15.5557 5.45651 15.4626 5.22672 15.1179C4.99693 14.7732 5.09007 14.3075 5.43476 14.0777L8.58517 11.9774Z" fill="#00DA93"/>
</svg>
