<svg width="20" height="19" viewBox="0 0 20 19" fill="none" xmlns="http://www.w3.org/2000/svg">
<path d="M5.69945 13.3435L9.99796 16.6867L17.1621 10.4777L19.0726 4.74641L16.4741 1.40314H12.386L9.99796 3.19756L7.6099 1.40314H3.53711L0.92334 4.74641L1.87856 8.56731L5.69945 13.3435Z" fill="white"/>
<path fill-rule="evenodd" clip-rule="evenodd" d="M5.83766 0C2.64356 0 0 2.45578 0 5.52978C0 7.9039 1.49176 10.551 4.25139 13.3858C6.38538 15.5778 8.70195 17.2711 9.36274 17.7393L9.74105 18.0071C9.89611 18.117 10.1036 18.117 10.2586 18.0073L10.637 17.7393C11.2977 17.2711 13.6145 15.5779 15.7485 13.3858C18.5082 10.551 20 7.90395 20 5.52978C20 2.45578 17.3564 0 14.1624 0C12.581 0 11.0857 0.608925 10 1.65611C8.91425 0.608888 7.41902 0 5.83766 0ZM2.15516 5.52978C2.15516 3.65419 3.78235 2.0832 5.83766 2.0832C7.18585 2.0832 8.41871 2.77628 9.06316 3.87238L9.61401 4.8093C9.69444 4.94611 9.84129 5.03013 10 5.03013C10.1587 5.03013 10.3055 4.94611 10.386 4.8093L10.9369 3.87238C11.5813 2.77631 12.8141 2.0832 14.1624 2.0832C16.2176 2.0832 17.8449 3.65415 17.8449 5.52978C17.8449 7.20535 16.6444 9.42538 14.1789 11.9579C12.6254 13.5536 10.961 14.8744 9.99988 15.5939C9.03875 14.8744 7.37455 13.5536 5.82104 11.9579C3.35557 9.42538 2.15516 7.20528 2.15516 5.52978Z" fill="#82AABE"/>
</svg>
