<svg width="24" height="24" viewBox="0 0 24 24" fill="none" xmlns="http://www.w3.org/2000/svg">
<path d="M16.2856 12.4762C19.2284 9.8 21.9999 7.29524 21.9999 5.14286C21.9999 3.38095 20.6189 2 18.857 2C17.8665 2 16.9046 2.46667 16.2856 3.19048C15.657 2.46667 14.7046 2 13.7141 2C11.9522 2 10.5713 3.38095 10.5713 5.14286C10.5713 7.29524 13.3427 9.8 16.2856 12.4762ZM13.7141 3.90476C14.1332 3.90476 14.5618 4.10476 14.838 4.42857L16.2856 6.13333L17.7332 4.42857C18.0094 4.10476 18.438 3.90476 18.857 3.90476C19.5618 3.90476 20.0951 4.4381 20.0951 5.14286C20.0951 6.20952 18.1522 8.1619 16.2856 9.89524C14.4189 8.1619 12.4761 6.2 12.4761 5.14286C12.4761 4.4381 13.0094 3.90476 13.7141 3.90476Z" fill="#28241C"/>
<path d="M19.1429 15.3332H17.2381C17.2381 14.1903 16.5238 13.1618 15.4571 12.7618L9.59048 10.5713H2V21.0475H7.71429V19.6761L14.381 21.5237L22 19.1427V18.1903C22 16.6094 20.7238 15.3332 19.1429 15.3332ZM3.90476 19.1427V12.4761H5.80952V19.1427H3.90476ZM14.3524 19.5332L7.71429 17.6951V12.4761H9.24762L14.7905 14.5427C15.1143 14.6665 15.3333 14.9808 15.3333 15.3332C15.3333 15.3332 13.4381 15.2856 13.1429 15.1903L10.8762 14.438L10.2762 16.2475L12.5429 16.9999C13.0286 17.1618 13.5333 17.2475 14.0476 17.2475H19.1429C19.5143 17.2475 19.8476 17.4665 20 17.7808L14.3524 19.5332Z" fill="#28241C"/>
</svg>
