<svg width="24" height="24" viewBox="0 0 24 24" fill="none" xmlns="http://www.w3.org/2000/svg">
<mask id="mask0_3494_16894" style="mask-type:alpha" maskUnits="userSpaceOnUse" x="0" y="0" width="24" height="24">
<rect width="24" height="24" fill="#D9D9D9"/>
</mask>
<g mask="url(#mask0_3494_16894)">
<path d="M15.8254 10.5001C16.8921 9.5501 17.8504 8.6041 18.7004 7.6621C19.5504 6.72076 19.9754 5.94176 19.9754 5.3251C19.9754 4.89176 19.8377 4.53743 19.5624 4.2621C19.2877 3.98743 18.9337 3.8501 18.5004 3.8501C18.2504 3.8501 17.9921 3.91243 17.7254 4.0371C17.4587 4.16243 17.2004 4.39176 16.9504 4.7251L15.8254 6.0751L14.7004 4.7251C14.4504 4.39176 14.1921 4.16243 13.9254 4.0371C13.6587 3.91243 13.4004 3.8501 13.1504 3.8501C12.7171 3.8501 12.3631 3.98743 12.0884 4.2621C11.8131 4.53743 11.6754 4.89176 11.6754 5.3251C11.6754 5.94176 12.1004 6.72076 12.9504 7.6621C13.8004 8.6041 14.7587 9.5501 15.8254 10.5001ZM13.7004 20.3751C13.7337 20.3918 13.7631 20.4001 13.7884 20.4001C13.8131 20.4001 13.8421 20.3918 13.8754 20.3751L19.7504 18.5501C19.7004 18.3168 19.5921 18.1418 19.4254 18.0251C19.2587 17.9084 19.0754 17.8501 18.8754 17.8501H14.0004C13.5504 17.8501 13.1754 17.8294 12.8754 17.7881C12.5754 17.7461 12.2587 17.6751 11.9254 17.5751L10.3754 17.0751C10.1587 17.0084 10.0087 16.8794 9.92539 16.6881C9.84206 16.4961 9.83372 16.2918 9.90039 16.0751C9.96706 15.8918 10.0921 15.7541 10.2754 15.6621C10.4587 15.5708 10.6504 15.5501 10.8504 15.6001L12.1504 16.0751C12.4504 16.1584 12.7881 16.2208 13.1634 16.2621C13.5381 16.3041 14.0254 16.3334 14.6254 16.3501H14.8754C14.8754 16.1001 14.8214 15.8834 14.7134 15.7001C14.6047 15.5168 14.4587 15.4001 14.2754 15.3501L8.47539 13.2001H6.52539V18.3501L13.7004 20.3751ZM3.02539 19.4501C3.02539 19.5501 3.05472 19.6294 3.11339 19.6881C3.17139 19.7461 3.24206 19.7751 3.32539 19.7751H4.70039C4.80039 19.7751 4.87972 19.7501 4.93839 19.7001C4.99639 19.6501 5.02539 19.5668 5.02539 19.4501V13.2001H3.32539C3.24206 13.2001 3.17139 13.2291 3.11339 13.2871C3.05472 13.3458 3.02539 13.4168 3.02539 13.5001V19.4501Z" fill="#00DA93"/>
<path d="M15.8254 12.25C15.7254 12.25 15.6297 12.2373 15.5384 12.212C15.4464 12.1873 15.3587 12.1416 15.2754 12.075C13.8754 10.825 12.6754 9.62898 11.6754 8.48698C10.6754 7.34564 10.1754 6.29164 10.1754 5.32498C10.1754 4.49164 10.4631 3.78731 11.0384 3.21198C11.6131 2.63731 12.3171 2.34998 13.1504 2.34998C13.6504 2.34998 14.1337 2.46664 14.6004 2.69998C15.0671 2.93331 15.4754 3.27498 15.8254 3.72498C16.1921 3.27498 16.6044 2.93331 17.0624 2.69998C17.5211 2.46664 18.0004 2.34998 18.5004 2.34998C19.3504 2.34998 20.0587 2.63731 20.6254 3.21198C21.1921 3.78731 21.4754 4.49164 21.4754 5.32498C21.4754 6.29164 20.9754 7.34564 19.9754 8.48698C18.9754 9.62898 17.7754 10.825 16.3754 12.075C16.3087 12.1416 16.2254 12.1873 16.1254 12.212C16.0254 12.2373 15.9254 12.25 15.8254 12.25ZM15.8254 10.5C16.8921 9.54998 17.8504 8.60398 18.7004 7.66198C19.5504 6.72064 19.9754 5.94164 19.9754 5.32498C19.9754 4.89164 19.8377 4.53731 19.5624 4.26198C19.2877 3.98731 18.9337 3.84998 18.5004 3.84998C18.2504 3.84998 17.9921 3.91231 17.7254 4.03698C17.4587 4.16231 17.2004 4.39164 16.9504 4.72498L15.8254 6.07498L14.7004 4.72498C14.4504 4.39164 14.1921 4.16231 13.9254 4.03698C13.6587 3.91231 13.4004 3.84998 13.1504 3.84998C12.7171 3.84998 12.3631 3.98731 12.0884 4.26198C11.8131 4.53731 11.6754 4.89164 11.6754 5.32498C11.6754 5.94164 12.1004 6.72064 12.9504 7.66198C13.8004 8.60398 14.7587 9.54998 15.8254 10.5ZM13.7004 20.375C13.7337 20.3916 13.7631 20.4 13.7884 20.4C13.8131 20.4 13.8421 20.3916 13.8754 20.375L19.7504 18.55C19.7004 18.3166 19.5921 18.1416 19.4254 18.025C19.2587 17.9083 19.0754 17.85 18.8754 17.85H14.0004C13.5504 17.85 13.1754 17.8293 12.8754 17.788C12.5754 17.746 12.2587 17.675 11.9254 17.575L10.3754 17.075C10.1587 17.0083 10.0087 16.8793 9.92539 16.688C9.84206 16.496 9.83372 16.2916 9.90039 16.075C9.96706 15.8916 10.0921 15.754 10.2754 15.662C10.4587 15.5706 10.6504 15.55 10.8504 15.6L12.1504 16.075C12.4504 16.1583 12.7881 16.2206 13.1634 16.262C13.5381 16.304 14.0254 16.3333 14.6254 16.35H14.8754C14.8754 16.1 14.8214 15.8833 14.7134 15.7C14.6047 15.5166 14.4587 15.4 14.2754 15.35L8.47539 13.2H6.52539V18.35L13.7004 20.375ZM13.3004 21.85L6.52539 19.9C6.40872 20.3166 6.17539 20.65 5.82539 20.9C5.47539 21.15 5.10039 21.275 4.70039 21.275H3.32539C2.82539 21.275 2.40039 21.0956 2.05039 20.737C1.70039 20.379 1.52539 19.95 1.52539 19.45V13.5C1.52539 13 1.70039 12.575 2.05039 12.225C2.40039 11.875 2.82539 11.7 3.32539 11.7H8.35039C8.46706 11.7 8.57539 11.7083 8.67539 11.725C8.77539 11.7416 8.87539 11.7666 8.97539 11.8L14.8004 13.95C15.2504 14.1166 15.6254 14.4123 15.9254 14.837C16.2254 15.2623 16.3754 15.7666 16.3754 16.35H18.8754C19.5921 16.35 20.1797 16.5793 20.6384 17.038C21.0964 17.496 21.3254 18.1 21.3254 18.85C21.3254 19.1333 21.2504 19.3626 21.1004 19.538C20.9504 19.7126 20.7171 19.85 20.4004 19.95L14.3504 21.825C14.1837 21.875 14.0087 21.9043 13.8254 21.913C13.6421 21.921 13.4671 21.9 13.3004 21.85ZM3.02539 19.45C3.02539 19.55 3.05472 19.6293 3.11339 19.688C3.17139 19.746 3.24206 19.775 3.32539 19.775H4.70039C4.80039 19.775 4.87972 19.75 4.93839 19.7C4.99639 19.65 5.02539 19.5666 5.02539 19.45V13.2H3.32539C3.24206 13.2 3.17139 13.229 3.11339 13.287C3.05472 13.3456 3.02539 13.4166 3.02539 13.5V19.45Z" fill="#28241C"/>
</g>
</svg>
