<svg width="20" height="20" viewBox="0 0 20 20" fill="none" xmlns="http://www.w3.org/2000/svg">
<path d="M16.4091 10.8818L16.0389 11.3114C15.9501 11.4145 15.9072 11.5492 15.9199 11.6846L15.9727 12.2454L16.096 13.5814C16.1191 13.8313 15.9533 14.0596 15.7085 14.115L14.4091 14.4091L13.855 14.5344C13.7212 14.5647 13.6057 14.6486 13.5356 14.7665L13.2454 15.2545L12.5695 16.4015C12.4415 16.6187 12.1717 16.7067 11.9403 16.6065L10.7272 16.0818L10.1968 15.8564C10.0711 15.8029 9.929 15.8033 9.80355 15.8573L9.28179 16.0818L8.06771 16.607C7.83671 16.7069 7.56744 16.6196 7.43909 16.4031L6.76361 15.2636L6.47345 14.7756C6.40332 14.6577 6.28782 14.5738 6.15399 14.5435L5.59997 14.4182L4.30034 14.124C4.05563 14.0687 3.88985 13.8405 3.9128 13.5906L4.03634 12.2454L4.08912 11.6846C4.10186 11.5492 4.05889 11.4145 3.97012 11.3114L3.59997 10.8818L2.71568 9.87412C2.55052 9.68591 2.55004 9.40456 2.71457 9.2158L3.59997 8.19999L3.96811 7.77269C4.05806 7.66828 4.10093 7.53136 4.08659 7.39429L4.02725 6.82726L3.90416 5.50061C3.88096 5.25061 4.04677 5.02217 4.29165 4.96675L5.59088 4.67271L6.1449 4.5474C6.27873 4.51713 6.39423 4.43319 6.46436 4.31526L6.75452 3.82726L7.4304 2.68031C7.55843 2.46304 7.82823 2.37513 8.05968 2.47526L9.2727 2.99999L9.80317 3.22544C9.92886 3.27886 10.0709 3.27853 10.1964 3.22454L10.7182 2.99999L11.9312 2.47526C12.1626 2.37513 12.4324 2.46304 12.5605 2.68031L13.2363 3.82726L13.5265 4.31526C13.5966 4.43319 13.7121 4.51713 13.846 4.5474L14.4 4.67271L15.6994 4.9668C15.9442 5.0222 16.11 5.2505 16.0869 5.50042L15.9636 6.83635L15.9108 7.39714C15.8981 7.53255 15.9411 7.66731 16.0298 7.77035L16.4 8.19999L17.2854 9.20895C17.4501 9.3966 17.4511 9.67698 17.2878 9.86582L16.4091 10.8818Z" fill="#00DA93"/>
<path d="M19.7132 9.86544C19.8775 9.67692 19.8773 9.39602 19.7127 9.2078L17.923 7.16145C17.8329 7.05836 17.7889 6.9228 17.8015 6.78642L18.0507 4.08184C18.0737 3.83209 17.9081 3.60394 17.6636 3.54838L15.0189 2.94765C14.8849 2.91723 14.7694 2.83308 14.6994 2.71493L13.3148 0.377868C13.1867 0.161729 12.9182 0.0741733 12.6873 0.1733L10.1973 1.24256C10.0713 1.29665 9.92868 1.29665 9.80271 1.24256L7.31267 0.1733C7.08182 0.0741735 6.81327 0.16173 6.68521 0.377868L5.30096 2.71426C5.23072 2.8328 5.11469 2.9171 4.98025 2.94727L2.33772 3.54019C2.09256 3.5952 1.9263 3.82361 1.94929 4.07381L2.19856 6.78649C2.21109 6.92283 2.16716 7.05834 2.07703 7.1614L0.287865 9.20721C0.123027 9.39569 0.123027 9.67704 0.287865 9.86552L2.07703 11.9113C2.16716 12.0144 2.21109 12.1499 2.19856 12.2862L1.94918 15.0001C1.92624 15.2498 2.0918 15.4779 2.33633 15.5334L4.98075 16.1341C5.11489 16.1646 5.23055 16.2489 5.30051 16.3674L6.68486 18.7113C6.813 18.9282 7.08253 19.0159 7.3138 18.9159L9.80225 17.84C9.92847 17.7855 10.0716 17.7853 10.198 17.8396L12.6873 18.9085C12.9182 19.0076 13.1867 18.9201 13.3148 18.704L14.6994 16.3669C14.7694 16.2487 14.8849 16.1646 15.0189 16.1342L17.6636 15.5334C17.9081 15.4779 18.0737 15.2497 18.0507 15L17.8014 12.2949C17.7889 12.1588 17.8326 12.0235 17.9224 11.9205L19.7132 9.86544ZM16.4091 10.8818L16.0389 11.3115C15.9502 11.4145 15.9072 11.5493 15.9199 11.6847L15.9727 12.2455L16.096 13.5814C16.1191 13.8313 15.9533 14.0596 15.7085 14.115L14.4091 14.4091L13.8551 14.5344C13.7212 14.5647 13.6057 14.6486 13.5356 14.7665L13.2455 15.2545L12.5696 16.4015C12.4415 16.6188 12.1717 16.7067 11.9403 16.6066L10.7273 16.0818L10.1968 15.8564C10.0711 15.8029 9.92903 15.8033 9.80358 15.8573L9.28182 16.0818L8.06773 16.607C7.83673 16.7069 7.56746 16.6196 7.43912 16.4031L6.76364 15.2636L6.47347 14.7756C6.40335 14.6577 6.28784 14.5738 6.15401 14.5435L5.6 14.4182L4.30036 14.1241C4.05565 14.0687 3.88988 13.8405 3.91282 13.5907L4.03636 12.2455L4.08914 11.6847C4.10189 11.5493 4.05892 11.4145 3.97015 11.3115L3.6 10.8818L2.71571 9.87413C2.55054 9.68593 2.55007 9.40457 2.7146 9.21581L3.6 8.2L3.96813 7.7727C4.05809 7.66829 4.10096 7.53138 4.08661 7.39431L4.02727 6.82727L3.90418 5.50063C3.88099 5.25062 4.04679 5.02219 4.29168 4.96676L5.59091 4.67273L6.14492 4.54741C6.27875 4.51714 6.39426 4.43321 6.46438 4.31527L6.75455 3.82727L7.43043 2.68032C7.55846 2.46306 7.82825 2.37514 8.05971 2.47527L9.27273 3L9.80319 3.22545C9.92889 3.27887 10.071 3.27855 10.1964 3.22455L10.7182 3L11.9312 2.47527C12.1627 2.37514 12.4325 2.46306 12.5605 2.68032L13.2364 3.82727L13.5265 4.31527C13.5966 4.43321 13.7122 4.51714 13.846 4.54741L14.4 4.67273L15.6994 4.96681C15.9442 5.02221 16.11 5.25051 16.087 5.50044L15.9636 6.83636L15.9109 7.39716C15.8981 7.53257 15.9411 7.66732 16.0299 7.77036L16.4 8.2L17.2854 9.20896C17.4501 9.39662 17.4511 9.67699 17.2878 9.86583L16.4091 10.8818Z" fill="#185669"/>
<path d="M8.61794 10.7808C8.42248 10.977 8.10485 10.9769 7.90947 10.7807L6.50928 9.37444C6.31368 9.17799 5.99559 9.17819 5.80023 9.37487L5.1598 10.0196C4.96584 10.2149 4.96616 10.5302 5.16052 10.7251L7.90959 13.4814C8.10497 13.6773 8.42228 13.6773 8.61765 13.4814L14.5849 7.4978C14.7793 7.30293 14.7796 6.98763 14.5857 6.79237L13.9451 6.14744C13.7498 5.95082 13.4318 5.95055 13.2362 6.14685L8.61794 10.7808Z" fill="#185669"/>
</svg>
