<svg width="24" height="24" viewBox="0 0 24 24" fill="none" xmlns="http://www.w3.org/2000/svg">
<mask id="mask0_3494_16843" style="mask-type:alpha" maskUnits="userSpaceOnUse" x="0" y="0" width="24" height="24">
<rect width="24" height="24" fill="#D9D9D9"/>
</mask>
<g mask="url(#mask0_3494_16843)">
<path d="M9.44941 19.95L11.9994 18.875L14.5744 19.95L15.9994 17.55L18.7494 16.925L18.4994 14.1L20.3494 12L18.4994 9.87505L18.7494 7.05005L15.9994 6.45005L14.5494 4.05005L11.9994 5.12505L9.42441 4.05005L7.99941 6.45005L5.24941 7.05005L5.49941 9.87505L3.64941 12L5.49941 14.1L5.24941 16.95L7.99941 17.55L9.44941 19.95Z" fill="#00DA93"/>
<path d="M8.7998 21.875L7.02481 18.85L3.6498 18.125L3.9748 14.625L1.6748 12L3.9748 9.375L3.6498 5.875L7.02481 5.15L8.7998 2.125L11.9998 3.5L15.1998 2.125L16.9748 5.15L20.3498 5.875L20.0248 9.375L22.3248 12L20.0248 14.625L20.3498 18.125L16.9748 18.85L15.1998 21.875L11.9998 20.5L8.7998 21.875ZM9.4498 19.95L11.9998 18.875L14.5748 19.95L15.9998 17.55L18.7498 16.925L18.4998 14.1L20.3498 12L18.4998 9.875L18.7498 7.05L15.9998 6.45L14.5498 4.05L11.9998 5.125L9.4248 4.05L7.9998 6.45L5.2498 7.05L5.4998 9.875L3.6498 12L5.4998 14.1L5.2498 16.95L7.9998 17.55L9.4498 19.95ZM10.9498 15.2L16.2498 9.9L15.1998 8.825L10.9498 13.075L8.7998 10.95L7.7498 12L10.9498 15.2Z" fill="#28241C"/>
</g>
</svg>
