<svg width="24" height="24" viewBox="0 0 24 24" fill="none" xmlns="http://www.w3.org/2000/svg">
<path d="M2 8C2 5.23858 4.23858 3 7 3H17C19.7614 3 22 5.23858 22 8V19C22 20.1046 21.1046 21 20 21H4C2.89543 21 2 20.1046 2 19V8Z" fill="#00CDB4"/>
<path fill-rule="evenodd" clip-rule="evenodd" d="M7 3C4.23858 3 2 5.23858 2 8V19C2 20.1046 2.89543 21 4 21H20C21.1046 21 22 20.1046 22 19V8C22 5.23858 19.7614 3 17 3H7ZM20 9V8C20 6.34315 18.6569 5 17 5V9H20ZM15 9V5H9V9H15ZM7 9H4V8C4 6.34315 5.34315 5 7 5V9ZM20 11H15V13C15 14.6569 13.6569 16 12 16C10.3431 16 9 14.6569 9 13V11H4V19H20V11ZM11 11V13C11 13.5523 11.4477 14 12 14C12.5523 14 13 13.5523 13 13V11H11Z" fill="#185669"/>
</svg>
